M48
; DRILL file {KiCad (6.0.5)} date Sat Jun 17 13:18:28 2023
; FORMAT={-:-/ absolute / metric / decimal}
; #@! TF.CreationDate,2023-06-17T13:18:28+02:00
; #@! TF.GenerationSoftware,Kicad,Pcbnew,(6.0.5)
; #@! TF.FileFunction,Plated,1,2,PTH
FMAT,2
METRIC
; #@! TA.AperFunction,Plated,PTH,ComponentDrill
T1C0.750
; #@! TA.AperFunction,Plated,PTH,ComponentDrill
T2C1.000
; #@! TA.AperFunction,Plated,PTH,ComponentDrill
T3C1.200
%
G90
G05
T1
X131.037Y-95.15
X133.037Y-95.15
X138.6Y-95.4
X140.6Y-95.4
X143.588Y-74.85
X145.588Y-74.85
X145.938Y-95.4
X147.938Y-95.4
T2
X118.625Y-74.9
X118.968Y-97.382
X121.165Y-74.9
X121.507Y-97.382
X124.047Y-97.382
X128.0Y-74.8
X130.54Y-74.8
X133.08Y-74.8
X135.62Y-74.8
T3
X118.43Y-81.43
X120.97Y-81.43
X123.51Y-81.43
X126.05Y-81.43
X128.59Y-81.43
X131.13Y-81.43
X133.67Y-81.43
X136.21Y-81.43
X138.75Y-81.43
X141.29Y-81.43
X143.83Y-81.43
X146.37Y-81.43
T0
M30
