%TF.GenerationSoftware,KiCad,Pcbnew,(6.0.5)*%
%TF.CreationDate,2023-06-19T13:08:36+02:00*%
%TF.ProjectId,PCB_Hoja,5043425f-486f-46a6-912e-6b696361645f,rev?*%
%TF.SameCoordinates,Original*%
%TF.FileFunction,Legend,Top*%
%TF.FilePolarity,Positive*%
%FSLAX46Y46*%
G04 Gerber Fmt 4.6, Leading zero omitted, Abs format (unit mm)*
G04 Created by KiCad (PCBNEW (6.0.5)) date 2023-06-19 13:08:36*
%MOMM*%
%LPD*%
G01*
G04 APERTURE LIST*
%ADD10C,0.150000*%
%ADD11C,0.098425*%
%ADD12C,0.127000*%
%ADD13C,0.200000*%
%ADD14C,0.120000*%
G04 APERTURE END LIST*
D10*
X129053571Y-78794047D02*
X128682142Y-78794047D01*
X128867857Y-78794047D02*
X128867857Y-78144047D01*
X128805952Y-78236904D01*
X128744047Y-78298809D01*
X128682142Y-78329761D01*
X129455952Y-78144047D02*
X129517857Y-78144047D01*
X129579761Y-78175000D01*
X129610714Y-78205952D01*
X129641666Y-78267857D01*
X129672619Y-78391666D01*
X129672619Y-78546428D01*
X129641666Y-78670238D01*
X129610714Y-78732142D01*
X129579761Y-78763095D01*
X129517857Y-78794047D01*
X129455952Y-78794047D01*
X129394047Y-78763095D01*
X129363095Y-78732142D01*
X129332142Y-78670238D01*
X129301190Y-78546428D01*
X129301190Y-78391666D01*
X129332142Y-78267857D01*
X129363095Y-78205952D01*
X129394047Y-78175000D01*
X129455952Y-78144047D01*
X129951190Y-78360714D02*
X129951190Y-78794047D01*
X129951190Y-78422619D02*
X129982142Y-78391666D01*
X130044047Y-78360714D01*
X130136904Y-78360714D01*
X130198809Y-78391666D01*
X130229761Y-78453571D01*
X130229761Y-78794047D01*
X130755952Y-78453571D02*
X130539285Y-78453571D01*
X130539285Y-78794047D02*
X130539285Y-78144047D01*
X130848809Y-78144047D01*
X120852380Y-77294047D02*
X120852380Y-76644047D01*
X120852380Y-76953571D02*
X121223809Y-76953571D01*
X121223809Y-77294047D02*
X121223809Y-76644047D01*
X121533333Y-76644047D02*
X121533333Y-77170238D01*
X121564285Y-77232142D01*
X121595238Y-77263095D01*
X121657142Y-77294047D01*
X121780952Y-77294047D01*
X121842857Y-77263095D01*
X121873809Y-77232142D01*
X121904761Y-77170238D01*
X121904761Y-76644047D01*
X122214285Y-77294047D02*
X122214285Y-76644047D01*
X122430952Y-77108333D01*
X122647619Y-76644047D01*
X122647619Y-77294047D01*
X157182142Y-102205952D02*
X157213095Y-102175000D01*
X157275000Y-102144047D01*
X157429761Y-102144047D01*
X157491666Y-102175000D01*
X157522619Y-102205952D01*
X157553571Y-102267857D01*
X157553571Y-102329761D01*
X157522619Y-102422619D01*
X157151190Y-102794047D01*
X157553571Y-102794047D01*
X157801190Y-102205952D02*
X157832142Y-102175000D01*
X157894047Y-102144047D01*
X158048809Y-102144047D01*
X158110714Y-102175000D01*
X158141666Y-102205952D01*
X158172619Y-102267857D01*
X158172619Y-102329761D01*
X158141666Y-102422619D01*
X157770238Y-102794047D01*
X158172619Y-102794047D01*
X158729761Y-102360714D02*
X158729761Y-102794047D01*
X158451190Y-102360714D02*
X158451190Y-102701190D01*
X158482142Y-102763095D01*
X158544047Y-102794047D01*
X158636904Y-102794047D01*
X158698809Y-102763095D01*
X158729761Y-102732142D01*
X159255952Y-102453571D02*
X159039285Y-102453571D01*
X159039285Y-102794047D02*
X159039285Y-102144047D01*
X159348809Y-102144047D01*
X116295238Y-82794047D02*
X115923809Y-82794047D01*
X116109523Y-82794047D02*
X116109523Y-82144047D01*
X116047619Y-82236904D01*
X115985714Y-82298809D01*
X115923809Y-82329761D01*
X116697619Y-82144047D02*
X116759523Y-82144047D01*
X116821428Y-82175000D01*
X116852380Y-82205952D01*
X116883333Y-82267857D01*
X116914285Y-82391666D01*
X116914285Y-82546428D01*
X116883333Y-82670238D01*
X116852380Y-82732142D01*
X116821428Y-82763095D01*
X116759523Y-82794047D01*
X116697619Y-82794047D01*
X116635714Y-82763095D01*
X116604761Y-82732142D01*
X116573809Y-82670238D01*
X116542857Y-82546428D01*
X116542857Y-82391666D01*
X116573809Y-82267857D01*
X116604761Y-82205952D01*
X116635714Y-82175000D01*
X116697619Y-82144047D01*
X117316666Y-82144047D02*
X117378571Y-82144047D01*
X117440476Y-82175000D01*
X117471428Y-82205952D01*
X117502380Y-82267857D01*
X117533333Y-82391666D01*
X117533333Y-82546428D01*
X117502380Y-82670238D01*
X117471428Y-82732142D01*
X117440476Y-82763095D01*
X117378571Y-82794047D01*
X117316666Y-82794047D01*
X117254761Y-82763095D01*
X117223809Y-82732142D01*
X117192857Y-82670238D01*
X117161904Y-82546428D01*
X117161904Y-82391666D01*
X117192857Y-82267857D01*
X117223809Y-82205952D01*
X117254761Y-82175000D01*
X117316666Y-82144047D01*
X117904761Y-82794047D02*
X117842857Y-82763095D01*
X117811904Y-82732142D01*
X117780952Y-82670238D01*
X117780952Y-82484523D01*
X117811904Y-82422619D01*
X117842857Y-82391666D01*
X117904761Y-82360714D01*
X117997619Y-82360714D01*
X118059523Y-82391666D01*
X118090476Y-82422619D01*
X118121428Y-82484523D01*
X118121428Y-82670238D01*
X118090476Y-82732142D01*
X118059523Y-82763095D01*
X117997619Y-82794047D01*
X117904761Y-82794047D01*
X118400000Y-82794047D02*
X118400000Y-82144047D01*
X118678571Y-82794047D02*
X118678571Y-82453571D01*
X118647619Y-82391666D01*
X118585714Y-82360714D01*
X118492857Y-82360714D01*
X118430952Y-82391666D01*
X118400000Y-82422619D01*
X118988095Y-82794047D02*
X118988095Y-82360714D01*
X118988095Y-82422619D02*
X119019047Y-82391666D01*
X119080952Y-82360714D01*
X119173809Y-82360714D01*
X119235714Y-82391666D01*
X119266666Y-82453571D01*
X119266666Y-82794047D01*
X119266666Y-82453571D02*
X119297619Y-82391666D01*
X119359523Y-82360714D01*
X119452380Y-82360714D01*
X119514285Y-82391666D01*
X119545238Y-82453571D01*
X119545238Y-82794047D01*
X107878571Y-74732142D02*
X107847619Y-74763095D01*
X107754761Y-74794047D01*
X107692857Y-74794047D01*
X107600000Y-74763095D01*
X107538095Y-74701190D01*
X107507142Y-74639285D01*
X107476190Y-74515476D01*
X107476190Y-74422619D01*
X107507142Y-74298809D01*
X107538095Y-74236904D01*
X107600000Y-74175000D01*
X107692857Y-74144047D01*
X107754761Y-74144047D01*
X107847619Y-74175000D01*
X107878571Y-74205952D01*
X108064285Y-74144047D02*
X108435714Y-74144047D01*
X108250000Y-74794047D02*
X108250000Y-74144047D01*
X109023809Y-74794047D02*
X108807142Y-74484523D01*
X108652380Y-74794047D02*
X108652380Y-74144047D01*
X108900000Y-74144047D01*
X108961904Y-74175000D01*
X108992857Y-74205952D01*
X109023809Y-74267857D01*
X109023809Y-74360714D01*
X108992857Y-74422619D01*
X108961904Y-74453571D01*
X108900000Y-74484523D01*
X108652380Y-74484523D01*
X144801190Y-89732142D02*
X144770238Y-89763095D01*
X144677380Y-89794047D01*
X144615476Y-89794047D01*
X144522619Y-89763095D01*
X144460714Y-89701190D01*
X144429761Y-89639285D01*
X144398809Y-89515476D01*
X144398809Y-89422619D01*
X144429761Y-89298809D01*
X144460714Y-89236904D01*
X144522619Y-89175000D01*
X144615476Y-89144047D01*
X144677380Y-89144047D01*
X144770238Y-89175000D01*
X144801190Y-89205952D01*
X145203571Y-89144047D02*
X145327380Y-89144047D01*
X145389285Y-89175000D01*
X145451190Y-89236904D01*
X145482142Y-89360714D01*
X145482142Y-89577380D01*
X145451190Y-89701190D01*
X145389285Y-89763095D01*
X145327380Y-89794047D01*
X145203571Y-89794047D01*
X145141666Y-89763095D01*
X145079761Y-89701190D01*
X145048809Y-89577380D01*
X145048809Y-89360714D01*
X145079761Y-89236904D01*
X145141666Y-89175000D01*
X145203571Y-89144047D01*
X145729761Y-89205952D02*
X145760714Y-89175000D01*
X145822619Y-89144047D01*
X145977380Y-89144047D01*
X146039285Y-89175000D01*
X146070238Y-89205952D01*
X146101190Y-89267857D01*
X146101190Y-89329761D01*
X146070238Y-89422619D01*
X145698809Y-89794047D01*
X146101190Y-89794047D01*
X140132142Y-94544047D02*
X140132142Y-93894047D01*
X140379761Y-93894047D01*
X140441666Y-93925000D01*
X140472619Y-93955952D01*
X140503571Y-94017857D01*
X140503571Y-94110714D01*
X140472619Y-94172619D01*
X140441666Y-94203571D01*
X140379761Y-94234523D01*
X140132142Y-94234523D01*
X140720238Y-93894047D02*
X140875000Y-94544047D01*
X140998809Y-94079761D01*
X141122619Y-94544047D01*
X141277380Y-93894047D01*
X141896428Y-94544047D02*
X141679761Y-94234523D01*
X141525000Y-94544047D02*
X141525000Y-93894047D01*
X141772619Y-93894047D01*
X141834523Y-93925000D01*
X141865476Y-93955952D01*
X141896428Y-94017857D01*
X141896428Y-94110714D01*
X141865476Y-94172619D01*
X141834523Y-94203571D01*
X141772619Y-94234523D01*
X141525000Y-94234523D01*
X142020238Y-94605952D02*
X142515476Y-94605952D01*
X142639285Y-94513095D02*
X142732142Y-94544047D01*
X142886904Y-94544047D01*
X142948809Y-94513095D01*
X142979761Y-94482142D01*
X143010714Y-94420238D01*
X143010714Y-94358333D01*
X142979761Y-94296428D01*
X142948809Y-94265476D01*
X142886904Y-94234523D01*
X142763095Y-94203571D01*
X142701190Y-94172619D01*
X142670238Y-94141666D01*
X142639285Y-94079761D01*
X142639285Y-94017857D01*
X142670238Y-93955952D01*
X142701190Y-93925000D01*
X142763095Y-93894047D01*
X142917857Y-93894047D01*
X143010714Y-93925000D01*
X143289285Y-94203571D02*
X143505952Y-94203571D01*
X143598809Y-94544047D02*
X143289285Y-94544047D01*
X143289285Y-93894047D01*
X143598809Y-93894047D01*
X143877380Y-94544047D02*
X143877380Y-93894047D01*
X144248809Y-94544047D01*
X144248809Y-93894047D01*
X144527380Y-94513095D02*
X144620238Y-94544047D01*
X144775000Y-94544047D01*
X144836904Y-94513095D01*
X144867857Y-94482142D01*
X144898809Y-94420238D01*
X144898809Y-94358333D01*
X144867857Y-94296428D01*
X144836904Y-94265476D01*
X144775000Y-94234523D01*
X144651190Y-94203571D01*
X144589285Y-94172619D01*
X144558333Y-94141666D01*
X144527380Y-94079761D01*
X144527380Y-94017857D01*
X144558333Y-93955952D01*
X144589285Y-93925000D01*
X144651190Y-93894047D01*
X144805952Y-93894047D01*
X144898809Y-93925000D01*
X134003571Y-82544047D02*
X133694047Y-82544047D01*
X133694047Y-81894047D01*
X134127380Y-81894047D02*
X134498809Y-81894047D01*
X134313095Y-82544047D02*
X134313095Y-81894047D01*
X135025000Y-81894047D02*
X134715476Y-81894047D01*
X134684523Y-82203571D01*
X134715476Y-82172619D01*
X134777380Y-82141666D01*
X134932142Y-82141666D01*
X134994047Y-82172619D01*
X135025000Y-82203571D01*
X135055952Y-82265476D01*
X135055952Y-82420238D01*
X135025000Y-82482142D01*
X134994047Y-82513095D01*
X134932142Y-82544047D01*
X134777380Y-82544047D01*
X134715476Y-82513095D01*
X134684523Y-82482142D01*
X135613095Y-82110714D02*
X135613095Y-82544047D01*
X135458333Y-81863095D02*
X135303571Y-82327380D01*
X135705952Y-82327380D01*
X136077380Y-81894047D02*
X136139285Y-81894047D01*
X136201190Y-81925000D01*
X136232142Y-81955952D01*
X136263095Y-82017857D01*
X136294047Y-82141666D01*
X136294047Y-82296428D01*
X136263095Y-82420238D01*
X136232142Y-82482142D01*
X136201190Y-82513095D01*
X136139285Y-82544047D01*
X136077380Y-82544047D01*
X136015476Y-82513095D01*
X135984523Y-82482142D01*
X135953571Y-82420238D01*
X135922619Y-82296428D01*
X135922619Y-82141666D01*
X135953571Y-82017857D01*
X135984523Y-81955952D01*
X136015476Y-81925000D01*
X136077380Y-81894047D01*
X136696428Y-81894047D02*
X136758333Y-81894047D01*
X136820238Y-81925000D01*
X136851190Y-81955952D01*
X136882142Y-82017857D01*
X136913095Y-82141666D01*
X136913095Y-82296428D01*
X136882142Y-82420238D01*
X136851190Y-82482142D01*
X136820238Y-82513095D01*
X136758333Y-82544047D01*
X136696428Y-82544047D01*
X136634523Y-82513095D01*
X136603571Y-82482142D01*
X136572619Y-82420238D01*
X136541666Y-82296428D01*
X136541666Y-82141666D01*
X136572619Y-82017857D01*
X136603571Y-81955952D01*
X136634523Y-81925000D01*
X136696428Y-81894047D01*
X137191666Y-82296428D02*
X137686904Y-82296428D01*
X137965476Y-81955952D02*
X137996428Y-81925000D01*
X138058333Y-81894047D01*
X138213095Y-81894047D01*
X138275000Y-81925000D01*
X138305952Y-81955952D01*
X138336904Y-82017857D01*
X138336904Y-82079761D01*
X138305952Y-82172619D01*
X137934523Y-82544047D01*
X138336904Y-82544047D01*
X129613095Y-74794047D02*
X129241666Y-74794047D01*
X129427380Y-74794047D02*
X129427380Y-74144047D01*
X129365476Y-74236904D01*
X129303571Y-74298809D01*
X129241666Y-74329761D01*
X130170238Y-74360714D02*
X130170238Y-74794047D01*
X129891666Y-74360714D02*
X129891666Y-74701190D01*
X129922619Y-74763095D01*
X129984523Y-74794047D01*
X130077380Y-74794047D01*
X130139285Y-74763095D01*
X130170238Y-74732142D01*
X130696428Y-74453571D02*
X130479761Y-74453571D01*
X130479761Y-74794047D02*
X130479761Y-74144047D01*
X130789285Y-74144047D01*
X128932142Y-82144047D02*
X128994047Y-82144047D01*
X129055952Y-82175000D01*
X129086904Y-82205952D01*
X129117857Y-82267857D01*
X129148809Y-82391666D01*
X129148809Y-82546428D01*
X129117857Y-82670238D01*
X129086904Y-82732142D01*
X129055952Y-82763095D01*
X128994047Y-82794047D01*
X128932142Y-82794047D01*
X128870238Y-82763095D01*
X128839285Y-82732142D01*
X128808333Y-82670238D01*
X128777380Y-82546428D01*
X128777380Y-82391666D01*
X128808333Y-82267857D01*
X128839285Y-82205952D01*
X128870238Y-82175000D01*
X128932142Y-82144047D01*
X129427380Y-82732142D02*
X129458333Y-82763095D01*
X129427380Y-82794047D01*
X129396428Y-82763095D01*
X129427380Y-82732142D01*
X129427380Y-82794047D01*
X130077380Y-82794047D02*
X129705952Y-82794047D01*
X129891666Y-82794047D02*
X129891666Y-82144047D01*
X129829761Y-82236904D01*
X129767857Y-82298809D01*
X129705952Y-82329761D01*
X130634523Y-82360714D02*
X130634523Y-82794047D01*
X130355952Y-82360714D02*
X130355952Y-82701190D01*
X130386904Y-82763095D01*
X130448809Y-82794047D01*
X130541666Y-82794047D01*
X130603571Y-82763095D01*
X130634523Y-82732142D01*
X131160714Y-82453571D02*
X130944047Y-82453571D01*
X130944047Y-82794047D02*
X130944047Y-82144047D01*
X131253571Y-82144047D01*
X149303571Y-102544047D02*
X148932142Y-102544047D01*
X149117857Y-102544047D02*
X149117857Y-101894047D01*
X149055952Y-101986904D01*
X148994047Y-102048809D01*
X148932142Y-102079761D01*
X149705952Y-101894047D02*
X149767857Y-101894047D01*
X149829761Y-101925000D01*
X149860714Y-101955952D01*
X149891666Y-102017857D01*
X149922619Y-102141666D01*
X149922619Y-102296428D01*
X149891666Y-102420238D01*
X149860714Y-102482142D01*
X149829761Y-102513095D01*
X149767857Y-102544047D01*
X149705952Y-102544047D01*
X149644047Y-102513095D01*
X149613095Y-102482142D01*
X149582142Y-102420238D01*
X149551190Y-102296428D01*
X149551190Y-102141666D01*
X149582142Y-102017857D01*
X149613095Y-101955952D01*
X149644047Y-101925000D01*
X149705952Y-101894047D01*
X150479761Y-102110714D02*
X150479761Y-102544047D01*
X150201190Y-102110714D02*
X150201190Y-102451190D01*
X150232142Y-102513095D01*
X150294047Y-102544047D01*
X150386904Y-102544047D01*
X150448809Y-102513095D01*
X150479761Y-102482142D01*
X151005952Y-102203571D02*
X150789285Y-102203571D01*
X150789285Y-102544047D02*
X150789285Y-101894047D01*
X151098809Y-101894047D01*
X144323809Y-73894047D02*
X144695238Y-73894047D01*
X144509523Y-74544047D02*
X144509523Y-73894047D01*
X144911904Y-74203571D02*
X145128571Y-74203571D01*
X145221428Y-74544047D02*
X144911904Y-74544047D01*
X144911904Y-73894047D01*
X145221428Y-73894047D01*
X145500000Y-74544047D02*
X145500000Y-73894047D01*
X145716666Y-74358333D01*
X145933333Y-73894047D01*
X145933333Y-74544047D01*
X146242857Y-74544047D02*
X146242857Y-73894047D01*
X146490476Y-73894047D01*
X146552380Y-73925000D01*
X146583333Y-73955952D01*
X146614285Y-74017857D01*
X146614285Y-74110714D01*
X146583333Y-74172619D01*
X146552380Y-74203571D01*
X146490476Y-74234523D01*
X146242857Y-74234523D01*
X160794047Y-82529761D02*
X160794047Y-82839285D01*
X160144047Y-82839285D01*
X160794047Y-82313095D02*
X160144047Y-82313095D01*
X160608333Y-82096428D01*
X160144047Y-81879761D01*
X160794047Y-81879761D01*
X160794047Y-81229761D02*
X160794047Y-81601190D01*
X160794047Y-81415476D02*
X160144047Y-81415476D01*
X160236904Y-81477380D01*
X160298809Y-81539285D01*
X160329761Y-81601190D01*
X160144047Y-80827380D02*
X160144047Y-80765476D01*
X160175000Y-80703571D01*
X160205952Y-80672619D01*
X160267857Y-80641666D01*
X160391666Y-80610714D01*
X160546428Y-80610714D01*
X160670238Y-80641666D01*
X160732142Y-80672619D01*
X160763095Y-80703571D01*
X160794047Y-80765476D01*
X160794047Y-80827380D01*
X160763095Y-80889285D01*
X160732142Y-80920238D01*
X160670238Y-80951190D01*
X160546428Y-80982142D01*
X160391666Y-80982142D01*
X160267857Y-80951190D01*
X160205952Y-80920238D01*
X160175000Y-80889285D01*
X160144047Y-80827380D01*
X160422619Y-80239285D02*
X160391666Y-80301190D01*
X160360714Y-80332142D01*
X160298809Y-80363095D01*
X160267857Y-80363095D01*
X160205952Y-80332142D01*
X160175000Y-80301190D01*
X160144047Y-80239285D01*
X160144047Y-80115476D01*
X160175000Y-80053571D01*
X160205952Y-80022619D01*
X160267857Y-79991666D01*
X160298809Y-79991666D01*
X160360714Y-80022619D01*
X160391666Y-80053571D01*
X160422619Y-80115476D01*
X160422619Y-80239285D01*
X160453571Y-80301190D01*
X160484523Y-80332142D01*
X160546428Y-80363095D01*
X160670238Y-80363095D01*
X160732142Y-80332142D01*
X160763095Y-80301190D01*
X160794047Y-80239285D01*
X160794047Y-80115476D01*
X160763095Y-80053571D01*
X160732142Y-80022619D01*
X160670238Y-79991666D01*
X160546428Y-79991666D01*
X160484523Y-80022619D01*
X160453571Y-80053571D01*
X160422619Y-80115476D01*
X160144047Y-79403571D02*
X160144047Y-79713095D01*
X160453571Y-79744047D01*
X160422619Y-79713095D01*
X160391666Y-79651190D01*
X160391666Y-79496428D01*
X160422619Y-79434523D01*
X160453571Y-79403571D01*
X160515476Y-79372619D01*
X160670238Y-79372619D01*
X160732142Y-79403571D01*
X160763095Y-79434523D01*
X160794047Y-79496428D01*
X160794047Y-79651190D01*
X160763095Y-79713095D01*
X160732142Y-79744047D01*
X160794047Y-79094047D02*
X160144047Y-79094047D01*
X160763095Y-78815476D02*
X160794047Y-78722619D01*
X160794047Y-78567857D01*
X160763095Y-78505952D01*
X160732142Y-78475000D01*
X160670238Y-78444047D01*
X160608333Y-78444047D01*
X160546428Y-78475000D01*
X160515476Y-78505952D01*
X160484523Y-78567857D01*
X160453571Y-78691666D01*
X160422619Y-78753571D01*
X160391666Y-78784523D01*
X160329761Y-78815476D01*
X160267857Y-78815476D01*
X160205952Y-78784523D01*
X160175000Y-78753571D01*
X160144047Y-78691666D01*
X160144047Y-78536904D01*
X160175000Y-78444047D01*
X160144047Y-78227380D02*
X160794047Y-77794047D01*
X160144047Y-77794047D02*
X160794047Y-78227380D01*
X160546428Y-77546428D02*
X160546428Y-77051190D01*
X160144047Y-76432142D02*
X160144047Y-76741666D01*
X160453571Y-76772619D01*
X160422619Y-76741666D01*
X160391666Y-76679761D01*
X160391666Y-76525000D01*
X160422619Y-76463095D01*
X160453571Y-76432142D01*
X160515476Y-76401190D01*
X160670238Y-76401190D01*
X160732142Y-76432142D01*
X160763095Y-76463095D01*
X160794047Y-76525000D01*
X160794047Y-76679761D01*
X160763095Y-76741666D01*
X160732142Y-76772619D01*
X160732142Y-76122619D02*
X160763095Y-76091666D01*
X160794047Y-76122619D01*
X160763095Y-76153571D01*
X160732142Y-76122619D01*
X160794047Y-76122619D01*
X160144047Y-75689285D02*
X160144047Y-75627380D01*
X160175000Y-75565476D01*
X160205952Y-75534523D01*
X160267857Y-75503571D01*
X160391666Y-75472619D01*
X160546428Y-75472619D01*
X160670238Y-75503571D01*
X160732142Y-75534523D01*
X160763095Y-75565476D01*
X160794047Y-75627380D01*
X160794047Y-75689285D01*
X160763095Y-75751190D01*
X160732142Y-75782142D01*
X160670238Y-75813095D01*
X160546428Y-75844047D01*
X160391666Y-75844047D01*
X160267857Y-75813095D01*
X160205952Y-75782142D01*
X160175000Y-75751190D01*
X160144047Y-75689285D01*
X160113095Y-74729761D02*
X160948809Y-75286904D01*
X160794047Y-74513095D02*
X160144047Y-74513095D01*
X160794047Y-74141666D01*
X160144047Y-74141666D01*
X160144047Y-73708333D02*
X160144047Y-73584523D01*
X160175000Y-73522619D01*
X160236904Y-73460714D01*
X160360714Y-73429761D01*
X160577380Y-73429761D01*
X160701190Y-73460714D01*
X160763095Y-73522619D01*
X160794047Y-73584523D01*
X160794047Y-73708333D01*
X160763095Y-73770238D01*
X160701190Y-73832142D01*
X160577380Y-73863095D01*
X160360714Y-73863095D01*
X160236904Y-73832142D01*
X160175000Y-73770238D01*
X160144047Y-73708333D01*
X160794047Y-73151190D02*
X160144047Y-73151190D01*
X160144047Y-72903571D01*
X160175000Y-72841666D01*
X160205952Y-72810714D01*
X160267857Y-72779761D01*
X160360714Y-72779761D01*
X160422619Y-72810714D01*
X160453571Y-72841666D01*
X160484523Y-72903571D01*
X160484523Y-73151190D01*
X160453571Y-72284523D02*
X160484523Y-72191666D01*
X160515476Y-72160714D01*
X160577380Y-72129761D01*
X160670238Y-72129761D01*
X160732142Y-72160714D01*
X160763095Y-72191666D01*
X160794047Y-72253571D01*
X160794047Y-72501190D01*
X160144047Y-72501190D01*
X160144047Y-72284523D01*
X160175000Y-72222619D01*
X160205952Y-72191666D01*
X160267857Y-72160714D01*
X160329761Y-72160714D01*
X160391666Y-72191666D01*
X160422619Y-72222619D01*
X160453571Y-72284523D01*
X160453571Y-72501190D01*
X124350000Y-78644047D02*
X124473809Y-78644047D01*
X124535714Y-78675000D01*
X124597619Y-78736904D01*
X124628571Y-78860714D01*
X124628571Y-79077380D01*
X124597619Y-79201190D01*
X124535714Y-79263095D01*
X124473809Y-79294047D01*
X124350000Y-79294047D01*
X124288095Y-79263095D01*
X124226190Y-79201190D01*
X124195238Y-79077380D01*
X124195238Y-78860714D01*
X124226190Y-78736904D01*
X124288095Y-78675000D01*
X124350000Y-78644047D01*
X124907142Y-78644047D02*
X124907142Y-79170238D01*
X124938095Y-79232142D01*
X124969047Y-79263095D01*
X125030952Y-79294047D01*
X125154761Y-79294047D01*
X125216666Y-79263095D01*
X125247619Y-79232142D01*
X125278571Y-79170238D01*
X125278571Y-78644047D01*
X125495238Y-78644047D02*
X125866666Y-78644047D01*
X125680952Y-79294047D02*
X125680952Y-78644047D01*
X144602380Y-79544047D02*
X144602380Y-78894047D01*
X144602380Y-79203571D02*
X144973809Y-79203571D01*
X144973809Y-79544047D02*
X144973809Y-78894047D01*
X145283333Y-78894047D02*
X145283333Y-79420238D01*
X145314285Y-79482142D01*
X145345238Y-79513095D01*
X145407142Y-79544047D01*
X145530952Y-79544047D01*
X145592857Y-79513095D01*
X145623809Y-79482142D01*
X145654761Y-79420238D01*
X145654761Y-78894047D01*
X145964285Y-79544047D02*
X145964285Y-78894047D01*
X146180952Y-79358333D01*
X146397619Y-78894047D01*
X146397619Y-79544047D01*
X123080952Y-93294047D02*
X122864285Y-92984523D01*
X122709523Y-93294047D02*
X122709523Y-92644047D01*
X122957142Y-92644047D01*
X123019047Y-92675000D01*
X123050000Y-92705952D01*
X123080952Y-92767857D01*
X123080952Y-92860714D01*
X123050000Y-92922619D01*
X123019047Y-92953571D01*
X122957142Y-92984523D01*
X122709523Y-92984523D01*
X123359523Y-93046428D02*
X123854761Y-93046428D01*
X124102380Y-92644047D02*
X124535714Y-92644047D01*
X124257142Y-93294047D01*
X124721428Y-92644047D02*
X125123809Y-92644047D01*
X124907142Y-92891666D01*
X125000000Y-92891666D01*
X125061904Y-92922619D01*
X125092857Y-92953571D01*
X125123809Y-93015476D01*
X125123809Y-93170238D01*
X125092857Y-93232142D01*
X125061904Y-93263095D01*
X125000000Y-93294047D01*
X124814285Y-93294047D01*
X124752380Y-93263095D01*
X124721428Y-93232142D01*
X125433333Y-93294047D02*
X125557142Y-93294047D01*
X125619047Y-93263095D01*
X125650000Y-93232142D01*
X125711904Y-93139285D01*
X125742857Y-93015476D01*
X125742857Y-92767857D01*
X125711904Y-92705952D01*
X125680952Y-92675000D01*
X125619047Y-92644047D01*
X125495238Y-92644047D01*
X125433333Y-92675000D01*
X125402380Y-92705952D01*
X125371428Y-92767857D01*
X125371428Y-92922619D01*
X125402380Y-92984523D01*
X125433333Y-93015476D01*
X125495238Y-93046428D01*
X125619047Y-93046428D01*
X125680952Y-93015476D01*
X125711904Y-92984523D01*
X125742857Y-92922619D01*
X126021428Y-93232142D02*
X126052380Y-93263095D01*
X126021428Y-93294047D01*
X125990476Y-93263095D01*
X126021428Y-93232142D01*
X126021428Y-93294047D01*
X126454761Y-92644047D02*
X126516666Y-92644047D01*
X126578571Y-92675000D01*
X126609523Y-92705952D01*
X126640476Y-92767857D01*
X126671428Y-92891666D01*
X126671428Y-93046428D01*
X126640476Y-93170238D01*
X126609523Y-93232142D01*
X126578571Y-93263095D01*
X126516666Y-93294047D01*
X126454761Y-93294047D01*
X126392857Y-93263095D01*
X126361904Y-93232142D01*
X126330952Y-93170238D01*
X126300000Y-93046428D01*
X126300000Y-92891666D01*
X126330952Y-92767857D01*
X126361904Y-92705952D01*
X126392857Y-92675000D01*
X126454761Y-92644047D01*
X126950000Y-93294047D02*
X126950000Y-92644047D01*
X127197619Y-92644047D01*
X127259523Y-92675000D01*
X127290476Y-92705952D01*
X127321428Y-92767857D01*
X127321428Y-92860714D01*
X127290476Y-92922619D01*
X127259523Y-92953571D01*
X127197619Y-92984523D01*
X126950000Y-92984523D01*
X144754761Y-86675000D02*
X144692857Y-86644047D01*
X144600000Y-86644047D01*
X144507142Y-86675000D01*
X144445238Y-86736904D01*
X144414285Y-86798809D01*
X144383333Y-86922619D01*
X144383333Y-87015476D01*
X144414285Y-87139285D01*
X144445238Y-87201190D01*
X144507142Y-87263095D01*
X144600000Y-87294047D01*
X144661904Y-87294047D01*
X144754761Y-87263095D01*
X144785714Y-87232142D01*
X144785714Y-87015476D01*
X144661904Y-87015476D01*
X145064285Y-87294047D02*
X145064285Y-86644047D01*
X145435714Y-87294047D01*
X145435714Y-86644047D01*
X145745238Y-87294047D02*
X145745238Y-86644047D01*
X145900000Y-86644047D01*
X145992857Y-86675000D01*
X146054761Y-86736904D01*
X146085714Y-86798809D01*
X146116666Y-86922619D01*
X146116666Y-87015476D01*
X146085714Y-87139285D01*
X146054761Y-87201190D01*
X145992857Y-87263095D01*
X145900000Y-87294047D01*
X145745238Y-87294047D01*
X144754761Y-91925000D02*
X144692857Y-91894047D01*
X144600000Y-91894047D01*
X144507142Y-91925000D01*
X144445238Y-91986904D01*
X144414285Y-92048809D01*
X144383333Y-92172619D01*
X144383333Y-92265476D01*
X144414285Y-92389285D01*
X144445238Y-92451190D01*
X144507142Y-92513095D01*
X144600000Y-92544047D01*
X144661904Y-92544047D01*
X144754761Y-92513095D01*
X144785714Y-92482142D01*
X144785714Y-92265476D01*
X144661904Y-92265476D01*
X145064285Y-92544047D02*
X145064285Y-91894047D01*
X145435714Y-92544047D01*
X145435714Y-91894047D01*
X145745238Y-92544047D02*
X145745238Y-91894047D01*
X145900000Y-91894047D01*
X145992857Y-91925000D01*
X146054761Y-91986904D01*
X146085714Y-92048809D01*
X146116666Y-92172619D01*
X146116666Y-92265476D01*
X146085714Y-92389285D01*
X146054761Y-92451190D01*
X145992857Y-92513095D01*
X145900000Y-92544047D01*
X145745238Y-92544047D01*
X157553571Y-94794047D02*
X157182142Y-94794047D01*
X157367857Y-94794047D02*
X157367857Y-94144047D01*
X157305952Y-94236904D01*
X157244047Y-94298809D01*
X157182142Y-94329761D01*
X157955952Y-94144047D02*
X158017857Y-94144047D01*
X158079761Y-94175000D01*
X158110714Y-94205952D01*
X158141666Y-94267857D01*
X158172619Y-94391666D01*
X158172619Y-94546428D01*
X158141666Y-94670238D01*
X158110714Y-94732142D01*
X158079761Y-94763095D01*
X158017857Y-94794047D01*
X157955952Y-94794047D01*
X157894047Y-94763095D01*
X157863095Y-94732142D01*
X157832142Y-94670238D01*
X157801190Y-94546428D01*
X157801190Y-94391666D01*
X157832142Y-94267857D01*
X157863095Y-94205952D01*
X157894047Y-94175000D01*
X157955952Y-94144047D01*
X158729761Y-94360714D02*
X158729761Y-94794047D01*
X158451190Y-94360714D02*
X158451190Y-94701190D01*
X158482142Y-94763095D01*
X158544047Y-94794047D01*
X158636904Y-94794047D01*
X158698809Y-94763095D01*
X158729761Y-94732142D01*
X159255952Y-94453571D02*
X159039285Y-94453571D01*
X159039285Y-94794047D02*
X159039285Y-94144047D01*
X159348809Y-94144047D01*
X149303571Y-94794047D02*
X148932142Y-94794047D01*
X149117857Y-94794047D02*
X149117857Y-94144047D01*
X149055952Y-94236904D01*
X148994047Y-94298809D01*
X148932142Y-94329761D01*
X149891666Y-94144047D02*
X149582142Y-94144047D01*
X149551190Y-94453571D01*
X149582142Y-94422619D01*
X149644047Y-94391666D01*
X149798809Y-94391666D01*
X149860714Y-94422619D01*
X149891666Y-94453571D01*
X149922619Y-94515476D01*
X149922619Y-94670238D01*
X149891666Y-94732142D01*
X149860714Y-94763095D01*
X149798809Y-94794047D01*
X149644047Y-94794047D01*
X149582142Y-94763095D01*
X149551190Y-94732142D01*
X150479761Y-94360714D02*
X150479761Y-94794047D01*
X150201190Y-94360714D02*
X150201190Y-94701190D01*
X150232142Y-94763095D01*
X150294047Y-94794047D01*
X150386904Y-94794047D01*
X150448809Y-94763095D01*
X150479761Y-94732142D01*
X151005952Y-94453571D02*
X150789285Y-94453571D01*
X150789285Y-94794047D02*
X150789285Y-94144047D01*
X151098809Y-94144047D01*
X107383333Y-77544047D02*
X107383333Y-76894047D01*
X107630952Y-76894047D01*
X107692857Y-76925000D01*
X107723809Y-76955952D01*
X107754761Y-77017857D01*
X107754761Y-77110714D01*
X107723809Y-77172619D01*
X107692857Y-77203571D01*
X107630952Y-77234523D01*
X107383333Y-77234523D01*
X107971428Y-76894047D02*
X108126190Y-77544047D01*
X108250000Y-77079761D01*
X108373809Y-77544047D01*
X108528571Y-76894047D01*
X109147619Y-77544047D02*
X108930952Y-77234523D01*
X108776190Y-77544047D02*
X108776190Y-76894047D01*
X109023809Y-76894047D01*
X109085714Y-76925000D01*
X109116666Y-76955952D01*
X109147619Y-77017857D01*
X109147619Y-77110714D01*
X109116666Y-77172619D01*
X109085714Y-77203571D01*
X109023809Y-77234523D01*
X108776190Y-77234523D01*
X122580952Y-105544047D02*
X122364285Y-105234523D01*
X122209523Y-105544047D02*
X122209523Y-104894047D01*
X122457142Y-104894047D01*
X122519047Y-104925000D01*
X122550000Y-104955952D01*
X122580952Y-105017857D01*
X122580952Y-105110714D01*
X122550000Y-105172619D01*
X122519047Y-105203571D01*
X122457142Y-105234523D01*
X122209523Y-105234523D01*
X122859523Y-105296428D02*
X123354761Y-105296428D01*
X123602380Y-104894047D02*
X124035714Y-104894047D01*
X123757142Y-105544047D01*
X124221428Y-104894047D02*
X124623809Y-104894047D01*
X124407142Y-105141666D01*
X124500000Y-105141666D01*
X124561904Y-105172619D01*
X124592857Y-105203571D01*
X124623809Y-105265476D01*
X124623809Y-105420238D01*
X124592857Y-105482142D01*
X124561904Y-105513095D01*
X124500000Y-105544047D01*
X124314285Y-105544047D01*
X124252380Y-105513095D01*
X124221428Y-105482142D01*
X124933333Y-105544047D02*
X125057142Y-105544047D01*
X125119047Y-105513095D01*
X125150000Y-105482142D01*
X125211904Y-105389285D01*
X125242857Y-105265476D01*
X125242857Y-105017857D01*
X125211904Y-104955952D01*
X125180952Y-104925000D01*
X125119047Y-104894047D01*
X124995238Y-104894047D01*
X124933333Y-104925000D01*
X124902380Y-104955952D01*
X124871428Y-105017857D01*
X124871428Y-105172619D01*
X124902380Y-105234523D01*
X124933333Y-105265476D01*
X124995238Y-105296428D01*
X125119047Y-105296428D01*
X125180952Y-105265476D01*
X125211904Y-105234523D01*
X125242857Y-105172619D01*
X125521428Y-105482142D02*
X125552380Y-105513095D01*
X125521428Y-105544047D01*
X125490476Y-105513095D01*
X125521428Y-105482142D01*
X125521428Y-105544047D01*
X125954761Y-104894047D02*
X126016666Y-104894047D01*
X126078571Y-104925000D01*
X126109523Y-104955952D01*
X126140476Y-105017857D01*
X126171428Y-105141666D01*
X126171428Y-105296428D01*
X126140476Y-105420238D01*
X126109523Y-105482142D01*
X126078571Y-105513095D01*
X126016666Y-105544047D01*
X125954761Y-105544047D01*
X125892857Y-105513095D01*
X125861904Y-105482142D01*
X125830952Y-105420238D01*
X125800000Y-105296428D01*
X125800000Y-105141666D01*
X125830952Y-105017857D01*
X125861904Y-104955952D01*
X125892857Y-104925000D01*
X125954761Y-104894047D01*
X126450000Y-105544047D02*
X126450000Y-104894047D01*
X126697619Y-104894047D01*
X126759523Y-104925000D01*
X126790476Y-104955952D01*
X126821428Y-105017857D01*
X126821428Y-105110714D01*
X126790476Y-105172619D01*
X126759523Y-105203571D01*
X126697619Y-105234523D01*
X126450000Y-105234523D01*
X120573809Y-73894047D02*
X120945238Y-73894047D01*
X120759523Y-74544047D02*
X120759523Y-73894047D01*
X121161904Y-74203571D02*
X121378571Y-74203571D01*
X121471428Y-74544047D02*
X121161904Y-74544047D01*
X121161904Y-73894047D01*
X121471428Y-73894047D01*
X121750000Y-74544047D02*
X121750000Y-73894047D01*
X121966666Y-74358333D01*
X122183333Y-73894047D01*
X122183333Y-74544047D01*
X122492857Y-74544047D02*
X122492857Y-73894047D01*
X122740476Y-73894047D01*
X122802380Y-73925000D01*
X122833333Y-73955952D01*
X122864285Y-74017857D01*
X122864285Y-74110714D01*
X122833333Y-74172619D01*
X122802380Y-74203571D01*
X122740476Y-74234523D01*
X122492857Y-74234523D01*
X144878571Y-84144047D02*
X145002380Y-84144047D01*
X145064285Y-84175000D01*
X145126190Y-84236904D01*
X145157142Y-84360714D01*
X145157142Y-84577380D01*
X145126190Y-84701190D01*
X145064285Y-84763095D01*
X145002380Y-84794047D01*
X144878571Y-84794047D01*
X144816666Y-84763095D01*
X144754761Y-84701190D01*
X144723809Y-84577380D01*
X144723809Y-84360714D01*
X144754761Y-84236904D01*
X144816666Y-84175000D01*
X144878571Y-84144047D01*
X145404761Y-84205952D02*
X145435714Y-84175000D01*
X145497619Y-84144047D01*
X145652380Y-84144047D01*
X145714285Y-84175000D01*
X145745238Y-84205952D01*
X145776190Y-84267857D01*
X145776190Y-84329761D01*
X145745238Y-84422619D01*
X145373809Y-84794047D01*
X145776190Y-84794047D01*
X117409523Y-79544047D02*
X117409523Y-78894047D01*
X117719047Y-79544047D02*
X117719047Y-78894047D01*
X118090476Y-79544047D01*
X118090476Y-78894047D01*
X144754761Y-76675000D02*
X144692857Y-76644047D01*
X144600000Y-76644047D01*
X144507142Y-76675000D01*
X144445238Y-76736904D01*
X144414285Y-76798809D01*
X144383333Y-76922619D01*
X144383333Y-77015476D01*
X144414285Y-77139285D01*
X144445238Y-77201190D01*
X144507142Y-77263095D01*
X144600000Y-77294047D01*
X144661904Y-77294047D01*
X144754761Y-77263095D01*
X144785714Y-77232142D01*
X144785714Y-77015476D01*
X144661904Y-77015476D01*
X145064285Y-77294047D02*
X145064285Y-76644047D01*
X145435714Y-77294047D01*
X145435714Y-76644047D01*
X145745238Y-77294047D02*
X145745238Y-76644047D01*
X145900000Y-76644047D01*
X145992857Y-76675000D01*
X146054761Y-76736904D01*
X146085714Y-76798809D01*
X146116666Y-76922619D01*
X146116666Y-77015476D01*
X146085714Y-77139285D01*
X146054761Y-77201190D01*
X145992857Y-77263095D01*
X145900000Y-77294047D01*
X145745238Y-77294047D01*
X134003571Y-76544047D02*
X133694047Y-76544047D01*
X133694047Y-75894047D01*
X134127380Y-75894047D02*
X134498809Y-75894047D01*
X134313095Y-76544047D02*
X134313095Y-75894047D01*
X135025000Y-75894047D02*
X134715476Y-75894047D01*
X134684523Y-76203571D01*
X134715476Y-76172619D01*
X134777380Y-76141666D01*
X134932142Y-76141666D01*
X134994047Y-76172619D01*
X135025000Y-76203571D01*
X135055952Y-76265476D01*
X135055952Y-76420238D01*
X135025000Y-76482142D01*
X134994047Y-76513095D01*
X134932142Y-76544047D01*
X134777380Y-76544047D01*
X134715476Y-76513095D01*
X134684523Y-76482142D01*
X135613095Y-76110714D02*
X135613095Y-76544047D01*
X135458333Y-75863095D02*
X135303571Y-76327380D01*
X135705952Y-76327380D01*
X136077380Y-75894047D02*
X136139285Y-75894047D01*
X136201190Y-75925000D01*
X136232142Y-75955952D01*
X136263095Y-76017857D01*
X136294047Y-76141666D01*
X136294047Y-76296428D01*
X136263095Y-76420238D01*
X136232142Y-76482142D01*
X136201190Y-76513095D01*
X136139285Y-76544047D01*
X136077380Y-76544047D01*
X136015476Y-76513095D01*
X135984523Y-76482142D01*
X135953571Y-76420238D01*
X135922619Y-76296428D01*
X135922619Y-76141666D01*
X135953571Y-76017857D01*
X135984523Y-75955952D01*
X136015476Y-75925000D01*
X136077380Y-75894047D01*
X136696428Y-75894047D02*
X136758333Y-75894047D01*
X136820238Y-75925000D01*
X136851190Y-75955952D01*
X136882142Y-76017857D01*
X136913095Y-76141666D01*
X136913095Y-76296428D01*
X136882142Y-76420238D01*
X136851190Y-76482142D01*
X136820238Y-76513095D01*
X136758333Y-76544047D01*
X136696428Y-76544047D01*
X136634523Y-76513095D01*
X136603571Y-76482142D01*
X136572619Y-76420238D01*
X136541666Y-76296428D01*
X136541666Y-76141666D01*
X136572619Y-76017857D01*
X136603571Y-75955952D01*
X136634523Y-75925000D01*
X136696428Y-75894047D01*
X137191666Y-76296428D02*
X137686904Y-76296428D01*
X138336904Y-76544047D02*
X137965476Y-76544047D01*
X138151190Y-76544047D02*
X138151190Y-75894047D01*
X138089285Y-75986904D01*
X138027380Y-76048809D01*
X137965476Y-76079761D01*
X107754761Y-79425000D02*
X107692857Y-79394047D01*
X107600000Y-79394047D01*
X107507142Y-79425000D01*
X107445238Y-79486904D01*
X107414285Y-79548809D01*
X107383333Y-79672619D01*
X107383333Y-79765476D01*
X107414285Y-79889285D01*
X107445238Y-79951190D01*
X107507142Y-80013095D01*
X107600000Y-80044047D01*
X107661904Y-80044047D01*
X107754761Y-80013095D01*
X107785714Y-79982142D01*
X107785714Y-79765476D01*
X107661904Y-79765476D01*
X108064285Y-80044047D02*
X108064285Y-79394047D01*
X108435714Y-80044047D01*
X108435714Y-79394047D01*
X108745238Y-80044047D02*
X108745238Y-79394047D01*
X108900000Y-79394047D01*
X108992857Y-79425000D01*
X109054761Y-79486904D01*
X109085714Y-79548809D01*
X109116666Y-79672619D01*
X109116666Y-79765476D01*
X109085714Y-79889285D01*
X109054761Y-79951190D01*
X108992857Y-80013095D01*
X108900000Y-80044047D01*
X108745238Y-80044047D01*
X144754761Y-81425000D02*
X144692857Y-81394047D01*
X144600000Y-81394047D01*
X144507142Y-81425000D01*
X144445238Y-81486904D01*
X144414285Y-81548809D01*
X144383333Y-81672619D01*
X144383333Y-81765476D01*
X144414285Y-81889285D01*
X144445238Y-81951190D01*
X144507142Y-82013095D01*
X144600000Y-82044047D01*
X144661904Y-82044047D01*
X144754761Y-82013095D01*
X144785714Y-81982142D01*
X144785714Y-81765476D01*
X144661904Y-81765476D01*
X145064285Y-82044047D02*
X145064285Y-81394047D01*
X145435714Y-82044047D01*
X145435714Y-81394047D01*
X145745238Y-82044047D02*
X145745238Y-81394047D01*
X145900000Y-81394047D01*
X145992857Y-81425000D01*
X146054761Y-81486904D01*
X146085714Y-81548809D01*
X146116666Y-81672619D01*
X146116666Y-81765476D01*
X146085714Y-81889285D01*
X146054761Y-81951190D01*
X145992857Y-82013095D01*
X145900000Y-82044047D01*
X145745238Y-82044047D01*
%TO.C,VR1*%
X148234047Y-80353190D02*
X148884047Y-80136523D01*
X148234047Y-79919857D01*
X148884047Y-79331761D02*
X148574523Y-79548428D01*
X148884047Y-79703190D02*
X148234047Y-79703190D01*
X148234047Y-79455571D01*
X148265000Y-79393666D01*
X148295952Y-79362714D01*
X148357857Y-79331761D01*
X148450714Y-79331761D01*
X148512619Y-79362714D01*
X148543571Y-79393666D01*
X148574523Y-79455571D01*
X148574523Y-79703190D01*
X148884047Y-78712714D02*
X148884047Y-79084142D01*
X148884047Y-78898428D02*
X148234047Y-78898428D01*
X148326904Y-78960333D01*
X148388809Y-79022238D01*
X148419761Y-79084142D01*
D11*
%TO.C,R5*%
X116474383Y-79478102D02*
X116343149Y-79290626D01*
X116249411Y-79478102D02*
X116249411Y-79084401D01*
X116399392Y-79084401D01*
X116436887Y-79103149D01*
X116455635Y-79121897D01*
X116474383Y-79159392D01*
X116474383Y-79215635D01*
X116455635Y-79253130D01*
X116436887Y-79271878D01*
X116399392Y-79290626D01*
X116249411Y-79290626D01*
X116830588Y-79084401D02*
X116643112Y-79084401D01*
X116624364Y-79271878D01*
X116643112Y-79253130D01*
X116680607Y-79234383D01*
X116774345Y-79234383D01*
X116811841Y-79253130D01*
X116830588Y-79271878D01*
X116849336Y-79309373D01*
X116849336Y-79403112D01*
X116830588Y-79440607D01*
X116811841Y-79459355D01*
X116774345Y-79478102D01*
X116680607Y-79478102D01*
X116643112Y-79459355D01*
X116624364Y-79440607D01*
D10*
%TO.C,R2*%
X136797666Y-78272047D02*
X136581000Y-77962523D01*
X136426238Y-78272047D02*
X136426238Y-77622047D01*
X136673857Y-77622047D01*
X136735761Y-77653000D01*
X136766714Y-77683952D01*
X136797666Y-77745857D01*
X136797666Y-77838714D01*
X136766714Y-77900619D01*
X136735761Y-77931571D01*
X136673857Y-77962523D01*
X136426238Y-77962523D01*
X137045285Y-77683952D02*
X137076238Y-77653000D01*
X137138142Y-77622047D01*
X137292904Y-77622047D01*
X137354809Y-77653000D01*
X137385761Y-77683952D01*
X137416714Y-77745857D01*
X137416714Y-77807761D01*
X137385761Y-77900619D01*
X137014333Y-78272047D01*
X137416714Y-78272047D01*
%TO.C,R1*%
X136543666Y-72176047D02*
X136327000Y-71866523D01*
X136172238Y-72176047D02*
X136172238Y-71526047D01*
X136419857Y-71526047D01*
X136481761Y-71557000D01*
X136512714Y-71587952D01*
X136543666Y-71649857D01*
X136543666Y-71742714D01*
X136512714Y-71804619D01*
X136481761Y-71835571D01*
X136419857Y-71866523D01*
X136172238Y-71866523D01*
X137162714Y-72176047D02*
X136791285Y-72176047D01*
X136977000Y-72176047D02*
X136977000Y-71526047D01*
X136915095Y-71618904D01*
X136853190Y-71680809D01*
X136791285Y-71711761D01*
%TO.C,PS2*%
X110716714Y-82844047D02*
X110716714Y-82194047D01*
X110964333Y-82194047D01*
X111026238Y-82225000D01*
X111057190Y-82255952D01*
X111088142Y-82317857D01*
X111088142Y-82410714D01*
X111057190Y-82472619D01*
X111026238Y-82503571D01*
X110964333Y-82534523D01*
X110716714Y-82534523D01*
X111335761Y-82813095D02*
X111428619Y-82844047D01*
X111583380Y-82844047D01*
X111645285Y-82813095D01*
X111676238Y-82782142D01*
X111707190Y-82720238D01*
X111707190Y-82658333D01*
X111676238Y-82596428D01*
X111645285Y-82565476D01*
X111583380Y-82534523D01*
X111459571Y-82503571D01*
X111397666Y-82472619D01*
X111366714Y-82441666D01*
X111335761Y-82379761D01*
X111335761Y-82317857D01*
X111366714Y-82255952D01*
X111397666Y-82225000D01*
X111459571Y-82194047D01*
X111614333Y-82194047D01*
X111707190Y-82225000D01*
X111954809Y-82255952D02*
X111985761Y-82225000D01*
X112047666Y-82194047D01*
X112202428Y-82194047D01*
X112264333Y-82225000D01*
X112295285Y-82255952D01*
X112326238Y-82317857D01*
X112326238Y-82379761D01*
X112295285Y-82472619D01*
X111923857Y-82844047D01*
X112326238Y-82844047D01*
%TO.C,PS1*%
X110716714Y-95036047D02*
X110716714Y-94386047D01*
X110964333Y-94386047D01*
X111026238Y-94417000D01*
X111057190Y-94447952D01*
X111088142Y-94509857D01*
X111088142Y-94602714D01*
X111057190Y-94664619D01*
X111026238Y-94695571D01*
X110964333Y-94726523D01*
X110716714Y-94726523D01*
X111335761Y-95005095D02*
X111428619Y-95036047D01*
X111583380Y-95036047D01*
X111645285Y-95005095D01*
X111676238Y-94974142D01*
X111707190Y-94912238D01*
X111707190Y-94850333D01*
X111676238Y-94788428D01*
X111645285Y-94757476D01*
X111583380Y-94726523D01*
X111459571Y-94695571D01*
X111397666Y-94664619D01*
X111366714Y-94633666D01*
X111335761Y-94571761D01*
X111335761Y-94509857D01*
X111366714Y-94447952D01*
X111397666Y-94417000D01*
X111459571Y-94386047D01*
X111614333Y-94386047D01*
X111707190Y-94417000D01*
X112326238Y-95036047D02*
X111954809Y-95036047D01*
X112140523Y-95036047D02*
X112140523Y-94386047D01*
X112078619Y-94478904D01*
X112016714Y-94540809D01*
X111954809Y-94571761D01*
%TO.C,C11*%
X157824142Y-96244142D02*
X157793190Y-96275095D01*
X157700333Y-96306047D01*
X157638428Y-96306047D01*
X157545571Y-96275095D01*
X157483666Y-96213190D01*
X157452714Y-96151285D01*
X157421761Y-96027476D01*
X157421761Y-95934619D01*
X157452714Y-95810809D01*
X157483666Y-95748904D01*
X157545571Y-95687000D01*
X157638428Y-95656047D01*
X157700333Y-95656047D01*
X157793190Y-95687000D01*
X157824142Y-95717952D01*
X158443190Y-96306047D02*
X158071761Y-96306047D01*
X158257476Y-96306047D02*
X158257476Y-95656047D01*
X158195571Y-95748904D01*
X158133666Y-95810809D01*
X158071761Y-95841761D01*
X159062238Y-96306047D02*
X158690809Y-96306047D01*
X158876523Y-96306047D02*
X158876523Y-95656047D01*
X158814619Y-95748904D01*
X158752714Y-95810809D01*
X158690809Y-95841761D01*
%TO.C,C10*%
X149696142Y-95990142D02*
X149665190Y-96021095D01*
X149572333Y-96052047D01*
X149510428Y-96052047D01*
X149417571Y-96021095D01*
X149355666Y-95959190D01*
X149324714Y-95897285D01*
X149293761Y-95773476D01*
X149293761Y-95680619D01*
X149324714Y-95556809D01*
X149355666Y-95494904D01*
X149417571Y-95433000D01*
X149510428Y-95402047D01*
X149572333Y-95402047D01*
X149665190Y-95433000D01*
X149696142Y-95463952D01*
X150315190Y-96052047D02*
X149943761Y-96052047D01*
X150129476Y-96052047D02*
X150129476Y-95402047D01*
X150067571Y-95494904D01*
X150005666Y-95556809D01*
X149943761Y-95587761D01*
X150717571Y-95402047D02*
X150779476Y-95402047D01*
X150841380Y-95433000D01*
X150872333Y-95463952D01*
X150903285Y-95525857D01*
X150934238Y-95649666D01*
X150934238Y-95804428D01*
X150903285Y-95928238D01*
X150872333Y-95990142D01*
X150841380Y-96021095D01*
X150779476Y-96052047D01*
X150717571Y-96052047D01*
X150655666Y-96021095D01*
X150624714Y-95990142D01*
X150593761Y-95928238D01*
X150562809Y-95804428D01*
X150562809Y-95649666D01*
X150593761Y-95525857D01*
X150624714Y-95463952D01*
X150655666Y-95433000D01*
X150717571Y-95402047D01*
%TO.C,C5*%
X129685666Y-79988142D02*
X129654714Y-80019095D01*
X129561857Y-80050047D01*
X129499952Y-80050047D01*
X129407095Y-80019095D01*
X129345190Y-79957190D01*
X129314238Y-79895285D01*
X129283285Y-79771476D01*
X129283285Y-79678619D01*
X129314238Y-79554809D01*
X129345190Y-79492904D01*
X129407095Y-79431000D01*
X129499952Y-79400047D01*
X129561857Y-79400047D01*
X129654714Y-79431000D01*
X129685666Y-79461952D01*
X130273761Y-79400047D02*
X129964238Y-79400047D01*
X129933285Y-79709571D01*
X129964238Y-79678619D01*
X130026142Y-79647666D01*
X130180904Y-79647666D01*
X130242809Y-79678619D01*
X130273761Y-79709571D01*
X130304714Y-79771476D01*
X130304714Y-79926238D01*
X130273761Y-79988142D01*
X130242809Y-80019095D01*
X130180904Y-80050047D01*
X130026142Y-80050047D01*
X129964238Y-80019095D01*
X129933285Y-79988142D01*
%TO.C,C4*%
X129685666Y-75924142D02*
X129654714Y-75955095D01*
X129561857Y-75986047D01*
X129499952Y-75986047D01*
X129407095Y-75955095D01*
X129345190Y-75893190D01*
X129314238Y-75831285D01*
X129283285Y-75707476D01*
X129283285Y-75614619D01*
X129314238Y-75490809D01*
X129345190Y-75428904D01*
X129407095Y-75367000D01*
X129499952Y-75336047D01*
X129561857Y-75336047D01*
X129654714Y-75367000D01*
X129685666Y-75397952D01*
X130242809Y-75552714D02*
X130242809Y-75986047D01*
X130088047Y-75305095D02*
X129933285Y-75769380D01*
X130335666Y-75769380D01*
%TO.C,C3*%
X158133666Y-88370142D02*
X158102714Y-88401095D01*
X158009857Y-88432047D01*
X157947952Y-88432047D01*
X157855095Y-88401095D01*
X157793190Y-88339190D01*
X157762238Y-88277285D01*
X157731285Y-88153476D01*
X157731285Y-88060619D01*
X157762238Y-87936809D01*
X157793190Y-87874904D01*
X157855095Y-87813000D01*
X157947952Y-87782047D01*
X158009857Y-87782047D01*
X158102714Y-87813000D01*
X158133666Y-87843952D01*
X158350333Y-87782047D02*
X158752714Y-87782047D01*
X158536047Y-88029666D01*
X158628904Y-88029666D01*
X158690809Y-88060619D01*
X158721761Y-88091571D01*
X158752714Y-88153476D01*
X158752714Y-88308238D01*
X158721761Y-88370142D01*
X158690809Y-88401095D01*
X158628904Y-88432047D01*
X158443190Y-88432047D01*
X158381285Y-88401095D01*
X158350333Y-88370142D01*
%TO.C,C2*%
X150005666Y-88370142D02*
X149974714Y-88401095D01*
X149881857Y-88432047D01*
X149819952Y-88432047D01*
X149727095Y-88401095D01*
X149665190Y-88339190D01*
X149634238Y-88277285D01*
X149603285Y-88153476D01*
X149603285Y-88060619D01*
X149634238Y-87936809D01*
X149665190Y-87874904D01*
X149727095Y-87813000D01*
X149819952Y-87782047D01*
X149881857Y-87782047D01*
X149974714Y-87813000D01*
X150005666Y-87843952D01*
X150253285Y-87843952D02*
X150284238Y-87813000D01*
X150346142Y-87782047D01*
X150500904Y-87782047D01*
X150562809Y-87813000D01*
X150593761Y-87843952D01*
X150624714Y-87905857D01*
X150624714Y-87967761D01*
X150593761Y-88060619D01*
X150222333Y-88432047D01*
X150624714Y-88432047D01*
%TO.C,C1*%
X129939666Y-71860142D02*
X129908714Y-71891095D01*
X129815857Y-71922047D01*
X129753952Y-71922047D01*
X129661095Y-71891095D01*
X129599190Y-71829190D01*
X129568238Y-71767285D01*
X129537285Y-71643476D01*
X129537285Y-71550619D01*
X129568238Y-71426809D01*
X129599190Y-71364904D01*
X129661095Y-71303000D01*
X129753952Y-71272047D01*
X129815857Y-71272047D01*
X129908714Y-71303000D01*
X129939666Y-71333952D01*
X130558714Y-71922047D02*
X130187285Y-71922047D01*
X130373000Y-71922047D02*
X130373000Y-71272047D01*
X130311095Y-71364904D01*
X130249190Y-71426809D01*
X130187285Y-71457761D01*
%TO.C,J3*%
X124783333Y-71644047D02*
X124783333Y-72108333D01*
X124752380Y-72201190D01*
X124690476Y-72263095D01*
X124597619Y-72294047D01*
X124535714Y-72294047D01*
X125030952Y-71644047D02*
X125433333Y-71644047D01*
X125216666Y-71891666D01*
X125309523Y-71891666D01*
X125371428Y-71922619D01*
X125402380Y-71953571D01*
X125433333Y-72015476D01*
X125433333Y-72170238D01*
X125402380Y-72232142D01*
X125371428Y-72263095D01*
X125309523Y-72294047D01*
X125123809Y-72294047D01*
X125061904Y-72263095D01*
X125030952Y-72232142D01*
%TO.C,J1*%
X110783333Y-71894047D02*
X110783333Y-72358333D01*
X110752380Y-72451190D01*
X110690476Y-72513095D01*
X110597619Y-72544047D01*
X110535714Y-72544047D01*
X111433333Y-72544047D02*
X111061904Y-72544047D01*
X111247619Y-72544047D02*
X111247619Y-71894047D01*
X111185714Y-71986904D01*
X111123809Y-72048809D01*
X111061904Y-72079761D01*
%TO.C,J2*%
X118183333Y-71644047D02*
X118183333Y-72108333D01*
X118152380Y-72201190D01*
X118090476Y-72263095D01*
X117997619Y-72294047D01*
X117935714Y-72294047D01*
X118461904Y-71705952D02*
X118492857Y-71675000D01*
X118554761Y-71644047D01*
X118709523Y-71644047D01*
X118771428Y-71675000D01*
X118802380Y-71705952D01*
X118833333Y-71767857D01*
X118833333Y-71829761D01*
X118802380Y-71922619D01*
X118430952Y-72294047D01*
X118833333Y-72294047D01*
%TO.C,J4*%
X142383333Y-71514047D02*
X142383333Y-71978333D01*
X142352380Y-72071190D01*
X142290476Y-72133095D01*
X142197619Y-72164047D01*
X142135714Y-72164047D01*
X142971428Y-71730714D02*
X142971428Y-72164047D01*
X142816666Y-71483095D02*
X142661904Y-71947380D01*
X143064285Y-71947380D01*
D12*
%TO.C,VR1*%
X149520000Y-81975000D02*
X149520000Y-78980000D01*
X159680000Y-78980000D02*
X159680000Y-81975000D01*
X159680000Y-81975000D02*
X149520000Y-81975000D01*
D13*
X151100000Y-85945000D02*
G75*
G03*
X151100000Y-85945000I-100000J0D01*
G01*
D12*
%TO.C,R5*%
X117030000Y-81700000D02*
X118170000Y-81700000D01*
X117030000Y-79900000D02*
X118170000Y-79900000D01*
%TO.C,R2*%
X135100000Y-81529000D02*
X138100000Y-81529000D01*
X138100000Y-78471000D02*
X135100000Y-78471000D01*
D13*
X133200000Y-78750000D02*
G75*
G03*
X133200000Y-78750000I-100000J0D01*
G01*
D12*
%TO.C,R1*%
X135100000Y-75529000D02*
X138100000Y-75529000D01*
X138100000Y-72471000D02*
X135100000Y-72471000D01*
D13*
X133200000Y-72750000D02*
G75*
G03*
X133200000Y-72750000I-100000J0D01*
G01*
D12*
%TO.C,PS2*%
X138430000Y-83250000D02*
X139330000Y-83250000D01*
X108030000Y-83250000D02*
X107130000Y-83250000D01*
X139330000Y-92350000D02*
X139330000Y-83250000D01*
X107130000Y-92350000D02*
X139330000Y-92350000D01*
X107130000Y-83250000D02*
X107130000Y-92350000D01*
D13*
X106455000Y-84050000D02*
G75*
G03*
X106455000Y-84050000I-100000J0D01*
G01*
%TO.C,PS1*%
X106375000Y-96250000D02*
G75*
G03*
X106375000Y-96250000I-100000J0D01*
G01*
D12*
X107050000Y-95450000D02*
X107050000Y-104550000D01*
X107050000Y-104550000D02*
X139250000Y-104550000D01*
X139250000Y-104550000D02*
X139250000Y-95450000D01*
X107950000Y-95450000D02*
X107050000Y-95450000D01*
X138350000Y-95450000D02*
X139250000Y-95450000D01*
%TO.C,C11*%
X160700000Y-99200000D02*
G75*
G03*
X160700000Y-99200000I-2500000J0D01*
G01*
D13*
X155050000Y-99200000D02*
G75*
G03*
X155050000Y-99200000I-100000J0D01*
G01*
D12*
%TO.C,C10*%
X152637500Y-99000000D02*
G75*
G03*
X152637500Y-99000000I-2500000J0D01*
G01*
D13*
X146987500Y-99000000D02*
G75*
G03*
X146987500Y-99000000I-100000J0D01*
G01*
%TO.C,C5*%
X129900000Y-80450000D02*
X129900000Y-81550000D01*
%TO.C,C4*%
X129900000Y-76450000D02*
X129900000Y-77550000D01*
D12*
%TO.C,C3*%
X160637500Y-91400000D02*
G75*
G03*
X160637500Y-91400000I-2500000J0D01*
G01*
D13*
X154987500Y-91400000D02*
G75*
G03*
X154987500Y-91400000I-100000J0D01*
G01*
D12*
%TO.C,C2*%
X152700000Y-91400000D02*
G75*
G03*
X152700000Y-91400000I-2500000J0D01*
G01*
D13*
X147050000Y-91400000D02*
G75*
G03*
X147050000Y-91400000I-100000J0D01*
G01*
%TO.C,C1*%
X130000000Y-72450000D02*
X130000000Y-73550000D01*
D14*
%TO.C,J3*%
X123670000Y-72920000D02*
X125000000Y-72920000D01*
X126330000Y-75520000D02*
X126330000Y-78120000D01*
X123670000Y-75520000D02*
X123670000Y-78120000D01*
X123670000Y-74250000D02*
X123670000Y-72920000D01*
X123670000Y-78120000D02*
X126330000Y-78120000D01*
X123670000Y-75520000D02*
X126330000Y-75520000D01*
%TO.C,J1*%
X109670000Y-74475000D02*
X109670000Y-73145000D01*
X112330000Y-75745000D02*
X112330000Y-80885000D01*
X109670000Y-75745000D02*
X109670000Y-80885000D01*
X109670000Y-80885000D02*
X112330000Y-80885000D01*
X109670000Y-75745000D02*
X112330000Y-75745000D01*
X109670000Y-73145000D02*
X111000000Y-73145000D01*
%TO.C,J2*%
X117070000Y-78195000D02*
X119730000Y-78195000D01*
X117070000Y-74325000D02*
X117070000Y-72995000D01*
X117070000Y-75595000D02*
X117070000Y-78195000D01*
X119730000Y-75595000D02*
X119730000Y-78195000D01*
X117070000Y-75595000D02*
X119730000Y-75595000D01*
X117070000Y-72995000D02*
X118400000Y-72995000D01*
%TO.C,J4*%
X141270000Y-75470000D02*
X141270000Y-93310000D01*
X143930000Y-75470000D02*
X143930000Y-93310000D01*
X141270000Y-93310000D02*
X143930000Y-93310000D01*
X141270000Y-74200000D02*
X141270000Y-72870000D01*
X141270000Y-72870000D02*
X142600000Y-72870000D01*
X141270000Y-75470000D02*
X143930000Y-75470000D01*
%TD*%
M02*
