%TF.GenerationSoftware,KiCad,Pcbnew,(6.0.5)*%
%TF.CreationDate,2023-06-19T13:08:36+02:00*%
%TF.ProjectId,PCB_Hoja,5043425f-486f-46a6-912e-6b696361645f,rev?*%
%TF.SameCoordinates,Original*%
%TF.FileFunction,Paste,Top*%
%TF.FilePolarity,Positive*%
%FSLAX46Y46*%
G04 Gerber Fmt 4.6, Leading zero omitted, Abs format (unit mm)*
G04 Created by KiCad (PCBNEW (6.0.5)) date 2023-06-19 13:08:36*
%MOMM*%
%LPD*%
G01*
G04 APERTURE LIST*
G04 Aperture macros list*
%AMRoundRect*
0 Rectangle with rounded corners*
0 $1 Rounding radius*
0 $2 $3 $4 $5 $6 $7 $8 $9 X,Y pos of 4 corners*
0 Add a 4 corners polygon primitive as box body*
4,1,4,$2,$3,$4,$5,$6,$7,$8,$9,$2,$3,0*
0 Add four circle primitives for the rounded corners*
1,1,$1+$1,$2,$3*
1,1,$1+$1,$4,$5*
1,1,$1+$1,$6,$7*
1,1,$1+$1,$8,$9*
0 Add four rect primitives between the rounded corners*
20,1,$1+$1,$2,$3,$4,$5,0*
20,1,$1+$1,$4,$5,$6,$7,0*
20,1,$1+$1,$6,$7,$8,$9,0*
20,1,$1+$1,$8,$9,$2,$3,0*%
G04 Aperture macros list end*
%ADD10C,0.010000*%
%ADD11R,1.050000X2.790000*%
%ADD12R,1.160000X1.820000*%
%ADD13RoundRect,0.028800X-0.696200X-0.211200X0.696200X-0.211200X0.696200X0.211200X-0.696200X0.211200X0*%
%ADD14RoundRect,0.028800X0.696200X0.211200X-0.696200X0.211200X-0.696200X-0.211200X0.696200X-0.211200X0*%
%ADD15R,1.150000X1.450000*%
G04 APERTURE END LIST*
%TO.C,VR1*%
G36*
X154350000Y-77905000D02*
G01*
X153090000Y-77905000D01*
X153090000Y-75995000D01*
X154350000Y-75995000D01*
X154350000Y-77905000D01*
G37*
D10*
X154350000Y-77905000D02*
X153090000Y-77905000D01*
X153090000Y-75995000D01*
X154350000Y-75995000D01*
X154350000Y-77905000D01*
G36*
X152590000Y-77905000D02*
G01*
X151330000Y-77905000D01*
X151330000Y-75995000D01*
X152590000Y-75995000D01*
X152590000Y-77905000D01*
G37*
X152590000Y-77905000D02*
X151330000Y-77905000D01*
X151330000Y-75995000D01*
X152590000Y-75995000D01*
X152590000Y-77905000D01*
G36*
X150830000Y-77905000D02*
G01*
X149570000Y-77905000D01*
X149570000Y-75995000D01*
X150830000Y-75995000D01*
X150830000Y-77905000D01*
G37*
X150830000Y-77905000D02*
X149570000Y-77905000D01*
X149570000Y-75995000D01*
X150830000Y-75995000D01*
X150830000Y-77905000D01*
G36*
X156110000Y-77905000D02*
G01*
X154850000Y-77905000D01*
X154850000Y-75995000D01*
X156110000Y-75995000D01*
X156110000Y-77905000D01*
G37*
X156110000Y-77905000D02*
X154850000Y-77905000D01*
X154850000Y-75995000D01*
X156110000Y-75995000D01*
X156110000Y-77905000D01*
G36*
X157870000Y-77905000D02*
G01*
X156610000Y-77905000D01*
X156610000Y-75995000D01*
X157870000Y-75995000D01*
X157870000Y-77905000D01*
G37*
X157870000Y-77905000D02*
X156610000Y-77905000D01*
X156610000Y-75995000D01*
X157870000Y-75995000D01*
X157870000Y-77905000D01*
G36*
X159630000Y-77905000D02*
G01*
X158370000Y-77905000D01*
X158370000Y-75995000D01*
X159630000Y-75995000D01*
X159630000Y-77905000D01*
G37*
X159630000Y-77905000D02*
X158370000Y-77905000D01*
X158370000Y-75995000D01*
X159630000Y-75995000D01*
X159630000Y-77905000D01*
G36*
X154350000Y-74485000D02*
G01*
X153090000Y-74485000D01*
X153090000Y-72575000D01*
X154350000Y-72575000D01*
X154350000Y-74485000D01*
G37*
X154350000Y-74485000D02*
X153090000Y-74485000D01*
X153090000Y-72575000D01*
X154350000Y-72575000D01*
X154350000Y-74485000D01*
G36*
X152590000Y-74485000D02*
G01*
X151330000Y-74485000D01*
X151330000Y-72575000D01*
X152590000Y-72575000D01*
X152590000Y-74485000D01*
G37*
X152590000Y-74485000D02*
X151330000Y-74485000D01*
X151330000Y-72575000D01*
X152590000Y-72575000D01*
X152590000Y-74485000D01*
G36*
X150830000Y-74485000D02*
G01*
X149570000Y-74485000D01*
X149570000Y-72575000D01*
X150830000Y-72575000D01*
X150830000Y-74485000D01*
G37*
X150830000Y-74485000D02*
X149570000Y-74485000D01*
X149570000Y-72575000D01*
X150830000Y-72575000D01*
X150830000Y-74485000D01*
G36*
X156110000Y-74485000D02*
G01*
X154850000Y-74485000D01*
X154850000Y-72575000D01*
X156110000Y-72575000D01*
X156110000Y-74485000D01*
G37*
X156110000Y-74485000D02*
X154850000Y-74485000D01*
X154850000Y-72575000D01*
X156110000Y-72575000D01*
X156110000Y-74485000D01*
G36*
X157870000Y-74485000D02*
G01*
X156610000Y-74485000D01*
X156610000Y-72575000D01*
X157870000Y-72575000D01*
X157870000Y-74485000D01*
G37*
X157870000Y-74485000D02*
X156610000Y-74485000D01*
X156610000Y-72575000D01*
X157870000Y-72575000D01*
X157870000Y-74485000D01*
G36*
X159630000Y-74485000D02*
G01*
X158370000Y-74485000D01*
X158370000Y-72575000D01*
X159630000Y-72575000D01*
X159630000Y-74485000D01*
G37*
X159630000Y-74485000D02*
X158370000Y-74485000D01*
X158370000Y-72575000D01*
X159630000Y-72575000D01*
X159630000Y-74485000D01*
%TO.C,R2*%
G36*
X137130000Y-80595000D02*
G01*
X136070000Y-80595000D01*
X136070000Y-79405000D01*
X137130000Y-79405000D01*
X137130000Y-80595000D01*
G37*
X137130000Y-80595000D02*
X136070000Y-80595000D01*
X136070000Y-79405000D01*
X137130000Y-79405000D01*
X137130000Y-80595000D01*
%TO.C,R1*%
G36*
X137130000Y-74595000D02*
G01*
X136070000Y-74595000D01*
X136070000Y-73405000D01*
X137130000Y-73405000D01*
X137130000Y-74595000D01*
G37*
X137130000Y-74595000D02*
X136070000Y-74595000D01*
X136070000Y-73405000D01*
X137130000Y-73405000D01*
X137130000Y-74595000D01*
%TD*%
D11*
%TO.C,VR1*%
X152060000Y-85590000D03*
X154600000Y-85590000D03*
X157140000Y-85590000D03*
%TD*%
D12*
%TO.C,R5*%
X119075000Y-80800000D03*
X116125000Y-80800000D03*
%TD*%
D13*
%TO.C,R2*%
X134440000Y-79025000D03*
X134440000Y-79675000D03*
X134440000Y-80325000D03*
X134440000Y-80975000D03*
D14*
X138760000Y-80975000D03*
X138760000Y-80325000D03*
X138760000Y-79675000D03*
X138760000Y-79025000D03*
%TD*%
D13*
%TO.C,R1*%
X134440000Y-73025000D03*
X134440000Y-73675000D03*
X134440000Y-74325000D03*
X134440000Y-74975000D03*
D14*
X138760000Y-74975000D03*
X138760000Y-74325000D03*
X138760000Y-73675000D03*
X138760000Y-73025000D03*
%TD*%
D15*
%TO.C,C5*%
X129000000Y-81000000D03*
X130800000Y-81000000D03*
%TD*%
%TO.C,C4*%
X129000000Y-77000000D03*
X130800000Y-77000000D03*
%TD*%
%TO.C,C1*%
X129100000Y-73000000D03*
X130900000Y-73000000D03*
%TD*%
M02*
