%TF.GenerationSoftware,KiCad,Pcbnew,(6.0.5)*%
%TF.CreationDate,2023-06-19T13:08:36+02:00*%
%TF.ProjectId,PCB_Hoja,5043425f-486f-46a6-912e-6b696361645f,rev?*%
%TF.SameCoordinates,Original*%
%TF.FileFunction,Paste,Bot*%
%TF.FilePolarity,Positive*%
%FSLAX46Y46*%
G04 Gerber Fmt 4.6, Leading zero omitted, Abs format (unit mm)*
G04 Created by KiCad (PCBNEW (6.0.5)) date 2023-06-19 13:08:36*
%MOMM*%
%LPD*%
G01*
G04 APERTURE LIST*
G04 Aperture macros list*
%AMRoundRect*
0 Rectangle with rounded corners*
0 $1 Rounding radius*
0 $2 $3 $4 $5 $6 $7 $8 $9 X,Y pos of 4 corners*
0 Add a 4 corners polygon primitive as box body*
4,1,4,$2,$3,$4,$5,$6,$7,$8,$9,$2,$3,0*
0 Add four circle primitives for the rounded corners*
1,1,$1+$1,$2,$3*
1,1,$1+$1,$4,$5*
1,1,$1+$1,$6,$7*
1,1,$1+$1,$8,$9*
0 Add four rect primitives between the rounded corners*
20,1,$1+$1,$2,$3,$4,$5,0*
20,1,$1+$1,$4,$5,$6,$7,0*
20,1,$1+$1,$6,$7,$8,$9,0*
20,1,$1+$1,$8,$9,$2,$3,0*%
G04 Aperture macros list end*
%ADD10C,0.010000*%
%ADD11R,1.000000X1.400000*%
%ADD12R,2.200000X0.600000*%
%ADD13RoundRect,0.042000X0.943000X0.258000X-0.943000X0.258000X-0.943000X-0.258000X0.943000X-0.258000X0*%
%ADD14R,1.160000X1.820000*%
%ADD15RoundRect,0.028800X0.696200X0.211200X-0.696200X0.211200X-0.696200X-0.211200X0.696200X-0.211200X0*%
%ADD16RoundRect,0.028800X-0.696200X-0.211200X0.696200X-0.211200X0.696200X0.211200X-0.696200X0.211200X0*%
%ADD17R,1.150000X1.450000*%
G04 APERTURE END LIST*
%TO.C,R4*%
G36*
X137130000Y-80595000D02*
G01*
X136070000Y-80595000D01*
X136070000Y-79405000D01*
X137130000Y-79405000D01*
X137130000Y-80595000D01*
G37*
D10*
X137130000Y-80595000D02*
X136070000Y-80595000D01*
X136070000Y-79405000D01*
X137130000Y-79405000D01*
X137130000Y-80595000D01*
%TO.C,R3*%
G36*
X137130000Y-74595000D02*
G01*
X136070000Y-74595000D01*
X136070000Y-73405000D01*
X137130000Y-73405000D01*
X137130000Y-74595000D01*
G37*
X137130000Y-74595000D02*
X136070000Y-74595000D01*
X136070000Y-73405000D01*
X137130000Y-73405000D01*
X137130000Y-74595000D01*
%TD*%
D11*
%TO.C,U7*%
X111760000Y-86784000D03*
X110810000Y-88984000D03*
X112710000Y-88984000D03*
%TD*%
%TO.C,U6*%
X112710000Y-100668000D03*
X110810000Y-100668000D03*
X111760000Y-98468000D03*
%TD*%
D12*
%TO.C,U5*%
X128000000Y-101365000D03*
X122800000Y-101365000D03*
X128000000Y-100095000D03*
X128000000Y-102635000D03*
X128000000Y-103905000D03*
X122800000Y-100095000D03*
X122800000Y-102635000D03*
X122800000Y-103905000D03*
%TD*%
D13*
%TO.C,U4*%
X137270000Y-99895000D03*
X137270000Y-101165000D03*
X137270000Y-102435000D03*
X137270000Y-103705000D03*
X132330000Y-103705000D03*
X132330000Y-102435000D03*
X132330000Y-101165000D03*
X132330000Y-99895000D03*
%TD*%
D12*
%TO.C,U3*%
X120800000Y-89165000D03*
X115600000Y-89165000D03*
X120800000Y-87895000D03*
X120800000Y-90435000D03*
X120800000Y-91705000D03*
X115600000Y-87895000D03*
X115600000Y-90435000D03*
X115600000Y-91705000D03*
%TD*%
D13*
%TO.C,U2*%
X129270000Y-87495000D03*
X129270000Y-88765000D03*
X129270000Y-90035000D03*
X129270000Y-91305000D03*
X124330000Y-91305000D03*
X124330000Y-90035000D03*
X124330000Y-88765000D03*
X124330000Y-87495000D03*
%TD*%
D12*
%TO.C,U1*%
X138400000Y-88965000D03*
X133200000Y-88965000D03*
X138400000Y-87695000D03*
X138400000Y-90235000D03*
X138400000Y-91505000D03*
X133200000Y-87695000D03*
X133200000Y-90235000D03*
X133200000Y-91505000D03*
%TD*%
D14*
%TO.C,R6*%
X119075000Y-80800000D03*
X116125000Y-80800000D03*
%TD*%
D15*
%TO.C,R4*%
X138760000Y-79025000D03*
X138760000Y-79675000D03*
X138760000Y-80325000D03*
X138760000Y-80975000D03*
D16*
X134440000Y-80975000D03*
X134440000Y-80325000D03*
X134440000Y-79675000D03*
X134440000Y-79025000D03*
%TD*%
D15*
%TO.C,R3*%
X138760000Y-73025000D03*
X138760000Y-73675000D03*
X138760000Y-74325000D03*
X138760000Y-74975000D03*
D16*
X134440000Y-74975000D03*
X134440000Y-74325000D03*
X134440000Y-73675000D03*
X134440000Y-73025000D03*
%TD*%
D17*
%TO.C,C15*%
X130700000Y-81000000D03*
X128900000Y-81000000D03*
%TD*%
%TO.C,C13*%
X130800000Y-77000000D03*
X129000000Y-77000000D03*
%TD*%
%TO.C,C6*%
X130900000Y-73000000D03*
X129100000Y-73000000D03*
%TD*%
M02*
