M48
; DRILL file {KiCad (6.0.5)} date Mon Jun 19 13:08:38 2023
; FORMAT={-:-/ absolute / metric / decimal}
; #@! TF.CreationDate,2023-06-19T13:08:38+02:00
; #@! TF.GenerationSoftware,Kicad,Pcbnew,(6.0.5)
; #@! TF.FileFunction,Plated,1,2,PTH
FMAT,2
METRIC
; #@! TA.AperFunction,Plated,PTH,ViaDrill
T1C0.400
; #@! TA.AperFunction,Plated,PTH,ComponentDrill
T2C0.750
; #@! TA.AperFunction,Plated,PTH,ComponentDrill
T3C1.000
%
G90
G05
T1
X118.673Y-79.252
X119.678Y-86.986
X131.978Y-76.937
X132.165Y-79.316
X132.563Y-72.646
X133.431Y-86.06
X136.195Y-78.328
X136.6Y-86.752
X138.626Y-76.678
X138.937Y-81.852
X139.74Y-82.504
T2
X116.337Y-101.4
X118.337Y-101.4
X123.137Y-81.0
X125.137Y-81.0
X149.137Y-99.0
X149.2Y-91.4
X149.8Y-81.6
X151.137Y-99.0
X151.2Y-91.4
X151.8Y-81.6
X156.463Y-81.4
X157.137Y-91.4
X157.2Y-99.2
X158.463Y-81.4
X159.137Y-91.4
X159.2Y-99.2
T3
X109.15Y-96.25
X109.23Y-84.05
X111.0Y-74.475
X111.0Y-77.015
X111.0Y-79.555
X111.69Y-96.25
X111.77Y-84.05
X114.23Y-96.25
X114.31Y-84.05
X116.77Y-96.25
X116.85Y-84.05
X118.4Y-74.325
X118.4Y-76.865
X119.31Y-96.25
X119.39Y-84.05
X121.85Y-96.25
X121.93Y-84.05
X124.39Y-96.25
X124.47Y-84.05
X125.0Y-74.25
X125.0Y-76.79
X126.93Y-96.25
X127.01Y-84.05
X129.47Y-96.25
X129.55Y-84.05
X132.01Y-96.25
X132.09Y-84.05
X134.55Y-96.25
X134.63Y-84.05
X137.09Y-96.25
X137.17Y-84.05
X142.6Y-74.2
X142.6Y-76.74
X142.6Y-79.28
X142.6Y-81.82
X142.6Y-84.36
X142.6Y-86.9
X142.6Y-89.44
X142.6Y-91.98
T0
M30
