%TF.GenerationSoftware,KiCad,Pcbnew,(6.0.5)*%
%TF.CreationDate,2023-06-19T01:03:16+02:00*%
%TF.ProjectId,PCB_Alimentacion,5043425f-416c-4696-9d65-6e746163696f,rev?*%
%TF.SameCoordinates,Original*%
%TF.FileFunction,Copper,L2,Bot*%
%TF.FilePolarity,Positive*%
%FSLAX46Y46*%
G04 Gerber Fmt 4.6, Leading zero omitted, Abs format (unit mm)*
G04 Created by KiCad (PCBNEW (6.0.5)) date 2023-06-19 01:03:16*
%MOMM*%
%LPD*%
G01*
G04 APERTURE LIST*
%TA.AperFunction,ComponentPad*%
%ADD10R,1.500000X2.500000*%
%TD*%
%TA.AperFunction,ComponentPad*%
%ADD11O,1.500000X2.500000*%
%TD*%
%TA.AperFunction,ComponentPad*%
%ADD12C,1.100000*%
%TD*%
%TA.AperFunction,ComponentPad*%
%ADD13R,1.100000X1.100000*%
%TD*%
%TA.AperFunction,ComponentPad*%
%ADD14R,1.800000X1.800000*%
%TD*%
%TA.AperFunction,ComponentPad*%
%ADD15C,1.800000*%
%TD*%
%TA.AperFunction,ComponentPad*%
%ADD16R,1.700000X1.700000*%
%TD*%
%TA.AperFunction,ComponentPad*%
%ADD17O,1.700000X1.700000*%
%TD*%
%TA.AperFunction,Conductor*%
%ADD18C,0.750000*%
%TD*%
%TA.AperFunction,Conductor*%
%ADD19C,0.250000*%
%TD*%
G04 APERTURE END LIST*
D10*
%TO.P,U1,1,Vin*%
%TO.N,PWR*%
X118967500Y-97382500D03*
D11*
%TO.P,U1,2,GND*%
%TO.N,GND*%
X121507500Y-97382500D03*
%TO.P,U1,3,Vout*%
%TO.N,PWR_Arduino*%
X124047500Y-97382500D03*
%TD*%
D12*
%TO.P,C4,N*%
%TO.N,GND*%
X145587500Y-74850000D03*
D13*
%TO.P,C4,P*%
%TO.N,PWR_Raspberry*%
X143587500Y-74850000D03*
%TD*%
D14*
%TO.P,PS1,1,CTRL*%
%TO.N,unconnected-(PS1-Pad1)*%
X118430000Y-81430000D03*
D15*
%TO.P,PS1,2,VIN*%
%TO.N,PWR*%
X120970000Y-81430000D03*
%TO.P,PS1,3,VIN*%
X123510000Y-81430000D03*
%TO.P,PS1,4,VIN*%
X126050000Y-81430000D03*
%TO.P,PS1,5,GND*%
%TO.N,GND*%
X128590000Y-81430000D03*
%TO.P,PS1,6,GND*%
X131130000Y-81430000D03*
%TO.P,PS1,7,GND*%
X133670000Y-81430000D03*
%TO.P,PS1,8,GND*%
X136210000Y-81430000D03*
%TO.P,PS1,9,+VO1*%
%TO.N,PWR_Raspberry*%
X138750000Y-81430000D03*
%TO.P,PS1,10,+VO1*%
X141290000Y-81430000D03*
%TO.P,PS1,11,+VO2*%
%TO.N,unconnected-(PS1-Pad11)*%
X143830000Y-81430000D03*
%TO.P,PS1,12,TRIM*%
%TO.N,unconnected-(PS1-Pad12)*%
X146370000Y-81430000D03*
%TD*%
D16*
%TO.P,J2,1,Pin_1*%
%TO.N,PWR_Arduino*%
X128000000Y-74800000D03*
D17*
%TO.P,J2,2,Pin_2*%
%TO.N,GND*%
X130540000Y-74800000D03*
%TO.P,J2,3,Pin_3*%
%TO.N,PWR_Raspberry*%
X133080000Y-74800000D03*
%TO.P,J2,4,Pin_4*%
%TO.N,GND*%
X135620000Y-74800000D03*
%TD*%
D12*
%TO.P,C3,N*%
%TO.N,GND*%
X147937500Y-95400000D03*
D13*
%TO.P,C3,P*%
%TO.N,PWR_Arduino*%
X145937500Y-95400000D03*
%TD*%
D12*
%TO.P,C2,N*%
%TO.N,GND*%
X140600000Y-95400000D03*
D13*
%TO.P,C2,P*%
%TO.N,PWR*%
X138600000Y-95400000D03*
%TD*%
D16*
%TO.P,J1,1,Pin_1*%
%TO.N,PWR*%
X118625000Y-74900000D03*
D17*
%TO.P,J1,2,Pin_2*%
%TO.N,GND*%
X121165000Y-74900000D03*
%TD*%
D12*
%TO.P,C1,N*%
%TO.N,GND*%
X133037500Y-95150000D03*
D13*
%TO.P,C1,P*%
%TO.N,PWR*%
X131037500Y-95150000D03*
%TD*%
D18*
%TO.N,PWR*%
X126050000Y-81430000D02*
X126050000Y-90162500D01*
X126980480Y-99207020D02*
X131037500Y-95150000D01*
X118967500Y-97382500D02*
X120792020Y-99207020D01*
X120792020Y-99207020D02*
X126980480Y-99207020D01*
X126050000Y-90162500D02*
X131037500Y-95150000D01*
D19*
%TO.N,GND*%
X130540000Y-74800000D02*
X131715300Y-74800000D01*
X133693100Y-94494400D02*
X136210000Y-94494400D01*
X136210000Y-94494400D02*
X139694400Y-94494400D01*
X134444700Y-74800000D02*
X134444700Y-74432700D01*
X132523200Y-73624700D02*
X131715300Y-74432600D01*
X135620000Y-74800000D02*
X134444700Y-74800000D01*
X128590000Y-81430000D02*
X131130000Y-81430000D01*
X147062100Y-96275400D02*
X141475400Y-96275400D01*
X133037500Y-95150000D02*
X133693100Y-94494400D01*
X131715300Y-74432600D02*
X131715300Y-74800000D01*
X147937500Y-95400000D02*
X147062100Y-96275400D01*
X139694400Y-94494400D02*
X140600000Y-95400000D01*
X133636700Y-73624700D02*
X132523200Y-73624700D01*
X134444700Y-74432700D02*
X133636700Y-73624700D01*
X141475400Y-96275400D02*
X140600000Y-95400000D01*
X136210000Y-94494400D02*
X136210000Y-81430000D01*
%TO.N,PWR_Arduino*%
X124047500Y-95807200D02*
X124780000Y-95074700D01*
X124780000Y-95074700D02*
X124780000Y-79195300D01*
X124780000Y-79195300D02*
X128000000Y-75975300D01*
X128000000Y-74800000D02*
X128000000Y-75975300D01*
X124047500Y-97382500D02*
X124047500Y-95807200D01*
%TO.N,PWR_Raspberry*%
X143587500Y-79132500D02*
X141290000Y-81430000D01*
X143587500Y-74850000D02*
X143587500Y-79132500D01*
X141290000Y-81430000D02*
X138750000Y-81430000D01*
%TD*%
%TA.AperFunction,Conductor*%
%TO.N,GND*%
G36*
X149721014Y-72124013D02*
G01*
X149735849Y-72126323D01*
X149735852Y-72126323D01*
X149744722Y-72127704D01*
X149750497Y-72126949D01*
X149816851Y-72147316D01*
X149862684Y-72201536D01*
X149871148Y-72242877D01*
X149872296Y-72242727D01*
X149876424Y-72274301D01*
X149877487Y-72290635D01*
X149877487Y-99715633D01*
X149875987Y-99735018D01*
X149872296Y-99758724D01*
X149873052Y-99764508D01*
X149852680Y-99830867D01*
X149798459Y-99876699D01*
X149757123Y-99885161D01*
X149757273Y-99886309D01*
X149725699Y-99890437D01*
X149709365Y-99891500D01*
X127849648Y-99891500D01*
X127781527Y-99871498D01*
X127735034Y-99817842D01*
X127724930Y-99747568D01*
X127754424Y-99682988D01*
X127760553Y-99676405D01*
X131191552Y-96245405D01*
X131253864Y-96211379D01*
X131280647Y-96208500D01*
X131635634Y-96208500D01*
X131697816Y-96201745D01*
X131834205Y-96150615D01*
X131950761Y-96063261D01*
X131956295Y-96055877D01*
X132496453Y-96055877D01*
X132501363Y-96062435D01*
X132606504Y-96121198D01*
X132617742Y-96126107D01*
X132803352Y-96186415D01*
X132815326Y-96189048D01*
X133009124Y-96212157D01*
X133021373Y-96212414D01*
X133215967Y-96197441D01*
X133228047Y-96195310D01*
X133416014Y-96142828D01*
X133427447Y-96138394D01*
X133570226Y-96066271D01*
X133580510Y-96056626D01*
X133578272Y-96049982D01*
X133526424Y-95998134D01*
X137541500Y-95998134D01*
X137548255Y-96060316D01*
X137599385Y-96196705D01*
X137686739Y-96313261D01*
X137803295Y-96400615D01*
X137939684Y-96451745D01*
X138001866Y-96458500D01*
X139198134Y-96458500D01*
X139260316Y-96451745D01*
X139396705Y-96400615D01*
X139513261Y-96313261D01*
X139518795Y-96305877D01*
X140058953Y-96305877D01*
X140063863Y-96312435D01*
X140169004Y-96371198D01*
X140180242Y-96376107D01*
X140365852Y-96436415D01*
X140377826Y-96439048D01*
X140571624Y-96462157D01*
X140583873Y-96462414D01*
X140778467Y-96447441D01*
X140790547Y-96445310D01*
X140978514Y-96392828D01*
X140989947Y-96388394D01*
X141132726Y-96316271D01*
X141143010Y-96306626D01*
X141140772Y-96299982D01*
X140838924Y-95998134D01*
X144879000Y-95998134D01*
X144885755Y-96060316D01*
X144936885Y-96196705D01*
X145024239Y-96313261D01*
X145140795Y-96400615D01*
X145277184Y-96451745D01*
X145339366Y-96458500D01*
X146535634Y-96458500D01*
X146597816Y-96451745D01*
X146734205Y-96400615D01*
X146850761Y-96313261D01*
X146856295Y-96305877D01*
X147396453Y-96305877D01*
X147401363Y-96312435D01*
X147506504Y-96371198D01*
X147517742Y-96376107D01*
X147703352Y-96436415D01*
X147715326Y-96439048D01*
X147909124Y-96462157D01*
X147921373Y-96462414D01*
X148115967Y-96447441D01*
X148128047Y-96445310D01*
X148316014Y-96392828D01*
X148327447Y-96388394D01*
X148470226Y-96316271D01*
X148480510Y-96306626D01*
X148478272Y-96299982D01*
X147950312Y-95772022D01*
X147936368Y-95764408D01*
X147934535Y-95764539D01*
X147927920Y-95768790D01*
X147403213Y-96293497D01*
X147396453Y-96305877D01*
X146856295Y-96305877D01*
X146938115Y-96196705D01*
X146989245Y-96060316D01*
X146990098Y-96052464D01*
X146990099Y-96052460D01*
X146993148Y-96024388D01*
X147020390Y-95958825D01*
X147030147Y-95948849D01*
X147029794Y-95948496D01*
X147565478Y-95412812D01*
X147571856Y-95401132D01*
X148301908Y-95401132D01*
X148302039Y-95402965D01*
X148306290Y-95409580D01*
X148830835Y-95934125D01*
X148843215Y-95940885D01*
X148849949Y-95935844D01*
X148905661Y-95837772D01*
X148910655Y-95826556D01*
X148972253Y-95641384D01*
X148974973Y-95629412D01*
X148999763Y-95433186D01*
X149000254Y-95426161D01*
X149000570Y-95403506D01*
X149000277Y-95396511D01*
X148980973Y-95199639D01*
X148978590Y-95187604D01*
X148922183Y-95000777D01*
X148917509Y-94989436D01*
X148853034Y-94868176D01*
X148843174Y-94858095D01*
X148836047Y-94860663D01*
X148309522Y-95387188D01*
X148301908Y-95401132D01*
X147571856Y-95401132D01*
X147573092Y-95398868D01*
X147572961Y-95397035D01*
X147568710Y-95390420D01*
X147030990Y-94852700D01*
X147034236Y-94849454D01*
X147007901Y-94823116D01*
X146993227Y-94776341D01*
X146990098Y-94747540D01*
X146989245Y-94739684D01*
X146938115Y-94603295D01*
X146856238Y-94494047D01*
X147395266Y-94494047D01*
X147397721Y-94501011D01*
X147924688Y-95027978D01*
X147938632Y-95035592D01*
X147940465Y-95035461D01*
X147947080Y-95031210D01*
X148472229Y-94506061D01*
X148478989Y-94493681D01*
X148474330Y-94487458D01*
X148354895Y-94422881D01*
X148343588Y-94418128D01*
X148157156Y-94360417D01*
X148145144Y-94357951D01*
X147951050Y-94337551D01*
X147938782Y-94337466D01*
X147744430Y-94355153D01*
X147732381Y-94357451D01*
X147545158Y-94412554D01*
X147533790Y-94417147D01*
X147405415Y-94484260D01*
X147395266Y-94494047D01*
X146856238Y-94494047D01*
X146850761Y-94486739D01*
X146734205Y-94399385D01*
X146597816Y-94348255D01*
X146535634Y-94341500D01*
X145339366Y-94341500D01*
X145277184Y-94348255D01*
X145140795Y-94399385D01*
X145024239Y-94486739D01*
X144936885Y-94603295D01*
X144885755Y-94739684D01*
X144879000Y-94801866D01*
X144879000Y-95998134D01*
X140838924Y-95998134D01*
X140612812Y-95772022D01*
X140598868Y-95764408D01*
X140597035Y-95764539D01*
X140590420Y-95768790D01*
X140065713Y-96293497D01*
X140058953Y-96305877D01*
X139518795Y-96305877D01*
X139600615Y-96196705D01*
X139651745Y-96060316D01*
X139652598Y-96052464D01*
X139652599Y-96052460D01*
X139655648Y-96024388D01*
X139682890Y-95958825D01*
X139692647Y-95948849D01*
X139692294Y-95948496D01*
X140227978Y-95412812D01*
X140234356Y-95401132D01*
X140964408Y-95401132D01*
X140964539Y-95402965D01*
X140968790Y-95409580D01*
X141493335Y-95934125D01*
X141505715Y-95940885D01*
X141512449Y-95935844D01*
X141568161Y-95837772D01*
X141573155Y-95826556D01*
X141634753Y-95641384D01*
X141637473Y-95629412D01*
X141662263Y-95433186D01*
X141662754Y-95426161D01*
X141663070Y-95403506D01*
X141662777Y-95396511D01*
X141643473Y-95199639D01*
X141641090Y-95187604D01*
X141584683Y-95000777D01*
X141580009Y-94989436D01*
X141515534Y-94868176D01*
X141505674Y-94858095D01*
X141498547Y-94860663D01*
X140972022Y-95387188D01*
X140964408Y-95401132D01*
X140234356Y-95401132D01*
X140235592Y-95398868D01*
X140235461Y-95397035D01*
X140231210Y-95390420D01*
X139693490Y-94852700D01*
X139696736Y-94849454D01*
X139670401Y-94823116D01*
X139655727Y-94776341D01*
X139652598Y-94747540D01*
X139651745Y-94739684D01*
X139600615Y-94603295D01*
X139518738Y-94494047D01*
X140057766Y-94494047D01*
X140060221Y-94501011D01*
X140587188Y-95027978D01*
X140601132Y-95035592D01*
X140602965Y-95035461D01*
X140609580Y-95031210D01*
X141134729Y-94506061D01*
X141141489Y-94493681D01*
X141136830Y-94487458D01*
X141017395Y-94422881D01*
X141006088Y-94418128D01*
X140819656Y-94360417D01*
X140807644Y-94357951D01*
X140613550Y-94337551D01*
X140601282Y-94337466D01*
X140406930Y-94355153D01*
X140394881Y-94357451D01*
X140207658Y-94412554D01*
X140196290Y-94417147D01*
X140067915Y-94484260D01*
X140057766Y-94494047D01*
X139518738Y-94494047D01*
X139513261Y-94486739D01*
X139396705Y-94399385D01*
X139260316Y-94348255D01*
X139198134Y-94341500D01*
X138001866Y-94341500D01*
X137939684Y-94348255D01*
X137803295Y-94399385D01*
X137686739Y-94486739D01*
X137599385Y-94603295D01*
X137548255Y-94739684D01*
X137541500Y-94801866D01*
X137541500Y-95998134D01*
X133526424Y-95998134D01*
X133050312Y-95522022D01*
X133036368Y-95514408D01*
X133034535Y-95514539D01*
X133027920Y-95518790D01*
X132503213Y-96043497D01*
X132496453Y-96055877D01*
X131956295Y-96055877D01*
X132038115Y-95946705D01*
X132089245Y-95810316D01*
X132090098Y-95802464D01*
X132090099Y-95802460D01*
X132093148Y-95774388D01*
X132120390Y-95708825D01*
X132130147Y-95698849D01*
X132129794Y-95698496D01*
X132665478Y-95162812D01*
X132671856Y-95151132D01*
X133401908Y-95151132D01*
X133402039Y-95152965D01*
X133406290Y-95159580D01*
X133930835Y-95684125D01*
X133943215Y-95690885D01*
X133949949Y-95685844D01*
X134005661Y-95587772D01*
X134010655Y-95576556D01*
X134072253Y-95391384D01*
X134074973Y-95379412D01*
X134099763Y-95183186D01*
X134100254Y-95176161D01*
X134100570Y-95153506D01*
X134100277Y-95146511D01*
X134080973Y-94949639D01*
X134078590Y-94937604D01*
X134022183Y-94750777D01*
X134017509Y-94739436D01*
X133953034Y-94618176D01*
X133943174Y-94608095D01*
X133936047Y-94610663D01*
X133409522Y-95137188D01*
X133401908Y-95151132D01*
X132671856Y-95151132D01*
X132673092Y-95148868D01*
X132672961Y-95147035D01*
X132668710Y-95140420D01*
X132130990Y-94602700D01*
X132134236Y-94599454D01*
X132107901Y-94573116D01*
X132093227Y-94526341D01*
X132090098Y-94497540D01*
X132089245Y-94489684D01*
X132038115Y-94353295D01*
X131956238Y-94244047D01*
X132495266Y-94244047D01*
X132497721Y-94251011D01*
X133024688Y-94777978D01*
X133038632Y-94785592D01*
X133040465Y-94785461D01*
X133047080Y-94781210D01*
X133572229Y-94256061D01*
X133578989Y-94243681D01*
X133574330Y-94237458D01*
X133454895Y-94172881D01*
X133443588Y-94168128D01*
X133257156Y-94110417D01*
X133245144Y-94107951D01*
X133051050Y-94087551D01*
X133038782Y-94087466D01*
X132844430Y-94105153D01*
X132832381Y-94107451D01*
X132645158Y-94162554D01*
X132633790Y-94167147D01*
X132505415Y-94234260D01*
X132495266Y-94244047D01*
X131956238Y-94244047D01*
X131950761Y-94236739D01*
X131834205Y-94149385D01*
X131697816Y-94098255D01*
X131635634Y-94091500D01*
X131280648Y-94091500D01*
X131212527Y-94071498D01*
X131191553Y-94054595D01*
X126970405Y-89833447D01*
X126936379Y-89771135D01*
X126933500Y-89744352D01*
X126933500Y-82591406D01*
X127793423Y-82591406D01*
X127798704Y-82598461D01*
X127975080Y-82701527D01*
X127984363Y-82705974D01*
X128191003Y-82784883D01*
X128200901Y-82787759D01*
X128417653Y-82831857D01*
X128427883Y-82833076D01*
X128648914Y-82841182D01*
X128659223Y-82840714D01*
X128878623Y-82812608D01*
X128888688Y-82810468D01*
X129100557Y-82746905D01*
X129110152Y-82743144D01*
X129308778Y-82645838D01*
X129317636Y-82640559D01*
X129375097Y-82599572D01*
X129381509Y-82591406D01*
X130333423Y-82591406D01*
X130338704Y-82598461D01*
X130515080Y-82701527D01*
X130524363Y-82705974D01*
X130731003Y-82784883D01*
X130740901Y-82787759D01*
X130957653Y-82831857D01*
X130967883Y-82833076D01*
X131188914Y-82841182D01*
X131199223Y-82840714D01*
X131418623Y-82812608D01*
X131428688Y-82810468D01*
X131640557Y-82746905D01*
X131650152Y-82743144D01*
X131848778Y-82645838D01*
X131857636Y-82640559D01*
X131915097Y-82599572D01*
X131921509Y-82591406D01*
X132873423Y-82591406D01*
X132878704Y-82598461D01*
X133055080Y-82701527D01*
X133064363Y-82705974D01*
X133271003Y-82784883D01*
X133280901Y-82787759D01*
X133497653Y-82831857D01*
X133507883Y-82833076D01*
X133728914Y-82841182D01*
X133739223Y-82840714D01*
X133958623Y-82812608D01*
X133968688Y-82810468D01*
X134180557Y-82746905D01*
X134190152Y-82743144D01*
X134388778Y-82645838D01*
X134397636Y-82640559D01*
X134455097Y-82599572D01*
X134461509Y-82591406D01*
X135413423Y-82591406D01*
X135418704Y-82598461D01*
X135595080Y-82701527D01*
X135604363Y-82705974D01*
X135811003Y-82784883D01*
X135820901Y-82787759D01*
X136037653Y-82831857D01*
X136047883Y-82833076D01*
X136268914Y-82841182D01*
X136279223Y-82840714D01*
X136498623Y-82812608D01*
X136508688Y-82810468D01*
X136720557Y-82746905D01*
X136730152Y-82743144D01*
X136928778Y-82645838D01*
X136937636Y-82640559D01*
X136995097Y-82599572D01*
X137003497Y-82588874D01*
X136996510Y-82575721D01*
X136222811Y-81802021D01*
X136208868Y-81794408D01*
X136207034Y-81794539D01*
X136200420Y-81798790D01*
X135420180Y-82579031D01*
X135413423Y-82591406D01*
X134461509Y-82591406D01*
X134463497Y-82588874D01*
X134456510Y-82575721D01*
X133682811Y-81802021D01*
X133668868Y-81794408D01*
X133667034Y-81794539D01*
X133660420Y-81798790D01*
X132880180Y-82579031D01*
X132873423Y-82591406D01*
X131921509Y-82591406D01*
X131923497Y-82588874D01*
X131916510Y-82575721D01*
X131142811Y-81802021D01*
X131128868Y-81794408D01*
X131127034Y-81794539D01*
X131120420Y-81798790D01*
X130340180Y-82579031D01*
X130333423Y-82591406D01*
X129381509Y-82591406D01*
X129383497Y-82588874D01*
X129376510Y-82575721D01*
X128602811Y-81802021D01*
X128588868Y-81794408D01*
X128587034Y-81794539D01*
X128580420Y-81798790D01*
X127800180Y-82579031D01*
X127793423Y-82591406D01*
X126933500Y-82591406D01*
X126933500Y-82590457D01*
X126953502Y-82522336D01*
X126970560Y-82501206D01*
X127024238Y-82447715D01*
X127126303Y-82346005D01*
X127217275Y-82219404D01*
X127273270Y-82175756D01*
X127343973Y-82169310D01*
X127406938Y-82202113D01*
X127412142Y-82208584D01*
X127430553Y-82225242D01*
X127439331Y-82221458D01*
X128217979Y-81442811D01*
X128224356Y-81431132D01*
X128954408Y-81431132D01*
X128954539Y-81432966D01*
X128958790Y-81439580D01*
X129736307Y-82217096D01*
X129748313Y-82223652D01*
X129774948Y-82203304D01*
X129775734Y-82204333D01*
X129812987Y-82175294D01*
X129883690Y-82168848D01*
X129946655Y-82201651D01*
X129952468Y-82208879D01*
X129970553Y-82225242D01*
X129979331Y-82221458D01*
X130757979Y-81442811D01*
X130764356Y-81431132D01*
X131494408Y-81431132D01*
X131494539Y-81432966D01*
X131498790Y-81439580D01*
X132276307Y-82217096D01*
X132288313Y-82223652D01*
X132314948Y-82203304D01*
X132315734Y-82204333D01*
X132352987Y-82175294D01*
X132423690Y-82168848D01*
X132486655Y-82201651D01*
X132492468Y-82208879D01*
X132510553Y-82225242D01*
X132519331Y-82221458D01*
X133297979Y-81442811D01*
X133304356Y-81431132D01*
X134034408Y-81431132D01*
X134034539Y-81432966D01*
X134038790Y-81439580D01*
X134816307Y-82217096D01*
X134828313Y-82223652D01*
X134854948Y-82203304D01*
X134855734Y-82204333D01*
X134892987Y-82175294D01*
X134963690Y-82168848D01*
X135026655Y-82201651D01*
X135032468Y-82208879D01*
X135050553Y-82225242D01*
X135059331Y-82221458D01*
X135837979Y-81442811D01*
X135844356Y-81431132D01*
X136574408Y-81431132D01*
X136574539Y-81432966D01*
X136578790Y-81439580D01*
X137356307Y-82217096D01*
X137368313Y-82223652D01*
X137394948Y-82203304D01*
X137395827Y-82204454D01*
X137432672Y-82175734D01*
X137503376Y-82169289D01*
X137566340Y-82202092D01*
X137586432Y-82227074D01*
X137606800Y-82260313D01*
X137606806Y-82260321D01*
X137609501Y-82264719D01*
X137761147Y-82439784D01*
X137939349Y-82587730D01*
X138139322Y-82704584D01*
X138355694Y-82787209D01*
X138360760Y-82788240D01*
X138360761Y-82788240D01*
X138398520Y-82795922D01*
X138582656Y-82833385D01*
X138712089Y-82838131D01*
X138808949Y-82841683D01*
X138808953Y-82841683D01*
X138814113Y-82841872D01*
X138819233Y-82841216D01*
X138819235Y-82841216D01*
X138893166Y-82831745D01*
X139043847Y-82812442D01*
X139048795Y-82810957D01*
X139048802Y-82810956D01*
X139260747Y-82747369D01*
X139265690Y-82745886D01*
X139347161Y-82705974D01*
X139469049Y-82646262D01*
X139469052Y-82646260D01*
X139473684Y-82643991D01*
X139662243Y-82509494D01*
X139826303Y-82346005D01*
X139829319Y-82341808D01*
X139829326Y-82341800D01*
X139916960Y-82219844D01*
X139972954Y-82176196D01*
X140043658Y-82169750D01*
X140106622Y-82202553D01*
X140126715Y-82227536D01*
X140146800Y-82260313D01*
X140146806Y-82260321D01*
X140149501Y-82264719D01*
X140301147Y-82439784D01*
X140479349Y-82587730D01*
X140679322Y-82704584D01*
X140895694Y-82787209D01*
X140900760Y-82788240D01*
X140900761Y-82788240D01*
X140938520Y-82795922D01*
X141122656Y-82833385D01*
X141252089Y-82838131D01*
X141348949Y-82841683D01*
X141348953Y-82841683D01*
X141354113Y-82841872D01*
X141359233Y-82841216D01*
X141359235Y-82841216D01*
X141433166Y-82831745D01*
X141583847Y-82812442D01*
X141588795Y-82810957D01*
X141588802Y-82810956D01*
X141800747Y-82747369D01*
X141805690Y-82745886D01*
X141887161Y-82705974D01*
X142009049Y-82646262D01*
X142009052Y-82646260D01*
X142013684Y-82643991D01*
X142202243Y-82509494D01*
X142366303Y-82346005D01*
X142369319Y-82341808D01*
X142369326Y-82341800D01*
X142456960Y-82219844D01*
X142512954Y-82176196D01*
X142583658Y-82169750D01*
X142646622Y-82202553D01*
X142666715Y-82227536D01*
X142686800Y-82260313D01*
X142686806Y-82260321D01*
X142689501Y-82264719D01*
X142841147Y-82439784D01*
X143019349Y-82587730D01*
X143219322Y-82704584D01*
X143435694Y-82787209D01*
X143440760Y-82788240D01*
X143440761Y-82788240D01*
X143478520Y-82795922D01*
X143662656Y-82833385D01*
X143792089Y-82838131D01*
X143888949Y-82841683D01*
X143888953Y-82841683D01*
X143894113Y-82841872D01*
X143899233Y-82841216D01*
X143899235Y-82841216D01*
X143973166Y-82831745D01*
X144123847Y-82812442D01*
X144128795Y-82810957D01*
X144128802Y-82810956D01*
X144340747Y-82747369D01*
X144345690Y-82745886D01*
X144427161Y-82705974D01*
X144549049Y-82646262D01*
X144549052Y-82646260D01*
X144553684Y-82643991D01*
X144742243Y-82509494D01*
X144906303Y-82346005D01*
X144909319Y-82341808D01*
X144909326Y-82341800D01*
X144996960Y-82219844D01*
X145052954Y-82176196D01*
X145123658Y-82169750D01*
X145186622Y-82202553D01*
X145206715Y-82227536D01*
X145226800Y-82260313D01*
X145226806Y-82260321D01*
X145229501Y-82264719D01*
X145381147Y-82439784D01*
X145559349Y-82587730D01*
X145759322Y-82704584D01*
X145975694Y-82787209D01*
X145980760Y-82788240D01*
X145980761Y-82788240D01*
X146018520Y-82795922D01*
X146202656Y-82833385D01*
X146332089Y-82838131D01*
X146428949Y-82841683D01*
X146428953Y-82841683D01*
X146434113Y-82841872D01*
X146439233Y-82841216D01*
X146439235Y-82841216D01*
X146513166Y-82831745D01*
X146663847Y-82812442D01*
X146668795Y-82810957D01*
X146668802Y-82810956D01*
X146880747Y-82747369D01*
X146885690Y-82745886D01*
X146967161Y-82705974D01*
X147089049Y-82646262D01*
X147089052Y-82646260D01*
X147093684Y-82643991D01*
X147282243Y-82509494D01*
X147446303Y-82346005D01*
X147581458Y-82157917D01*
X147684078Y-81950280D01*
X147751408Y-81728671D01*
X147781640Y-81499041D01*
X147783327Y-81430000D01*
X147777032Y-81353434D01*
X147764773Y-81204318D01*
X147764772Y-81204312D01*
X147764349Y-81199167D01*
X147730797Y-81065592D01*
X147709184Y-80979544D01*
X147709183Y-80979540D01*
X147707925Y-80974533D01*
X147693771Y-80941981D01*
X147617630Y-80766868D01*
X147617628Y-80766865D01*
X147615570Y-80762131D01*
X147489764Y-80567665D01*
X147333887Y-80396358D01*
X147329836Y-80393159D01*
X147329832Y-80393155D01*
X147156177Y-80256011D01*
X147156172Y-80256008D01*
X147152123Y-80252810D01*
X147147607Y-80250317D01*
X147147604Y-80250315D01*
X146953879Y-80143373D01*
X146953875Y-80143371D01*
X146949355Y-80140876D01*
X146944486Y-80139152D01*
X146944482Y-80139150D01*
X146735903Y-80065288D01*
X146735899Y-80065287D01*
X146731028Y-80063562D01*
X146725935Y-80062655D01*
X146725932Y-80062654D01*
X146508095Y-80023851D01*
X146508089Y-80023850D01*
X146503006Y-80022945D01*
X146430096Y-80022054D01*
X146276581Y-80020179D01*
X146276579Y-80020179D01*
X146271411Y-80020116D01*
X146042464Y-80055150D01*
X145822314Y-80127106D01*
X145817726Y-80129494D01*
X145817722Y-80129496D01*
X145621461Y-80231663D01*
X145616872Y-80234052D01*
X145612739Y-80237155D01*
X145612736Y-80237157D01*
X145540088Y-80291703D01*
X145431655Y-80373117D01*
X145271639Y-80540564D01*
X145204306Y-80639271D01*
X145149397Y-80684271D01*
X145078872Y-80692442D01*
X145015125Y-80661188D01*
X144994428Y-80636705D01*
X144952571Y-80572004D01*
X144949764Y-80567665D01*
X144793887Y-80396358D01*
X144789836Y-80393159D01*
X144789832Y-80393155D01*
X144616177Y-80256011D01*
X144616172Y-80256008D01*
X144612123Y-80252810D01*
X144607607Y-80250317D01*
X144607604Y-80250315D01*
X144413879Y-80143373D01*
X144413875Y-80143371D01*
X144409355Y-80140876D01*
X144404486Y-80139152D01*
X144404482Y-80139150D01*
X144195903Y-80065288D01*
X144195899Y-80065287D01*
X144191028Y-80063562D01*
X144185935Y-80062655D01*
X144185932Y-80062654D01*
X143968095Y-80023851D01*
X143968089Y-80023850D01*
X143963006Y-80022945D01*
X143896414Y-80022132D01*
X143828543Y-80001299D01*
X143782709Y-79947080D01*
X143773464Y-79876688D01*
X143803743Y-79812472D01*
X143808858Y-79807046D01*
X143979747Y-79636157D01*
X143988037Y-79628613D01*
X143994518Y-79624500D01*
X144041159Y-79574832D01*
X144043913Y-79571991D01*
X144063635Y-79552269D01*
X144066112Y-79549076D01*
X144073817Y-79540055D01*
X144098659Y-79513600D01*
X144104086Y-79507821D01*
X144107907Y-79500871D01*
X144113846Y-79490068D01*
X144124702Y-79473541D01*
X144132257Y-79463802D01*
X144132258Y-79463800D01*
X144137114Y-79457540D01*
X144154674Y-79416960D01*
X144159891Y-79406312D01*
X144177375Y-79374509D01*
X144177376Y-79374507D01*
X144181195Y-79367560D01*
X144186233Y-79347937D01*
X144192637Y-79329234D01*
X144197533Y-79317920D01*
X144197533Y-79317919D01*
X144200681Y-79310645D01*
X144201920Y-79302822D01*
X144201923Y-79302812D01*
X144207599Y-79266976D01*
X144210005Y-79255356D01*
X144219028Y-79220211D01*
X144219028Y-79220210D01*
X144221000Y-79212530D01*
X144221000Y-79192276D01*
X144222551Y-79172565D01*
X144224480Y-79160386D01*
X144225720Y-79152557D01*
X144221559Y-79108538D01*
X144221000Y-79096681D01*
X144221000Y-75999126D01*
X144241002Y-75931005D01*
X144294658Y-75884512D01*
X144302770Y-75881144D01*
X144375797Y-75853767D01*
X144384205Y-75850615D01*
X144500761Y-75763261D01*
X144506295Y-75755877D01*
X145046453Y-75755877D01*
X145051363Y-75762435D01*
X145156504Y-75821198D01*
X145167742Y-75826107D01*
X145353352Y-75886415D01*
X145365326Y-75889048D01*
X145559124Y-75912157D01*
X145571373Y-75912414D01*
X145765967Y-75897441D01*
X145778047Y-75895310D01*
X145966014Y-75842828D01*
X145977447Y-75838394D01*
X146120226Y-75766271D01*
X146130510Y-75756626D01*
X146128272Y-75749982D01*
X145600312Y-75222022D01*
X145586368Y-75214408D01*
X145584535Y-75214539D01*
X145577920Y-75218790D01*
X145053213Y-75743497D01*
X145046453Y-75755877D01*
X144506295Y-75755877D01*
X144588115Y-75646705D01*
X144639245Y-75510316D01*
X144640098Y-75502464D01*
X144640099Y-75502460D01*
X144643148Y-75474388D01*
X144670390Y-75408825D01*
X144680147Y-75398849D01*
X144679794Y-75398496D01*
X145215478Y-74862812D01*
X145221856Y-74851132D01*
X145951908Y-74851132D01*
X145952039Y-74852965D01*
X145956290Y-74859580D01*
X146480835Y-75384125D01*
X146493215Y-75390885D01*
X146499949Y-75385844D01*
X146555661Y-75287772D01*
X146560655Y-75276556D01*
X146622253Y-75091384D01*
X146624973Y-75079412D01*
X146649763Y-74883186D01*
X146650254Y-74876161D01*
X146650570Y-74853506D01*
X146650277Y-74846511D01*
X146630973Y-74649639D01*
X146628590Y-74637604D01*
X146572183Y-74450777D01*
X146567509Y-74439436D01*
X146503034Y-74318176D01*
X146493174Y-74308095D01*
X146486047Y-74310663D01*
X145959522Y-74837188D01*
X145951908Y-74851132D01*
X145221856Y-74851132D01*
X145223092Y-74848868D01*
X145222961Y-74847035D01*
X145218710Y-74840420D01*
X144680990Y-74302700D01*
X144684236Y-74299454D01*
X144657901Y-74273116D01*
X144643227Y-74226341D01*
X144640098Y-74197540D01*
X144639245Y-74189684D01*
X144588115Y-74053295D01*
X144506238Y-73944047D01*
X145045266Y-73944047D01*
X145047721Y-73951011D01*
X145574688Y-74477978D01*
X145588632Y-74485592D01*
X145590465Y-74485461D01*
X145597080Y-74481210D01*
X146122229Y-73956061D01*
X146128989Y-73943681D01*
X146124330Y-73937458D01*
X146004895Y-73872881D01*
X145993588Y-73868128D01*
X145807156Y-73810417D01*
X145795144Y-73807951D01*
X145601050Y-73787551D01*
X145588782Y-73787466D01*
X145394430Y-73805153D01*
X145382381Y-73807451D01*
X145195158Y-73862554D01*
X145183790Y-73867147D01*
X145055415Y-73934260D01*
X145045266Y-73944047D01*
X144506238Y-73944047D01*
X144500761Y-73936739D01*
X144384205Y-73849385D01*
X144247816Y-73798255D01*
X144185634Y-73791500D01*
X142989366Y-73791500D01*
X142927184Y-73798255D01*
X142790795Y-73849385D01*
X142674239Y-73936739D01*
X142586885Y-74053295D01*
X142535755Y-74189684D01*
X142529000Y-74251866D01*
X142529000Y-75448134D01*
X142535755Y-75510316D01*
X142586885Y-75646705D01*
X142674239Y-75763261D01*
X142790795Y-75850615D01*
X142799203Y-75853767D01*
X142872230Y-75881144D01*
X142928994Y-75923786D01*
X142953694Y-75990348D01*
X142954000Y-75999126D01*
X142954000Y-78817906D01*
X142933998Y-78886027D01*
X142917095Y-78907001D01*
X141788112Y-80035983D01*
X141725800Y-80070009D01*
X141661087Y-80065924D01*
X141660906Y-80066610D01*
X141657437Y-80065694D01*
X141656967Y-80065664D01*
X141655914Y-80065291D01*
X141655900Y-80065287D01*
X141651028Y-80063562D01*
X141645935Y-80062655D01*
X141645932Y-80062654D01*
X141428095Y-80023851D01*
X141428089Y-80023850D01*
X141423006Y-80022945D01*
X141350096Y-80022054D01*
X141196581Y-80020179D01*
X141196579Y-80020179D01*
X141191411Y-80020116D01*
X140962464Y-80055150D01*
X140742314Y-80127106D01*
X140737726Y-80129494D01*
X140737722Y-80129496D01*
X140541461Y-80231663D01*
X140536872Y-80234052D01*
X140532739Y-80237155D01*
X140532736Y-80237157D01*
X140460088Y-80291703D01*
X140351655Y-80373117D01*
X140191639Y-80540564D01*
X140124306Y-80639271D01*
X140069397Y-80684271D01*
X139998872Y-80692442D01*
X139935125Y-80661188D01*
X139914428Y-80636705D01*
X139872571Y-80572004D01*
X139869764Y-80567665D01*
X139713887Y-80396358D01*
X139709836Y-80393159D01*
X139709832Y-80393155D01*
X139536177Y-80256011D01*
X139536172Y-80256008D01*
X139532123Y-80252810D01*
X139527607Y-80250317D01*
X139527604Y-80250315D01*
X139333879Y-80143373D01*
X139333875Y-80143371D01*
X139329355Y-80140876D01*
X139324486Y-80139152D01*
X139324482Y-80139150D01*
X139115903Y-80065288D01*
X139115899Y-80065287D01*
X139111028Y-80063562D01*
X139105935Y-80062655D01*
X139105932Y-80062654D01*
X138888095Y-80023851D01*
X138888089Y-80023850D01*
X138883006Y-80022945D01*
X138810096Y-80022054D01*
X138656581Y-80020179D01*
X138656579Y-80020179D01*
X138651411Y-80020116D01*
X138422464Y-80055150D01*
X138202314Y-80127106D01*
X138197726Y-80129494D01*
X138197722Y-80129496D01*
X138001461Y-80231663D01*
X137996872Y-80234052D01*
X137992739Y-80237155D01*
X137992736Y-80237157D01*
X137920088Y-80291703D01*
X137811655Y-80373117D01*
X137651639Y-80540564D01*
X137648730Y-80544829D01*
X137648728Y-80544832D01*
X137584002Y-80639716D01*
X137529090Y-80684718D01*
X137458565Y-80692889D01*
X137394819Y-80661634D01*
X137384979Y-80649994D01*
X137368538Y-80635835D01*
X137358973Y-80640238D01*
X136582021Y-81417189D01*
X136574408Y-81431132D01*
X135844356Y-81431132D01*
X135845592Y-81428868D01*
X135845461Y-81427034D01*
X135841210Y-81420420D01*
X135063862Y-80643073D01*
X135052330Y-80636776D01*
X135024674Y-80658444D01*
X135023628Y-80657109D01*
X134989380Y-80685175D01*
X134918855Y-80693344D01*
X134855109Y-80662087D01*
X134844642Y-80649704D01*
X134828538Y-80635835D01*
X134818973Y-80640238D01*
X134042021Y-81417189D01*
X134034408Y-81431132D01*
X133304356Y-81431132D01*
X133305592Y-81428868D01*
X133305461Y-81427034D01*
X133301210Y-81420420D01*
X132523862Y-80643073D01*
X132512330Y-80636776D01*
X132484674Y-80658444D01*
X132483628Y-80657109D01*
X132449380Y-80685175D01*
X132378855Y-80693344D01*
X132315109Y-80662087D01*
X132304642Y-80649704D01*
X132288538Y-80635835D01*
X132278973Y-80640238D01*
X131502021Y-81417189D01*
X131494408Y-81431132D01*
X130764356Y-81431132D01*
X130765592Y-81428868D01*
X130765461Y-81427034D01*
X130761210Y-81420420D01*
X129983862Y-80643073D01*
X129972330Y-80636776D01*
X129944674Y-80658444D01*
X129943628Y-80657109D01*
X129909380Y-80685175D01*
X129838855Y-80693344D01*
X129775109Y-80662087D01*
X129764642Y-80649704D01*
X129748538Y-80635835D01*
X129738973Y-80640238D01*
X128962021Y-81417189D01*
X128954408Y-81431132D01*
X128224356Y-81431132D01*
X128225592Y-81428868D01*
X128225461Y-81427034D01*
X128221210Y-81420420D01*
X127443862Y-80643073D01*
X127432330Y-80636776D01*
X127404674Y-80658444D01*
X127403534Y-80656989D01*
X127369695Y-80684724D01*
X127299171Y-80692898D01*
X127235422Y-80661646D01*
X127214722Y-80637159D01*
X127172575Y-80572009D01*
X127172570Y-80572003D01*
X127169764Y-80567665D01*
X127013887Y-80396358D01*
X127009836Y-80393159D01*
X127009832Y-80393155D01*
X126854790Y-80270711D01*
X127795508Y-80270711D01*
X127802251Y-80283040D01*
X128577189Y-81057979D01*
X128591132Y-81065592D01*
X128592966Y-81065461D01*
X128599580Y-81061210D01*
X129378994Y-80281795D01*
X129385046Y-80270711D01*
X130335508Y-80270711D01*
X130342251Y-80283040D01*
X131117189Y-81057979D01*
X131131132Y-81065592D01*
X131132966Y-81065461D01*
X131139580Y-81061210D01*
X131918994Y-80281795D01*
X131925046Y-80270711D01*
X132875508Y-80270711D01*
X132882251Y-80283040D01*
X133657189Y-81057979D01*
X133671132Y-81065592D01*
X133672966Y-81065461D01*
X133679580Y-81061210D01*
X134458994Y-80281795D01*
X134465046Y-80270711D01*
X135415508Y-80270711D01*
X135422251Y-80283040D01*
X136197189Y-81057979D01*
X136211132Y-81065592D01*
X136212966Y-81065461D01*
X136219580Y-81061210D01*
X136998994Y-80281795D01*
X137006011Y-80268944D01*
X136998237Y-80258274D01*
X136995902Y-80256430D01*
X136987320Y-80250729D01*
X136793678Y-80143833D01*
X136784272Y-80139606D01*
X136575772Y-80065772D01*
X136565809Y-80063140D01*
X136348047Y-80024350D01*
X136337796Y-80023381D01*
X136116616Y-80020679D01*
X136106332Y-80021399D01*
X135887693Y-80054855D01*
X135877666Y-80057244D01*
X135667426Y-80125961D01*
X135657916Y-80129958D01*
X135461725Y-80232089D01*
X135453007Y-80237578D01*
X135423961Y-80259386D01*
X135415508Y-80270711D01*
X134465046Y-80270711D01*
X134466011Y-80268944D01*
X134458237Y-80258274D01*
X134455902Y-80256430D01*
X134447320Y-80250729D01*
X134253678Y-80143833D01*
X134244272Y-80139606D01*
X134035772Y-80065772D01*
X134025809Y-80063140D01*
X133808047Y-80024350D01*
X133797796Y-80023381D01*
X133576616Y-80020679D01*
X133566332Y-80021399D01*
X133347693Y-80054855D01*
X133337666Y-80057244D01*
X133127426Y-80125961D01*
X133117916Y-80129958D01*
X132921725Y-80232089D01*
X132913007Y-80237578D01*
X132883961Y-80259386D01*
X132875508Y-80270711D01*
X131925046Y-80270711D01*
X131926011Y-80268944D01*
X131918237Y-80258274D01*
X131915902Y-80256430D01*
X131907320Y-80250729D01*
X131713678Y-80143833D01*
X131704272Y-80139606D01*
X131495772Y-80065772D01*
X131485809Y-80063140D01*
X131268047Y-80024350D01*
X131257796Y-80023381D01*
X131036616Y-80020679D01*
X131026332Y-80021399D01*
X130807693Y-80054855D01*
X130797666Y-80057244D01*
X130587426Y-80125961D01*
X130577916Y-80129958D01*
X130381725Y-80232089D01*
X130373007Y-80237578D01*
X130343961Y-80259386D01*
X130335508Y-80270711D01*
X129385046Y-80270711D01*
X129386011Y-80268944D01*
X129378237Y-80258274D01*
X129375902Y-80256430D01*
X129367320Y-80250729D01*
X129173678Y-80143833D01*
X129164272Y-80139606D01*
X128955772Y-80065772D01*
X128945809Y-80063140D01*
X128728047Y-80024350D01*
X128717796Y-80023381D01*
X128496616Y-80020679D01*
X128486332Y-80021399D01*
X128267693Y-80054855D01*
X128257666Y-80057244D01*
X128047426Y-80125961D01*
X128037916Y-80129958D01*
X127841725Y-80232089D01*
X127833007Y-80237578D01*
X127803961Y-80259386D01*
X127795508Y-80270711D01*
X126854790Y-80270711D01*
X126836177Y-80256011D01*
X126836172Y-80256008D01*
X126832123Y-80252810D01*
X126827607Y-80250317D01*
X126827604Y-80250315D01*
X126633879Y-80143373D01*
X126633875Y-80143371D01*
X126629355Y-80140876D01*
X126624486Y-80139152D01*
X126624482Y-80139150D01*
X126415903Y-80065288D01*
X126415899Y-80065287D01*
X126411028Y-80063562D01*
X126405935Y-80062655D01*
X126405932Y-80062654D01*
X126188095Y-80023851D01*
X126188089Y-80023850D01*
X126183006Y-80022945D01*
X126110096Y-80022054D01*
X125956581Y-80020179D01*
X125956579Y-80020179D01*
X125951411Y-80020116D01*
X125722464Y-80055150D01*
X125619520Y-80088797D01*
X125578645Y-80102157D01*
X125507681Y-80104308D01*
X125446819Y-80067752D01*
X125415383Y-80004094D01*
X125413500Y-79982392D01*
X125413500Y-79509894D01*
X125433502Y-79441773D01*
X125450405Y-79420799D01*
X128392247Y-76478957D01*
X128400537Y-76471413D01*
X128407018Y-76467300D01*
X128453659Y-76417632D01*
X128456413Y-76414791D01*
X128476135Y-76395069D01*
X128478612Y-76391876D01*
X128486317Y-76382855D01*
X128511159Y-76356400D01*
X128516586Y-76350621D01*
X128520407Y-76343671D01*
X128526346Y-76332868D01*
X128537202Y-76316341D01*
X128544757Y-76306602D01*
X128544758Y-76306600D01*
X128549614Y-76300340D01*
X128567174Y-76259760D01*
X128572391Y-76249111D01*
X128582133Y-76231392D01*
X128586308Y-76223797D01*
X128636654Y-76173740D01*
X128696722Y-76158500D01*
X128898134Y-76158500D01*
X128960316Y-76151745D01*
X129096705Y-76100615D01*
X129213261Y-76013261D01*
X129300615Y-75896705D01*
X129328589Y-75822084D01*
X129344798Y-75778848D01*
X129387440Y-75722084D01*
X129454001Y-75697384D01*
X129523350Y-75712592D01*
X129558017Y-75740580D01*
X129583218Y-75769673D01*
X129590580Y-75776883D01*
X129754434Y-75912916D01*
X129762881Y-75918831D01*
X129946756Y-76026279D01*
X129956042Y-76030729D01*
X130155001Y-76106703D01*
X130164899Y-76109579D01*
X130268250Y-76130606D01*
X130282299Y-76129410D01*
X130286000Y-76119065D01*
X130286000Y-76118517D01*
X130794000Y-76118517D01*
X130798064Y-76132359D01*
X130811478Y-76134393D01*
X130818184Y-76133534D01*
X130828262Y-76131392D01*
X131032255Y-76070191D01*
X131041842Y-76066433D01*
X131233095Y-75972739D01*
X131241945Y-75967464D01*
X131415328Y-75843792D01*
X131423200Y-75837139D01*
X131574052Y-75686812D01*
X131580730Y-75678965D01*
X131708022Y-75501819D01*
X131709279Y-75502722D01*
X131756373Y-75459362D01*
X131826311Y-75447145D01*
X131891751Y-75474678D01*
X131919579Y-75506511D01*
X131979987Y-75605088D01*
X132126250Y-75773938D01*
X132298126Y-75916632D01*
X132491000Y-76029338D01*
X132699692Y-76109030D01*
X132704760Y-76110061D01*
X132704763Y-76110062D01*
X132759494Y-76121197D01*
X132918597Y-76153567D01*
X132923772Y-76153757D01*
X132923774Y-76153757D01*
X133136673Y-76161564D01*
X133136677Y-76161564D01*
X133141837Y-76161753D01*
X133146957Y-76161097D01*
X133146959Y-76161097D01*
X133358288Y-76134025D01*
X133358289Y-76134025D01*
X133363416Y-76133368D01*
X133368366Y-76131883D01*
X133572429Y-76070661D01*
X133572434Y-76070659D01*
X133577384Y-76069174D01*
X133777994Y-75970896D01*
X133959860Y-75841173D01*
X134118096Y-75683489D01*
X134248453Y-75502077D01*
X134249640Y-75502930D01*
X134296960Y-75459362D01*
X134366897Y-75447145D01*
X134432338Y-75474678D01*
X134460166Y-75506511D01*
X134517694Y-75600388D01*
X134523777Y-75608699D01*
X134663213Y-75769667D01*
X134670580Y-75776883D01*
X134834434Y-75912916D01*
X134842881Y-75918831D01*
X135026756Y-76026279D01*
X135036042Y-76030729D01*
X135235001Y-76106703D01*
X135244899Y-76109579D01*
X135348250Y-76130606D01*
X135362299Y-76129410D01*
X135366000Y-76119065D01*
X135366000Y-76118517D01*
X135874000Y-76118517D01*
X135878064Y-76132359D01*
X135891478Y-76134393D01*
X135898184Y-76133534D01*
X135908262Y-76131392D01*
X136112255Y-76070191D01*
X136121842Y-76066433D01*
X136313095Y-75972739D01*
X136321945Y-75967464D01*
X136495328Y-75843792D01*
X136503200Y-75837139D01*
X136654052Y-75686812D01*
X136660730Y-75678965D01*
X136785003Y-75506020D01*
X136790313Y-75497183D01*
X136884670Y-75306267D01*
X136888469Y-75296672D01*
X136950377Y-75092910D01*
X136952555Y-75082837D01*
X136953986Y-75071962D01*
X136951775Y-75057778D01*
X136938617Y-75054000D01*
X135892115Y-75054000D01*
X135876876Y-75058475D01*
X135875671Y-75059865D01*
X135874000Y-75067548D01*
X135874000Y-76118517D01*
X135366000Y-76118517D01*
X135366000Y-74527885D01*
X135874000Y-74527885D01*
X135878475Y-74543124D01*
X135879865Y-74544329D01*
X135887548Y-74546000D01*
X136938344Y-74546000D01*
X136951875Y-74542027D01*
X136953180Y-74532947D01*
X136911214Y-74365875D01*
X136907894Y-74356124D01*
X136822972Y-74160814D01*
X136818105Y-74151739D01*
X136702426Y-73972926D01*
X136696136Y-73964757D01*
X136552806Y-73807240D01*
X136545273Y-73800215D01*
X136378139Y-73668222D01*
X136369552Y-73662517D01*
X136183117Y-73559599D01*
X136173705Y-73555369D01*
X135972959Y-73484280D01*
X135962988Y-73481646D01*
X135891837Y-73468972D01*
X135878540Y-73470432D01*
X135874000Y-73484989D01*
X135874000Y-74527885D01*
X135366000Y-74527885D01*
X135366000Y-73483102D01*
X135362082Y-73469758D01*
X135347806Y-73467771D01*
X135309324Y-73473660D01*
X135299288Y-73476051D01*
X135096868Y-73542212D01*
X135087359Y-73546209D01*
X134898463Y-73644542D01*
X134889738Y-73650036D01*
X134719433Y-73777905D01*
X134711726Y-73784748D01*
X134564590Y-73938717D01*
X134558109Y-73946722D01*
X134453498Y-74100074D01*
X134398587Y-74145076D01*
X134328062Y-74153247D01*
X134264315Y-74121993D01*
X134243618Y-74097509D01*
X134162822Y-73972617D01*
X134162820Y-73972614D01*
X134160014Y-73968277D01*
X134009670Y-73803051D01*
X134005619Y-73799852D01*
X134005615Y-73799848D01*
X133838414Y-73667800D01*
X133838410Y-73667798D01*
X133834359Y-73664598D01*
X133825304Y-73659599D01*
X133716225Y-73599385D01*
X133638789Y-73556638D01*
X133633920Y-73554914D01*
X133633916Y-73554912D01*
X133433087Y-73483795D01*
X133433083Y-73483794D01*
X133428212Y-73482069D01*
X133423119Y-73481162D01*
X133423116Y-73481161D01*
X133213373Y-73443800D01*
X133213367Y-73443799D01*
X133208284Y-73442894D01*
X133134452Y-73441992D01*
X132990081Y-73440228D01*
X132990079Y-73440228D01*
X132984911Y-73440165D01*
X132764091Y-73473955D01*
X132551756Y-73543357D01*
X132493545Y-73573660D01*
X132361858Y-73642212D01*
X132353607Y-73646507D01*
X132349474Y-73649610D01*
X132349471Y-73649612D01*
X132179100Y-73777530D01*
X132174965Y-73780635D01*
X132171393Y-73784373D01*
X132030931Y-73931358D01*
X132020629Y-73942138D01*
X132017715Y-73946410D01*
X132017714Y-73946411D01*
X131979885Y-74001866D01*
X131931412Y-74072926D01*
X131912898Y-74100066D01*
X131857987Y-74145069D01*
X131787462Y-74153240D01*
X131723715Y-74121986D01*
X131703018Y-74097502D01*
X131622426Y-73972926D01*
X131616136Y-73964757D01*
X131472806Y-73807240D01*
X131465273Y-73800215D01*
X131298139Y-73668222D01*
X131289552Y-73662517D01*
X131103117Y-73559599D01*
X131093705Y-73555369D01*
X130892959Y-73484280D01*
X130882988Y-73481646D01*
X130811837Y-73468972D01*
X130798540Y-73470432D01*
X130794000Y-73484989D01*
X130794000Y-76118517D01*
X130286000Y-76118517D01*
X130286000Y-73483102D01*
X130282082Y-73469758D01*
X130267806Y-73467771D01*
X130229324Y-73473660D01*
X130219288Y-73476051D01*
X130016868Y-73542212D01*
X130007359Y-73546209D01*
X129818463Y-73644542D01*
X129809738Y-73650036D01*
X129639433Y-73777905D01*
X129631726Y-73784748D01*
X129554478Y-73865584D01*
X129492954Y-73901014D01*
X129422042Y-73897557D01*
X129364255Y-73856311D01*
X129345402Y-73822763D01*
X129303767Y-73711703D01*
X129300615Y-73703295D01*
X129213261Y-73586739D01*
X129096705Y-73499385D01*
X128960316Y-73448255D01*
X128898134Y-73441500D01*
X127101866Y-73441500D01*
X127039684Y-73448255D01*
X126903295Y-73499385D01*
X126786739Y-73586739D01*
X126699385Y-73703295D01*
X126648255Y-73839684D01*
X126641500Y-73901866D01*
X126641500Y-75698134D01*
X126648255Y-75760316D01*
X126699385Y-75896705D01*
X126786739Y-76013261D01*
X126810650Y-76031181D01*
X126830149Y-76045795D01*
X126872664Y-76102654D01*
X126877690Y-76173473D01*
X126843679Y-76235716D01*
X124387747Y-78691648D01*
X124379461Y-78699188D01*
X124372982Y-78703300D01*
X124367557Y-78709077D01*
X124326357Y-78752951D01*
X124323602Y-78755793D01*
X124303865Y-78775530D01*
X124301385Y-78778727D01*
X124293682Y-78787747D01*
X124263414Y-78819979D01*
X124259595Y-78826925D01*
X124259593Y-78826928D01*
X124253652Y-78837734D01*
X124242801Y-78854253D01*
X124230386Y-78870259D01*
X124227241Y-78877528D01*
X124227238Y-78877532D01*
X124212826Y-78910837D01*
X124207609Y-78921487D01*
X124186305Y-78960240D01*
X124184334Y-78967915D01*
X124184334Y-78967916D01*
X124181267Y-78979862D01*
X124174863Y-78998566D01*
X124166819Y-79017155D01*
X124165580Y-79024978D01*
X124165577Y-79024988D01*
X124159901Y-79060824D01*
X124157495Y-79072444D01*
X124148472Y-79107589D01*
X124146500Y-79115270D01*
X124146500Y-79135524D01*
X124144949Y-79155234D01*
X124141780Y-79175243D01*
X124142526Y-79183135D01*
X124145941Y-79219261D01*
X124146500Y-79231119D01*
X124146500Y-79982826D01*
X124126498Y-80050947D01*
X124072842Y-80097440D01*
X124002568Y-80107544D01*
X123978442Y-80101600D01*
X123889234Y-80070009D01*
X123875903Y-80065288D01*
X123875899Y-80065287D01*
X123871028Y-80063562D01*
X123865935Y-80062655D01*
X123865932Y-80062654D01*
X123648095Y-80023851D01*
X123648089Y-80023850D01*
X123643006Y-80022945D01*
X123570096Y-80022054D01*
X123416581Y-80020179D01*
X123416579Y-80020179D01*
X123411411Y-80020116D01*
X123182464Y-80055150D01*
X122962314Y-80127106D01*
X122957726Y-80129494D01*
X122957722Y-80129496D01*
X122761461Y-80231663D01*
X122756872Y-80234052D01*
X122752739Y-80237155D01*
X122752736Y-80237157D01*
X122680088Y-80291703D01*
X122571655Y-80373117D01*
X122411639Y-80540564D01*
X122344306Y-80639271D01*
X122289397Y-80684271D01*
X122218872Y-80692442D01*
X122155125Y-80661188D01*
X122134428Y-80636705D01*
X122092571Y-80572004D01*
X122089764Y-80567665D01*
X121933887Y-80396358D01*
X121929836Y-80393159D01*
X121929832Y-80393155D01*
X121756177Y-80256011D01*
X121756172Y-80256008D01*
X121752123Y-80252810D01*
X121747607Y-80250317D01*
X121747604Y-80250315D01*
X121553879Y-80143373D01*
X121553875Y-80143371D01*
X121549355Y-80140876D01*
X121544486Y-80139152D01*
X121544482Y-80139150D01*
X121335903Y-80065288D01*
X121335899Y-80065287D01*
X121331028Y-80063562D01*
X121325935Y-80062655D01*
X121325932Y-80062654D01*
X121108095Y-80023851D01*
X121108089Y-80023850D01*
X121103006Y-80022945D01*
X121030096Y-80022054D01*
X120876581Y-80020179D01*
X120876579Y-80020179D01*
X120871411Y-80020116D01*
X120642464Y-80055150D01*
X120422314Y-80127106D01*
X120417726Y-80129494D01*
X120417722Y-80129496D01*
X120221461Y-80231663D01*
X120216872Y-80234052D01*
X120212739Y-80237155D01*
X120212736Y-80237157D01*
X120140088Y-80291703D01*
X120031655Y-80373117D01*
X120014170Y-80391414D01*
X119952646Y-80426844D01*
X119881733Y-80423387D01*
X119823947Y-80382141D01*
X119805094Y-80348592D01*
X119783768Y-80291705D01*
X119783767Y-80291703D01*
X119780615Y-80283295D01*
X119693261Y-80166739D01*
X119576705Y-80079385D01*
X119440316Y-80028255D01*
X119378134Y-80021500D01*
X117481866Y-80021500D01*
X117419684Y-80028255D01*
X117283295Y-80079385D01*
X117166739Y-80166739D01*
X117079385Y-80283295D01*
X117028255Y-80419684D01*
X117021500Y-80481866D01*
X117021500Y-82378134D01*
X117028255Y-82440316D01*
X117079385Y-82576705D01*
X117166739Y-82693261D01*
X117283295Y-82780615D01*
X117419684Y-82831745D01*
X117481866Y-82838500D01*
X119378134Y-82838500D01*
X119440316Y-82831745D01*
X119576705Y-82780615D01*
X119693261Y-82693261D01*
X119780615Y-82576705D01*
X119805180Y-82511178D01*
X119847822Y-82454414D01*
X119914383Y-82429714D01*
X119983732Y-82444921D01*
X120003647Y-82458464D01*
X120068724Y-82512492D01*
X120159349Y-82587730D01*
X120359322Y-82704584D01*
X120575694Y-82787209D01*
X120580760Y-82788240D01*
X120580761Y-82788240D01*
X120618520Y-82795922D01*
X120802656Y-82833385D01*
X120932089Y-82838131D01*
X121028949Y-82841683D01*
X121028953Y-82841683D01*
X121034113Y-82841872D01*
X121039233Y-82841216D01*
X121039235Y-82841216D01*
X121113166Y-82831745D01*
X121263847Y-82812442D01*
X121268795Y-82810957D01*
X121268802Y-82810956D01*
X121480747Y-82747369D01*
X121485690Y-82745886D01*
X121567161Y-82705974D01*
X121689049Y-82646262D01*
X121689052Y-82646260D01*
X121693684Y-82643991D01*
X121882243Y-82509494D01*
X122046303Y-82346005D01*
X122049319Y-82341808D01*
X122049326Y-82341800D01*
X122136960Y-82219844D01*
X122192954Y-82176196D01*
X122263658Y-82169750D01*
X122326622Y-82202553D01*
X122346715Y-82227536D01*
X122366800Y-82260313D01*
X122366806Y-82260321D01*
X122369501Y-82264719D01*
X122521147Y-82439784D01*
X122699349Y-82587730D01*
X122899322Y-82704584D01*
X123115694Y-82787209D01*
X123120760Y-82788240D01*
X123120761Y-82788240D01*
X123158520Y-82795922D01*
X123342656Y-82833385D01*
X123472089Y-82838131D01*
X123568949Y-82841683D01*
X123568953Y-82841683D01*
X123574113Y-82841872D01*
X123579233Y-82841216D01*
X123579235Y-82841216D01*
X123653166Y-82831745D01*
X123803847Y-82812442D01*
X123808795Y-82810957D01*
X123808802Y-82810956D01*
X123984293Y-82758306D01*
X124055288Y-82757890D01*
X124115239Y-82795922D01*
X124145110Y-82860329D01*
X124146500Y-82878992D01*
X124146500Y-94760105D01*
X124126498Y-94828226D01*
X124109595Y-94849200D01*
X123655247Y-95303548D01*
X123646961Y-95311088D01*
X123640482Y-95315200D01*
X123635057Y-95320977D01*
X123593857Y-95364851D01*
X123591102Y-95367693D01*
X123571365Y-95387430D01*
X123568885Y-95390627D01*
X123561182Y-95399647D01*
X123530914Y-95431879D01*
X123527095Y-95438825D01*
X123527093Y-95438828D01*
X123521152Y-95449634D01*
X123510301Y-95466153D01*
X123497886Y-95482159D01*
X123494741Y-95489428D01*
X123494738Y-95489432D01*
X123480326Y-95522737D01*
X123475109Y-95533387D01*
X123453805Y-95572140D01*
X123451834Y-95579815D01*
X123451834Y-95579816D01*
X123448767Y-95591762D01*
X123442363Y-95610466D01*
X123434319Y-95629055D01*
X123433080Y-95636878D01*
X123433077Y-95636888D01*
X123427401Y-95672724D01*
X123424995Y-95684344D01*
X123415970Y-95719495D01*
X123415969Y-95719499D01*
X123414000Y-95727170D01*
X123414000Y-95735084D01*
X123385619Y-95800158D01*
X123365699Y-95819251D01*
X123196659Y-95948960D01*
X123196648Y-95948970D01*
X123192208Y-95952377D01*
X123041015Y-96118536D01*
X123038037Y-96123283D01*
X123038035Y-96123286D01*
X122984581Y-96208500D01*
X122921636Y-96308844D01*
X122894286Y-96376878D01*
X122850322Y-96432620D01*
X122783197Y-96455745D01*
X122714226Y-96438908D01*
X122663655Y-96384124D01*
X122597103Y-96244597D01*
X122591418Y-96234984D01*
X122466925Y-96061733D01*
X122459617Y-96053267D01*
X122306418Y-95904808D01*
X122297721Y-95897765D01*
X122120656Y-95778781D01*
X122110858Y-95773395D01*
X121915510Y-95687643D01*
X121904918Y-95684078D01*
X121779116Y-95653876D01*
X121765030Y-95654581D01*
X121761500Y-95663460D01*
X121761500Y-97510500D01*
X121741498Y-97578621D01*
X121687842Y-97625114D01*
X121635500Y-97636500D01*
X121379500Y-97636500D01*
X121311379Y-97616498D01*
X121264886Y-97562842D01*
X121253500Y-97510500D01*
X121253500Y-95664089D01*
X121249395Y-95650107D01*
X121239772Y-95648614D01*
X121239527Y-95648666D01*
X121035617Y-95711398D01*
X121025271Y-95715619D01*
X120835686Y-95813471D01*
X120826255Y-95819457D01*
X120656999Y-95949332D01*
X120648776Y-95956893D01*
X120505188Y-96114694D01*
X120498436Y-96123589D01*
X120458737Y-96186875D01*
X120405593Y-96233952D01*
X120335434Y-96244824D01*
X120270535Y-96216040D01*
X120231500Y-96156737D01*
X120226000Y-96119918D01*
X120226000Y-96084366D01*
X120219245Y-96022184D01*
X120168115Y-95885795D01*
X120080761Y-95769239D01*
X119964205Y-95681885D01*
X119827816Y-95630755D01*
X119765634Y-95624000D01*
X118169366Y-95624000D01*
X118107184Y-95630755D01*
X117970795Y-95681885D01*
X117854239Y-95769239D01*
X117766885Y-95885795D01*
X117715755Y-96022184D01*
X117709000Y-96084366D01*
X117709000Y-98680634D01*
X117715755Y-98742816D01*
X117766885Y-98879205D01*
X117854239Y-98995761D01*
X117970795Y-99083115D01*
X118107184Y-99134245D01*
X118169366Y-99141000D01*
X119424352Y-99141000D01*
X119492473Y-99161002D01*
X119513447Y-99177905D01*
X120011947Y-99676405D01*
X120045973Y-99738717D01*
X120040908Y-99809532D01*
X119998361Y-99866368D01*
X119931841Y-99891179D01*
X119922852Y-99891500D01*
X115298369Y-99891500D01*
X115278986Y-99890000D01*
X115255278Y-99886309D01*
X115250075Y-99886989D01*
X115184001Y-99866710D01*
X115138165Y-99812492D01*
X115127684Y-99769778D01*
X115127742Y-99765000D01*
X115123786Y-99737376D01*
X115122513Y-99719514D01*
X115122513Y-75798134D01*
X117266500Y-75798134D01*
X117273255Y-75860316D01*
X117324385Y-75996705D01*
X117411739Y-76113261D01*
X117528295Y-76200615D01*
X117664684Y-76251745D01*
X117726866Y-76258500D01*
X119523134Y-76258500D01*
X119585316Y-76251745D01*
X119721705Y-76200615D01*
X119838261Y-76113261D01*
X119925615Y-75996705D01*
X119957026Y-75912916D01*
X119969798Y-75878848D01*
X120012440Y-75822084D01*
X120079001Y-75797384D01*
X120148350Y-75812592D01*
X120183017Y-75840580D01*
X120208218Y-75869673D01*
X120215580Y-75876883D01*
X120379434Y-76012916D01*
X120387881Y-76018831D01*
X120571756Y-76126279D01*
X120581042Y-76130729D01*
X120780001Y-76206703D01*
X120789899Y-76209579D01*
X120893250Y-76230606D01*
X120907299Y-76229410D01*
X120911000Y-76219065D01*
X120911000Y-76218517D01*
X121419000Y-76218517D01*
X121423064Y-76232359D01*
X121436478Y-76234393D01*
X121443184Y-76233534D01*
X121453262Y-76231392D01*
X121657255Y-76170191D01*
X121666842Y-76166433D01*
X121858095Y-76072739D01*
X121866945Y-76067464D01*
X122040328Y-75943792D01*
X122048200Y-75937139D01*
X122199052Y-75786812D01*
X122205730Y-75778965D01*
X122330003Y-75606020D01*
X122335313Y-75597183D01*
X122429670Y-75406267D01*
X122433469Y-75396672D01*
X122495377Y-75192910D01*
X122497555Y-75182837D01*
X122498986Y-75171962D01*
X122496775Y-75157778D01*
X122483617Y-75154000D01*
X121437115Y-75154000D01*
X121421876Y-75158475D01*
X121420671Y-75159865D01*
X121419000Y-75167548D01*
X121419000Y-76218517D01*
X120911000Y-76218517D01*
X120911000Y-74627885D01*
X121419000Y-74627885D01*
X121423475Y-74643124D01*
X121424865Y-74644329D01*
X121432548Y-74646000D01*
X122483344Y-74646000D01*
X122496875Y-74642027D01*
X122498180Y-74632947D01*
X122456214Y-74465875D01*
X122452894Y-74456124D01*
X122367972Y-74260814D01*
X122363105Y-74251739D01*
X122247426Y-74072926D01*
X122241136Y-74064757D01*
X122097806Y-73907240D01*
X122090273Y-73900215D01*
X121923139Y-73768222D01*
X121914552Y-73762517D01*
X121728117Y-73659599D01*
X121718705Y-73655369D01*
X121517959Y-73584280D01*
X121507988Y-73581646D01*
X121436837Y-73568972D01*
X121423540Y-73570432D01*
X121419000Y-73584989D01*
X121419000Y-74627885D01*
X120911000Y-74627885D01*
X120911000Y-73583102D01*
X120907082Y-73569758D01*
X120892806Y-73567771D01*
X120854324Y-73573660D01*
X120844288Y-73576051D01*
X120641868Y-73642212D01*
X120632359Y-73646209D01*
X120443463Y-73744542D01*
X120434738Y-73750036D01*
X120264433Y-73877905D01*
X120256726Y-73884748D01*
X120179478Y-73965584D01*
X120117954Y-74001014D01*
X120047042Y-73997557D01*
X119989255Y-73956311D01*
X119970402Y-73922763D01*
X119928767Y-73811703D01*
X119925615Y-73803295D01*
X119838261Y-73686739D01*
X119721705Y-73599385D01*
X119585316Y-73548255D01*
X119523134Y-73541500D01*
X117726866Y-73541500D01*
X117664684Y-73548255D01*
X117528295Y-73599385D01*
X117411739Y-73686739D01*
X117324385Y-73803295D01*
X117273255Y-73939684D01*
X117266500Y-74001866D01*
X117266500Y-75798134D01*
X115122513Y-75798134D01*
X115122513Y-72298369D01*
X115124013Y-72278986D01*
X115126323Y-72264151D01*
X115126323Y-72264148D01*
X115127704Y-72255278D01*
X115126949Y-72249503D01*
X115147316Y-72183149D01*
X115201536Y-72137316D01*
X115242877Y-72128852D01*
X115242727Y-72127704D01*
X115274301Y-72123576D01*
X115290635Y-72122513D01*
X149701631Y-72122513D01*
X149721014Y-72124013D01*
G37*
%TD.AperFunction*%
%TD*%
M02*
