%TF.GenerationSoftware,KiCad,Pcbnew,(6.0.5)*%
%TF.CreationDate,2023-06-19T12:11:45+02:00*%
%TF.ProjectId,PCB_Suelo,5043425f-5375-4656-9c6f-2e6b69636164,rev?*%
%TF.SameCoordinates,Original*%
%TF.FileFunction,Paste,Top*%
%TF.FilePolarity,Positive*%
%FSLAX46Y46*%
G04 Gerber Fmt 4.6, Leading zero omitted, Abs format (unit mm)*
G04 Created by KiCad (PCBNEW (6.0.5)) date 2023-06-19 12:11:45*
%MOMM*%
%LPD*%
G01*
G04 APERTURE LIST*
%ADD10C,0.010000*%
%ADD11R,1.050000X2.790000*%
G04 APERTURE END LIST*
%TO.C,VR1*%
G36*
X131260000Y-65905000D02*
G01*
X130000000Y-65905000D01*
X130000000Y-63995000D01*
X131260000Y-63995000D01*
X131260000Y-65905000D01*
G37*
D10*
X131260000Y-65905000D02*
X130000000Y-65905000D01*
X130000000Y-63995000D01*
X131260000Y-63995000D01*
X131260000Y-65905000D01*
G36*
X133020000Y-65905000D02*
G01*
X131760000Y-65905000D01*
X131760000Y-63995000D01*
X133020000Y-63995000D01*
X133020000Y-65905000D01*
G37*
X133020000Y-65905000D02*
X131760000Y-65905000D01*
X131760000Y-63995000D01*
X133020000Y-63995000D01*
X133020000Y-65905000D01*
G36*
X134780000Y-65905000D02*
G01*
X133520000Y-65905000D01*
X133520000Y-63995000D01*
X134780000Y-63995000D01*
X134780000Y-65905000D01*
G37*
X134780000Y-65905000D02*
X133520000Y-65905000D01*
X133520000Y-63995000D01*
X134780000Y-63995000D01*
X134780000Y-65905000D01*
G36*
X129500000Y-65905000D02*
G01*
X128240000Y-65905000D01*
X128240000Y-63995000D01*
X129500000Y-63995000D01*
X129500000Y-65905000D01*
G37*
X129500000Y-65905000D02*
X128240000Y-65905000D01*
X128240000Y-63995000D01*
X129500000Y-63995000D01*
X129500000Y-65905000D01*
G36*
X127740000Y-65905000D02*
G01*
X126480000Y-65905000D01*
X126480000Y-63995000D01*
X127740000Y-63995000D01*
X127740000Y-65905000D01*
G37*
X127740000Y-65905000D02*
X126480000Y-65905000D01*
X126480000Y-63995000D01*
X127740000Y-63995000D01*
X127740000Y-65905000D01*
G36*
X125980000Y-65905000D02*
G01*
X124720000Y-65905000D01*
X124720000Y-63995000D01*
X125980000Y-63995000D01*
X125980000Y-65905000D01*
G37*
X125980000Y-65905000D02*
X124720000Y-65905000D01*
X124720000Y-63995000D01*
X125980000Y-63995000D01*
X125980000Y-65905000D01*
G36*
X131260000Y-69325000D02*
G01*
X130000000Y-69325000D01*
X130000000Y-67415000D01*
X131260000Y-67415000D01*
X131260000Y-69325000D01*
G37*
X131260000Y-69325000D02*
X130000000Y-69325000D01*
X130000000Y-67415000D01*
X131260000Y-67415000D01*
X131260000Y-69325000D01*
G36*
X133020000Y-69325000D02*
G01*
X131760000Y-69325000D01*
X131760000Y-67415000D01*
X133020000Y-67415000D01*
X133020000Y-69325000D01*
G37*
X133020000Y-69325000D02*
X131760000Y-69325000D01*
X131760000Y-67415000D01*
X133020000Y-67415000D01*
X133020000Y-69325000D01*
G36*
X134780000Y-69325000D02*
G01*
X133520000Y-69325000D01*
X133520000Y-67415000D01*
X134780000Y-67415000D01*
X134780000Y-69325000D01*
G37*
X134780000Y-69325000D02*
X133520000Y-69325000D01*
X133520000Y-67415000D01*
X134780000Y-67415000D01*
X134780000Y-69325000D01*
G36*
X129500000Y-69325000D02*
G01*
X128240000Y-69325000D01*
X128240000Y-67415000D01*
X129500000Y-67415000D01*
X129500000Y-69325000D01*
G37*
X129500000Y-69325000D02*
X128240000Y-69325000D01*
X128240000Y-67415000D01*
X129500000Y-67415000D01*
X129500000Y-69325000D01*
G36*
X127740000Y-69325000D02*
G01*
X126480000Y-69325000D01*
X126480000Y-67415000D01*
X127740000Y-67415000D01*
X127740000Y-69325000D01*
G37*
X127740000Y-69325000D02*
X126480000Y-69325000D01*
X126480000Y-67415000D01*
X127740000Y-67415000D01*
X127740000Y-69325000D01*
G36*
X125980000Y-69325000D02*
G01*
X124720000Y-69325000D01*
X124720000Y-67415000D01*
X125980000Y-67415000D01*
X125980000Y-69325000D01*
G37*
X125980000Y-69325000D02*
X124720000Y-69325000D01*
X124720000Y-67415000D01*
X125980000Y-67415000D01*
X125980000Y-69325000D01*
%TD*%
D11*
%TO.C,VR1*%
X132290000Y-56310000D03*
X129750000Y-56310000D03*
X127210000Y-56310000D03*
%TD*%
M02*
