%TF.GenerationSoftware,KiCad,Pcbnew,(6.0.5)*%
%TF.CreationDate,2023-06-19T12:11:45+02:00*%
%TF.ProjectId,PCB_Suelo,5043425f-5375-4656-9c6f-2e6b69636164,rev?*%
%TF.SameCoordinates,Original*%
%TF.FileFunction,Copper,L2,Bot*%
%TF.FilePolarity,Positive*%
%FSLAX46Y46*%
G04 Gerber Fmt 4.6, Leading zero omitted, Abs format (unit mm)*
G04 Created by KiCad (PCBNEW (6.0.5)) date 2023-06-19 12:11:45*
%MOMM*%
%LPD*%
G01*
G04 APERTURE LIST*
G04 Aperture macros list*
%AMRoundRect*
0 Rectangle with rounded corners*
0 $1 Rounding radius*
0 $2 $3 $4 $5 $6 $7 $8 $9 X,Y pos of 4 corners*
0 Add a 4 corners polygon primitive as box body*
4,1,4,$2,$3,$4,$5,$6,$7,$8,$9,$2,$3,0*
0 Add four circle primitives for the rounded corners*
1,1,$1+$1,$2,$3*
1,1,$1+$1,$4,$5*
1,1,$1+$1,$6,$7*
1,1,$1+$1,$8,$9*
0 Add four rect primitives between the rounded corners*
20,1,$1+$1,$2,$3,$4,$5,0*
20,1,$1+$1,$4,$5,$6,$7,0*
20,1,$1+$1,$6,$7,$8,$9,0*
20,1,$1+$1,$8,$9,$2,$3,0*%
G04 Aperture macros list end*
%TA.AperFunction,SMDPad,CuDef*%
%ADD10R,1.000000X1.400000*%
%TD*%
%TA.AperFunction,SMDPad,CuDef*%
%ADD11R,2.200000X0.600000*%
%TD*%
%TA.AperFunction,SMDPad,CuDef*%
%ADD12RoundRect,0.028800X0.696200X0.211200X-0.696200X0.211200X-0.696200X-0.211200X0.696200X-0.211200X0*%
%TD*%
%TA.AperFunction,SMDPad,CuDef*%
%ADD13RoundRect,0.028800X-0.696200X-0.211200X0.696200X-0.211200X0.696200X0.211200X-0.696200X0.211200X0*%
%TD*%
%TA.AperFunction,SMDPad,CuDef*%
%ADD14R,1.680000X1.880000*%
%TD*%
%TA.AperFunction,ComponentPad*%
%ADD15R,1.508000X1.508000*%
%TD*%
%TA.AperFunction,ComponentPad*%
%ADD16C,1.508000*%
%TD*%
%TA.AperFunction,ComponentPad*%
%ADD17R,1.100000X1.100000*%
%TD*%
%TA.AperFunction,ComponentPad*%
%ADD18C,1.100000*%
%TD*%
%TA.AperFunction,SMDPad,CuDef*%
%ADD19R,1.150000X1.450000*%
%TD*%
%TA.AperFunction,ComponentPad*%
%ADD20R,1.700000X1.700000*%
%TD*%
%TA.AperFunction,ComponentPad*%
%ADD21O,1.700000X1.700000*%
%TD*%
%TA.AperFunction,ViaPad*%
%ADD22C,0.800000*%
%TD*%
%TA.AperFunction,Conductor*%
%ADD23C,0.250000*%
%TD*%
G04 APERTURE END LIST*
D10*
%TO.P,U2,1*%
%TO.N,CTR*%
X143800000Y-61150000D03*
%TO.P,U2,2*%
%TO.N,GND*%
X145700000Y-61150000D03*
%TO.P,U2,3*%
%TO.N,Net-(PS1-Pad1)*%
X144750000Y-63350000D03*
%TD*%
D11*
%TO.P,U1,2,-INA*%
%TO.N,Net-(R1-Pad7)*%
X148100000Y-54615000D03*
%TO.P,U1,7,OUTB*%
%TO.N,unconnected-(U1-Pad7)*%
X142900000Y-54615000D03*
%TO.P,U1,1,OUTA*%
%TO.N,OUT_MOISTURE*%
X148100000Y-53345000D03*
%TO.P,U1,3,+INA*%
%TO.N,Net-(C1-PadP)*%
X148100000Y-55885000D03*
%TO.P,U1,4,V-*%
%TO.N,GND*%
X148100000Y-57155000D03*
%TO.P,U1,8,V+*%
%TO.N,9V*%
X142900000Y-53345000D03*
%TO.P,U1,6,-INB*%
%TO.N,unconnected-(U1-Pad6)*%
X142900000Y-55885000D03*
%TO.P,U1,5,+INB*%
%TO.N,unconnected-(U1-Pad5)*%
X142900000Y-57155000D03*
%TD*%
D12*
%TO.P,R2,1*%
%TO.N,OUT_MOISTURE*%
X146910000Y-46775000D03*
%TO.P,R2,2*%
%TO.N,unconnected-(R2-Pad2)*%
X146910000Y-47425000D03*
%TO.P,R2,3*%
%TO.N,unconnected-(R2-Pad3)*%
X146910000Y-48075000D03*
%TO.P,R2,4*%
%TO.N,GND*%
X146910000Y-48725000D03*
D13*
%TO.P,R2,5*%
%TO.N,Net-(C1-PadP)*%
X142590000Y-48725000D03*
%TO.P,R2,6*%
%TO.N,unconnected-(R2-Pad6)*%
X142590000Y-48075000D03*
%TO.P,R2,7*%
%TO.N,unconnected-(R2-Pad7)*%
X142590000Y-47425000D03*
%TO.P,R2,8*%
%TO.N,Net-(R1-Pad7)*%
X142590000Y-46775000D03*
D14*
%TO.P,R2,9*%
%TO.N,N/C*%
X144750000Y-47750000D03*
%TD*%
D12*
%TO.P,R1,1*%
%TO.N,OUT_MOISTURE*%
X146910000Y-39775000D03*
%TO.P,R1,2*%
%TO.N,GND*%
X146910000Y-40425000D03*
%TO.P,R1,3*%
%TO.N,IN_MOISTURE*%
X146910000Y-41075000D03*
%TO.P,R1,4*%
%TO.N,GND*%
X146910000Y-41725000D03*
D13*
%TO.P,R1,5*%
%TO.N,Net-(C1-PadP)*%
X142590000Y-41725000D03*
%TO.P,R1,6*%
X142590000Y-41075000D03*
%TO.P,R1,7*%
%TO.N,Net-(R1-Pad7)*%
X142590000Y-40425000D03*
%TO.P,R1,8*%
X142590000Y-39775000D03*
D14*
%TO.P,R1,9*%
%TO.N,N/C*%
X144750000Y-40750000D03*
%TD*%
D15*
%TO.P,PS1,1,~{ON/OFF}*%
%TO.N,Net-(PS1-Pad1)*%
X139750000Y-67220000D03*
D16*
%TO.P,PS1,2,VIN*%
%TO.N,PWR*%
X139750000Y-64680000D03*
%TO.P,PS1,3,VIN*%
X139750000Y-62140000D03*
%TO.P,PS1,4,VIN*%
X139750000Y-59600000D03*
%TO.P,PS1,5,GND*%
%TO.N,GND*%
X139750000Y-57060000D03*
%TO.P,PS1,6,GND*%
X139750000Y-54520000D03*
%TO.P,PS1,7,GND*%
X139750000Y-51980000D03*
%TO.P,PS1,8,GND*%
X139750000Y-49440000D03*
%TO.P,PS1,9,VOUT*%
%TO.N,9V*%
X139750000Y-46900000D03*
%TO.P,PS1,10,VOUT*%
X139750000Y-44360000D03*
%TO.P,PS1,11,VOUT*%
X139750000Y-41820000D03*
%TO.P,PS1,12,VADJ*%
%TO.N,unconnected-(PS1-Pad12)*%
X139750000Y-39280000D03*
%TD*%
D17*
%TO.P,C7,P*%
%TO.N,PWR_pH*%
X121250000Y-65000000D03*
D18*
%TO.P,C7,N*%
%TO.N,GND*%
X119250000Y-65000000D03*
%TD*%
D17*
%TO.P,C6,P*%
%TO.N,9V*%
X121250000Y-57500000D03*
D18*
%TO.P,C6,N*%
%TO.N,GND*%
X119250000Y-57500000D03*
%TD*%
D17*
%TO.P,C5,P*%
%TO.N,9V*%
X121500000Y-50000000D03*
D18*
%TO.P,C5,N*%
%TO.N,GND*%
X119500000Y-50000000D03*
%TD*%
D17*
%TO.P,C4,P*%
%TO.N,PWR*%
X129500000Y-50000000D03*
D18*
%TO.P,C4,N*%
%TO.N,GND*%
X127500000Y-50000000D03*
%TD*%
D19*
%TO.P,C3,1*%
%TO.N,GND*%
X145650000Y-67750000D03*
%TO.P,C3,2*%
%TO.N,9V*%
X143850000Y-67750000D03*
%TD*%
D17*
%TO.P,C2,P*%
%TO.N,9V*%
X136000000Y-61000000D03*
D18*
%TO.P,C2,N*%
%TO.N,GND*%
X134000000Y-61000000D03*
%TD*%
D17*
%TO.P,C1,P*%
%TO.N,Net-(C1-PadP)*%
X136000000Y-53500000D03*
D18*
%TO.P,C1,N*%
%TO.N,GND*%
X134000000Y-53500000D03*
%TD*%
D20*
%TO.P,J1,1,Pin_1*%
%TO.N,CTR*%
X127500000Y-39460000D03*
D21*
%TO.P,J1,2,Pin_2*%
%TO.N,IN_MOISTURE*%
X127500000Y-42000000D03*
%TO.P,J1,3,Pin_3*%
%TO.N,OUT_MOISTURE*%
X127500000Y-44540000D03*
%TD*%
%TO.P,J2,4,Pin_4*%
%TO.N,9V*%
X134250000Y-47080000D03*
%TO.P,J2,3,Pin_3*%
X134250000Y-44540000D03*
%TO.P,J2,2,Pin_2*%
%TO.N,PWR_pH*%
X134250000Y-42000000D03*
D20*
%TO.P,J2,1,Pin_1*%
%TO.N,9V*%
X134250000Y-39460000D03*
%TD*%
%TO.P,J3,1,Pin_1*%
%TO.N,PWR*%
X121000000Y-39460000D03*
D21*
%TO.P,J3,2,Pin_2*%
%TO.N,GND*%
X121000000Y-42000000D03*
%TD*%
D22*
%TO.N,Net-(C1-PadP)*%
X140662100Y-47960700D03*
X142285700Y-42765600D03*
%TO.N,GND*%
X146191300Y-42774200D03*
%TD*%
D23*
%TO.N,GND*%
X145850000Y-61150000D02*
X146692900Y-60307100D01*
X145700000Y-61150000D02*
X145850000Y-61150000D01*
X146692900Y-60307100D02*
X146692900Y-66707100D01*
X146692900Y-57849500D02*
X146692900Y-60307100D01*
%TO.N,Net-(PS1-Pad1)*%
X142974700Y-63350000D02*
X140829300Y-65495400D01*
X144750000Y-63350000D02*
X142974700Y-63350000D01*
%TO.N,CTR*%
X141276400Y-60710600D02*
X141715800Y-61150000D01*
X141715800Y-61150000D02*
X143800000Y-61150000D01*
%TO.N,GND*%
X146692900Y-66707100D02*
X145650000Y-67750000D01*
%TO.N,Net-(C1-PadP)*%
X142590000Y-48725000D02*
X141426400Y-48725000D01*
X140506700Y-55599400D02*
X140846400Y-55259700D01*
X136000000Y-53500000D02*
X136875300Y-53500000D01*
X136875300Y-53500000D02*
X138974700Y-55599400D01*
X141426400Y-48725000D02*
X140662100Y-47960700D01*
X142590000Y-42461300D02*
X142285700Y-42765600D01*
X138974700Y-55599400D02*
X140506700Y-55599400D01*
X148100000Y-55885000D02*
X146674700Y-55885000D01*
X142590000Y-41725000D02*
X142590000Y-42461300D01*
X142590000Y-41075000D02*
X142590000Y-41725000D01*
X140846400Y-55259700D02*
X146049400Y-55259700D01*
X146049400Y-55259700D02*
X146674700Y-55885000D01*
%TO.N,GND*%
X146191300Y-42774200D02*
X146910000Y-42055500D01*
X148100000Y-57155000D02*
X147387400Y-57155000D01*
X147999200Y-40115400D02*
X147689600Y-40425000D01*
X145000000Y-57849500D02*
X146692900Y-57849500D01*
X140539500Y-57849500D02*
X145000000Y-57849500D01*
X131000000Y-53500000D02*
X134000000Y-53500000D01*
X146692900Y-57849500D02*
X147387400Y-57155000D01*
X133367500Y-38182400D02*
X146773800Y-38182400D01*
X146195000Y-49440000D02*
X146910000Y-48725000D01*
X147689600Y-40425000D02*
X146910000Y-40425000D01*
X146773800Y-38182400D02*
X147999200Y-39407800D01*
X146910000Y-42055500D02*
X146910000Y-41725000D01*
X119500000Y-50000000D02*
X126135400Y-43364600D01*
X128185300Y-43364600D02*
X133367500Y-38182400D01*
X139750000Y-57060000D02*
X140539500Y-57849500D01*
X139750000Y-49440000D02*
X146195000Y-49440000D01*
X147999200Y-39407800D02*
X147999200Y-40115400D01*
X126135400Y-43364600D02*
X128185300Y-43364600D01*
X127500000Y-50000000D02*
X131000000Y-53500000D01*
%TO.N,9V*%
X139750000Y-41820000D02*
X137785300Y-41820000D01*
X139339700Y-53345000D02*
X142900000Y-53345000D01*
X138815200Y-68299400D02*
X136000000Y-65484200D01*
X121500000Y-50000000D02*
X122375300Y-50000000D01*
X142949700Y-67750000D02*
X142400300Y-68299400D01*
X134587800Y-43364700D02*
X136958900Y-40993600D01*
X134250000Y-43364700D02*
X134587800Y-43364700D01*
X134250000Y-47667600D02*
X134250000Y-48255300D01*
X134250000Y-47667600D02*
X124707700Y-47667600D01*
X137785300Y-41820000D02*
X136958900Y-40993600D01*
X143850000Y-67750000D02*
X142949700Y-67750000D01*
X136000000Y-65484200D02*
X136000000Y-61000000D01*
X134250000Y-44540000D02*
X134250000Y-43364700D01*
X134250000Y-47080000D02*
X134250000Y-47667600D01*
X142400300Y-68299400D02*
X138815200Y-68299400D01*
X124707700Y-47667600D02*
X122375300Y-50000000D01*
X134250000Y-39460000D02*
X135425300Y-39460000D01*
X134250000Y-48255300D02*
X139339700Y-53345000D01*
X136958900Y-40993600D02*
X135425300Y-39460000D01*
%TO.N,IN_MOISTURE*%
X148449500Y-39221100D02*
X146960500Y-37732100D01*
X127500000Y-42000000D02*
X128675300Y-42000000D01*
X148449500Y-40327600D02*
X148449500Y-39221100D01*
X146960500Y-37732100D02*
X132943200Y-37732100D01*
X147702100Y-41075000D02*
X148449500Y-40327600D01*
X132943200Y-37732100D02*
X128675300Y-42000000D01*
X146910000Y-41075000D02*
X147702100Y-41075000D01*
%TO.N,OUT_MOISTURE*%
X141778700Y-39165000D02*
X140890800Y-40052900D01*
X147772800Y-46775000D02*
X147981500Y-46983700D01*
X146910000Y-46775000D02*
X147772800Y-46775000D01*
X146910000Y-39775000D02*
X146300000Y-39165000D01*
X137076600Y-45715300D02*
X129850600Y-45715300D01*
X146379800Y-50709900D02*
X146379800Y-53050100D01*
X127500000Y-44540000D02*
X128675300Y-44540000D01*
X140890800Y-42221000D02*
X140021800Y-43090000D01*
X146379800Y-53050100D02*
X146674700Y-53345000D01*
X139434900Y-50709900D02*
X137076600Y-48351600D01*
X139483000Y-43090000D02*
X137076600Y-45496400D01*
X137076600Y-45496400D02*
X137076600Y-45715300D01*
X140021800Y-43090000D02*
X139483000Y-43090000D01*
X147981500Y-49108200D02*
X146379800Y-50709900D01*
X129850600Y-45715300D02*
X128675300Y-44540000D01*
X137076600Y-48351600D02*
X137076600Y-45715300D01*
X147981500Y-46983700D02*
X147981500Y-49108200D01*
X148100000Y-53345000D02*
X146674700Y-53345000D01*
X146379800Y-50709900D02*
X139434900Y-50709900D01*
X140890800Y-40052900D02*
X140890800Y-42221000D01*
X146300000Y-39165000D02*
X141778700Y-39165000D01*
%TO.N,Net-(R1-Pad7)*%
X142590000Y-40425000D02*
X141831700Y-40425000D01*
X142590000Y-46775000D02*
X142590000Y-46163200D01*
X148100000Y-54615000D02*
X149525300Y-54615000D01*
X141831700Y-40425000D02*
X141538400Y-40718300D01*
X142590000Y-46163200D02*
X147797900Y-46163200D01*
X147797900Y-46163200D02*
X149525300Y-47890600D01*
X141538400Y-45111600D02*
X142590000Y-46163200D01*
X141538400Y-40718300D02*
X141538400Y-45111600D01*
X142590000Y-40425000D02*
X142590000Y-39775000D01*
X149525300Y-47890600D02*
X149525300Y-54615000D01*
%TO.N,CTR*%
X127500000Y-40635300D02*
X127132700Y-40635300D01*
X127132700Y-40635300D02*
X118619500Y-49148500D01*
X138585500Y-60710600D02*
X141276400Y-60710600D01*
X118619500Y-50425600D02*
X125443900Y-57250000D01*
X127500000Y-39460000D02*
X127500000Y-40635300D01*
X118619500Y-49148500D02*
X118619500Y-50425600D01*
X125443900Y-57250000D02*
X135124900Y-57250000D01*
X135124900Y-57250000D02*
X138585500Y-60710600D01*
%TO.N,Net-(PS1-Pad1)*%
X140829300Y-67220000D02*
X140829300Y-65495400D01*
X139750000Y-67220000D02*
X140829300Y-67220000D01*
%TD*%
%TA.AperFunction,Conductor*%
%TO.N,GND*%
G36*
X149122915Y-36412107D02*
G01*
X149137748Y-36414417D01*
X149137752Y-36414417D01*
X149146621Y-36415798D01*
X149155646Y-36414618D01*
X149186081Y-36414346D01*
X149248158Y-36421340D01*
X149275664Y-36427618D01*
X149352752Y-36454592D01*
X149378168Y-36466831D01*
X149447325Y-36510286D01*
X149469380Y-36527875D01*
X149527125Y-36585620D01*
X149544714Y-36607675D01*
X149588169Y-36676832D01*
X149600408Y-36702248D01*
X149627382Y-36779336D01*
X149633661Y-36806844D01*
X149639912Y-36862325D01*
X149639245Y-36877964D01*
X149640694Y-36877982D01*
X149640584Y-36886953D01*
X149639202Y-36895827D01*
X149640366Y-36904730D01*
X149640366Y-36904737D01*
X149643329Y-36927397D01*
X149644393Y-36943733D01*
X149644393Y-46809599D01*
X149624391Y-46877720D01*
X149570735Y-46924213D01*
X149500461Y-46934317D01*
X149435881Y-46904823D01*
X149429298Y-46898694D01*
X148966445Y-46435840D01*
X148301552Y-45770947D01*
X148294012Y-45762661D01*
X148289900Y-45756182D01*
X148240248Y-45709556D01*
X148237407Y-45706802D01*
X148217670Y-45687065D01*
X148214473Y-45684585D01*
X148205451Y-45676880D01*
X148173221Y-45646614D01*
X148166275Y-45642795D01*
X148166272Y-45642793D01*
X148155466Y-45636852D01*
X148138947Y-45626001D01*
X148138483Y-45625641D01*
X148122941Y-45613586D01*
X148115672Y-45610441D01*
X148115668Y-45610438D01*
X148082363Y-45596026D01*
X148071713Y-45590809D01*
X148032960Y-45569505D01*
X148013337Y-45564467D01*
X147994634Y-45558063D01*
X147983320Y-45553167D01*
X147983319Y-45553167D01*
X147976045Y-45550019D01*
X147968222Y-45548780D01*
X147968212Y-45548777D01*
X147932376Y-45543101D01*
X147920756Y-45540695D01*
X147885611Y-45531672D01*
X147885610Y-45531672D01*
X147877930Y-45529700D01*
X147857676Y-45529700D01*
X147837965Y-45528149D01*
X147825786Y-45526220D01*
X147817957Y-45524980D01*
X147810065Y-45525726D01*
X147773939Y-45529141D01*
X147762081Y-45529700D01*
X142904595Y-45529700D01*
X142836474Y-45509698D01*
X142815499Y-45492795D01*
X142208804Y-44886099D01*
X142174779Y-44823787D01*
X142171900Y-44797004D01*
X142171900Y-43800100D01*
X142191902Y-43731979D01*
X142245558Y-43685486D01*
X142297900Y-43674100D01*
X142381187Y-43674100D01*
X142387639Y-43672728D01*
X142387644Y-43672728D01*
X142474587Y-43654247D01*
X142567988Y-43634394D01*
X142625348Y-43608856D01*
X142736422Y-43559403D01*
X142736424Y-43559402D01*
X142742452Y-43556718D01*
X142758058Y-43545380D01*
X142797857Y-43516464D01*
X142896953Y-43444466D01*
X142946344Y-43389612D01*
X143020321Y-43307452D01*
X143020322Y-43307451D01*
X143024740Y-43302544D01*
X143120227Y-43137156D01*
X143179242Y-42955528D01*
X143199204Y-42765600D01*
X143192768Y-42704366D01*
X143200319Y-42655059D01*
X143197821Y-42654333D01*
X143200033Y-42646719D01*
X143203181Y-42639445D01*
X143204421Y-42631617D01*
X143204423Y-42631610D01*
X143210099Y-42595776D01*
X143212504Y-42584159D01*
X143216777Y-42567514D01*
X143253089Y-42506506D01*
X143316620Y-42474815D01*
X143327647Y-42473500D01*
X143327940Y-42473500D01*
X143331708Y-42473044D01*
X143331709Y-42473044D01*
X143407530Y-42463869D01*
X143407531Y-42463869D01*
X143415569Y-42462896D01*
X143552442Y-42408704D01*
X143669700Y-42319700D01*
X143674888Y-42312865D01*
X143674893Y-42312860D01*
X143726228Y-42245229D01*
X143783346Y-42203062D01*
X143840198Y-42196146D01*
X143861866Y-42198500D01*
X145638134Y-42198500D01*
X145660381Y-42196083D01*
X145730263Y-42208611D01*
X145774352Y-42245167D01*
X145825465Y-42312506D01*
X145837491Y-42324532D01*
X145940965Y-42403073D01*
X145955792Y-42411427D01*
X146077021Y-42459425D01*
X146092592Y-42463379D01*
X146168329Y-42472544D01*
X146175883Y-42473000D01*
X146651885Y-42473000D01*
X146667124Y-42468525D01*
X146668329Y-42467135D01*
X146670000Y-42459452D01*
X146670000Y-41949500D01*
X146690002Y-41881379D01*
X146743658Y-41834886D01*
X146796000Y-41823500D01*
X147027372Y-41823500D01*
X147095493Y-41843502D01*
X147141986Y-41897158D01*
X147152090Y-41967432D01*
X147150492Y-41976285D01*
X147150000Y-41978547D01*
X147150000Y-42454885D01*
X147154475Y-42470124D01*
X147155865Y-42471329D01*
X147163548Y-42473000D01*
X147644117Y-42473000D01*
X147651671Y-42472544D01*
X147727408Y-42463379D01*
X147742979Y-42459425D01*
X147864208Y-42411427D01*
X147879035Y-42403073D01*
X147982509Y-42324532D01*
X147994532Y-42312509D01*
X148073073Y-42209035D01*
X148081427Y-42194208D01*
X148129425Y-42072979D01*
X148133379Y-42057408D01*
X148142544Y-41981671D01*
X148142550Y-41981582D01*
X148138525Y-41967876D01*
X148137135Y-41966671D01*
X148129452Y-41965000D01*
X147975059Y-41965000D01*
X147906938Y-41944998D01*
X147860445Y-41891342D01*
X147850341Y-41821068D01*
X147879835Y-41756488D01*
X147898879Y-41738637D01*
X147982860Y-41674892D01*
X147982861Y-41674891D01*
X147989700Y-41669700D01*
X148013323Y-41638578D01*
X148039618Y-41612828D01*
X148045486Y-41608564D01*
X148055405Y-41602049D01*
X148086635Y-41583580D01*
X148086638Y-41583578D01*
X148093462Y-41579542D01*
X148107783Y-41565221D01*
X148122817Y-41552380D01*
X148132794Y-41545131D01*
X148139207Y-41540472D01*
X148167398Y-41506395D01*
X148175388Y-41497616D01*
X148841747Y-40831257D01*
X148850037Y-40823713D01*
X148856518Y-40819600D01*
X148870486Y-40804726D01*
X148903158Y-40769933D01*
X148905913Y-40767091D01*
X148925634Y-40747370D01*
X148928112Y-40744175D01*
X148935818Y-40735153D01*
X148960658Y-40708701D01*
X148966086Y-40702921D01*
X148975846Y-40685168D01*
X148986699Y-40668645D01*
X148994253Y-40658906D01*
X148999113Y-40652641D01*
X149016676Y-40612057D01*
X149021883Y-40601427D01*
X149043195Y-40562660D01*
X149045166Y-40554983D01*
X149045168Y-40554978D01*
X149048232Y-40543042D01*
X149054638Y-40524330D01*
X149057606Y-40517473D01*
X149062681Y-40505745D01*
X149063921Y-40497917D01*
X149063923Y-40497910D01*
X149069599Y-40462076D01*
X149072005Y-40450456D01*
X149081028Y-40415311D01*
X149081028Y-40415310D01*
X149083000Y-40407630D01*
X149083000Y-40387376D01*
X149084551Y-40367665D01*
X149086480Y-40355486D01*
X149087720Y-40347657D01*
X149083559Y-40303638D01*
X149083000Y-40291781D01*
X149083000Y-39299867D01*
X149083527Y-39288684D01*
X149085202Y-39281191D01*
X149083062Y-39213114D01*
X149083000Y-39209155D01*
X149083000Y-39181244D01*
X149082495Y-39177244D01*
X149081562Y-39165401D01*
X149080422Y-39129130D01*
X149080173Y-39121211D01*
X149074521Y-39101757D01*
X149070513Y-39082400D01*
X149068968Y-39070170D01*
X149068968Y-39070169D01*
X149067974Y-39062303D01*
X149064932Y-39054619D01*
X149051696Y-39021188D01*
X149047851Y-39009958D01*
X149037729Y-38975117D01*
X149037729Y-38975116D01*
X149035518Y-38967507D01*
X149031485Y-38960688D01*
X149031483Y-38960683D01*
X149025207Y-38950072D01*
X149016512Y-38932324D01*
X149009052Y-38913483D01*
X148983064Y-38877713D01*
X148976548Y-38867793D01*
X148958080Y-38836565D01*
X148958078Y-38836562D01*
X148954042Y-38829738D01*
X148939721Y-38815417D01*
X148926880Y-38800383D01*
X148919631Y-38790406D01*
X148914972Y-38783993D01*
X148880895Y-38755802D01*
X148872116Y-38747812D01*
X147464152Y-37339847D01*
X147456612Y-37331561D01*
X147452500Y-37325082D01*
X147402848Y-37278456D01*
X147400007Y-37275702D01*
X147380270Y-37255965D01*
X147377073Y-37253485D01*
X147368051Y-37245780D01*
X147354622Y-37233169D01*
X147335821Y-37215514D01*
X147328875Y-37211695D01*
X147328872Y-37211693D01*
X147318066Y-37205752D01*
X147301547Y-37194901D01*
X147301083Y-37194541D01*
X147285541Y-37182486D01*
X147278272Y-37179341D01*
X147278268Y-37179338D01*
X147244963Y-37164926D01*
X147234313Y-37159709D01*
X147195560Y-37138405D01*
X147175937Y-37133367D01*
X147157234Y-37126963D01*
X147145920Y-37122067D01*
X147145919Y-37122067D01*
X147138645Y-37118919D01*
X147130822Y-37117680D01*
X147130812Y-37117677D01*
X147094976Y-37112001D01*
X147083356Y-37109595D01*
X147048211Y-37100572D01*
X147048210Y-37100572D01*
X147040530Y-37098600D01*
X147020276Y-37098600D01*
X147000565Y-37097049D01*
X146988386Y-37095120D01*
X146980557Y-37093880D01*
X146951286Y-37096647D01*
X146936539Y-37098041D01*
X146924681Y-37098600D01*
X133021967Y-37098600D01*
X133010784Y-37098073D01*
X133003291Y-37096398D01*
X132995365Y-37096647D01*
X132995364Y-37096647D01*
X132935214Y-37098538D01*
X132931255Y-37098600D01*
X132903344Y-37098600D01*
X132899410Y-37099097D01*
X132899409Y-37099097D01*
X132899344Y-37099105D01*
X132887507Y-37100038D01*
X132855249Y-37101052D01*
X132851230Y-37101178D01*
X132843311Y-37101427D01*
X132823857Y-37107079D01*
X132804500Y-37111087D01*
X132792270Y-37112632D01*
X132792269Y-37112632D01*
X132784403Y-37113626D01*
X132777032Y-37116545D01*
X132777030Y-37116545D01*
X132743288Y-37129904D01*
X132732058Y-37133749D01*
X132697217Y-37143871D01*
X132697216Y-37143871D01*
X132689607Y-37146082D01*
X132682788Y-37150115D01*
X132682783Y-37150117D01*
X132672172Y-37156393D01*
X132654424Y-37165088D01*
X132635583Y-37172548D01*
X132629167Y-37177210D01*
X132629166Y-37177210D01*
X132599813Y-37198536D01*
X132589893Y-37205052D01*
X132558665Y-37223520D01*
X132558662Y-37223522D01*
X132551838Y-37227558D01*
X132537517Y-37241879D01*
X132522484Y-37254719D01*
X132506093Y-37266628D01*
X132497417Y-37277116D01*
X132477902Y-37300705D01*
X132469912Y-37309484D01*
X128688229Y-41091166D01*
X128625917Y-41125192D01*
X128555101Y-41120127D01*
X128505941Y-41086871D01*
X128432798Y-41006488D01*
X128401746Y-40942642D01*
X128410141Y-40872143D01*
X128455317Y-40817375D01*
X128481761Y-40803706D01*
X128588297Y-40763767D01*
X128596705Y-40760615D01*
X128713261Y-40673261D01*
X128800615Y-40556705D01*
X128851745Y-40420316D01*
X128858500Y-40358134D01*
X128858500Y-38561866D01*
X128851745Y-38499684D01*
X128800615Y-38363295D01*
X128713261Y-38246739D01*
X128596705Y-38159385D01*
X128460316Y-38108255D01*
X128398134Y-38101500D01*
X126601866Y-38101500D01*
X126539684Y-38108255D01*
X126403295Y-38159385D01*
X126286739Y-38246739D01*
X126199385Y-38363295D01*
X126148255Y-38499684D01*
X126141500Y-38561866D01*
X126141500Y-40358134D01*
X126148255Y-40420316D01*
X126184675Y-40517465D01*
X126199385Y-40556705D01*
X126198050Y-40557206D01*
X126211185Y-40617252D01*
X126186452Y-40683801D01*
X126174591Y-40697505D01*
X118227247Y-48644848D01*
X118218961Y-48652388D01*
X118212482Y-48656500D01*
X118207057Y-48662277D01*
X118165857Y-48706151D01*
X118163102Y-48708993D01*
X118143365Y-48728730D01*
X118140885Y-48731927D01*
X118133182Y-48740947D01*
X118102914Y-48773179D01*
X118099095Y-48780125D01*
X118099093Y-48780128D01*
X118093152Y-48790934D01*
X118082301Y-48807453D01*
X118069886Y-48823459D01*
X118066741Y-48830728D01*
X118066738Y-48830732D01*
X118052326Y-48864037D01*
X118047109Y-48874687D01*
X118025805Y-48913440D01*
X118023834Y-48921115D01*
X118023834Y-48921116D01*
X118020767Y-48933062D01*
X118014363Y-48951766D01*
X118010620Y-48960417D01*
X118006319Y-48970355D01*
X118005080Y-48978178D01*
X118005077Y-48978188D01*
X117999401Y-49014024D01*
X117996995Y-49025644D01*
X117994672Y-49034693D01*
X117986000Y-49068470D01*
X117986000Y-49088724D01*
X117984449Y-49108434D01*
X117981280Y-49128443D01*
X117982026Y-49136335D01*
X117985441Y-49172461D01*
X117986000Y-49184319D01*
X117986000Y-50346833D01*
X117985473Y-50358016D01*
X117983798Y-50365509D01*
X117984047Y-50373435D01*
X117984047Y-50373436D01*
X117985938Y-50433586D01*
X117986000Y-50437545D01*
X117986000Y-50465456D01*
X117986497Y-50469390D01*
X117986497Y-50469391D01*
X117986505Y-50469456D01*
X117987438Y-50481293D01*
X117988827Y-50525489D01*
X117993118Y-50540258D01*
X117994478Y-50544939D01*
X117998487Y-50564300D01*
X118001026Y-50584397D01*
X118003945Y-50591768D01*
X118003945Y-50591770D01*
X118017304Y-50625512D01*
X118021149Y-50636742D01*
X118030147Y-50667715D01*
X118033482Y-50679193D01*
X118037515Y-50686012D01*
X118037517Y-50686017D01*
X118043793Y-50696628D01*
X118052488Y-50714376D01*
X118059948Y-50733217D01*
X118064610Y-50739633D01*
X118064610Y-50739634D01*
X118085936Y-50768987D01*
X118092452Y-50778907D01*
X118107228Y-50803891D01*
X118114958Y-50816962D01*
X118129279Y-50831283D01*
X118142119Y-50846316D01*
X118154028Y-50862707D01*
X118160134Y-50867758D01*
X118188105Y-50890898D01*
X118196884Y-50898888D01*
X124940248Y-57642253D01*
X124947788Y-57650539D01*
X124951900Y-57657018D01*
X124957677Y-57662443D01*
X125001551Y-57703643D01*
X125004393Y-57706398D01*
X125024130Y-57726135D01*
X125027327Y-57728615D01*
X125036347Y-57736318D01*
X125068579Y-57766586D01*
X125075525Y-57770405D01*
X125075528Y-57770407D01*
X125086334Y-57776348D01*
X125102853Y-57787199D01*
X125118859Y-57799614D01*
X125126128Y-57802759D01*
X125126132Y-57802762D01*
X125159437Y-57817174D01*
X125170087Y-57822391D01*
X125208840Y-57843695D01*
X125216515Y-57845666D01*
X125216516Y-57845666D01*
X125228462Y-57848733D01*
X125247167Y-57855137D01*
X125265755Y-57863181D01*
X125273578Y-57864420D01*
X125273588Y-57864423D01*
X125309424Y-57870099D01*
X125321044Y-57872505D01*
X125356189Y-57881528D01*
X125363870Y-57883500D01*
X125384124Y-57883500D01*
X125403834Y-57885051D01*
X125423843Y-57888220D01*
X125431735Y-57887474D01*
X125467861Y-57884059D01*
X125479719Y-57883500D01*
X134810306Y-57883500D01*
X134878427Y-57903502D01*
X134899401Y-57920405D01*
X136706784Y-59727788D01*
X136740810Y-59790100D01*
X136735745Y-59860915D01*
X136693198Y-59917751D01*
X136626678Y-59942562D01*
X136604082Y-59942146D01*
X136601533Y-59941869D01*
X136601529Y-59941869D01*
X136598134Y-59941500D01*
X135401866Y-59941500D01*
X135339684Y-59948255D01*
X135203295Y-59999385D01*
X135086739Y-60086739D01*
X134999385Y-60203295D01*
X134948255Y-60339684D01*
X134947402Y-60347540D01*
X134944341Y-60375714D01*
X134917099Y-60441276D01*
X134906763Y-60451915D01*
X134907029Y-60452181D01*
X134372022Y-60987188D01*
X134364408Y-61001132D01*
X134364539Y-61002965D01*
X134368790Y-61009580D01*
X134906147Y-61546937D01*
X134902978Y-61550106D01*
X134929584Y-61576716D01*
X134944254Y-61623483D01*
X134948255Y-61660316D01*
X134999385Y-61796705D01*
X135086739Y-61913261D01*
X135203295Y-62000615D01*
X135211703Y-62003767D01*
X135284730Y-62031144D01*
X135341494Y-62073786D01*
X135366194Y-62140348D01*
X135366500Y-62149126D01*
X135366500Y-65405433D01*
X135365973Y-65416616D01*
X135364298Y-65424109D01*
X135364547Y-65432035D01*
X135364547Y-65432036D01*
X135366438Y-65492186D01*
X135366500Y-65496145D01*
X135366500Y-65524056D01*
X135366997Y-65527990D01*
X135366997Y-65527991D01*
X135367005Y-65528056D01*
X135367938Y-65539893D01*
X135369327Y-65584089D01*
X135374978Y-65603539D01*
X135378987Y-65622900D01*
X135381526Y-65642997D01*
X135384445Y-65650368D01*
X135384445Y-65650370D01*
X135397804Y-65684112D01*
X135401649Y-65695342D01*
X135413982Y-65737793D01*
X135418015Y-65744612D01*
X135418017Y-65744617D01*
X135424293Y-65755228D01*
X135432988Y-65772976D01*
X135440448Y-65791817D01*
X135445110Y-65798233D01*
X135445110Y-65798234D01*
X135466436Y-65827587D01*
X135472952Y-65837507D01*
X135495458Y-65875562D01*
X135509779Y-65889883D01*
X135522619Y-65904916D01*
X135534528Y-65921307D01*
X135540634Y-65926358D01*
X135568605Y-65949498D01*
X135577384Y-65957488D01*
X138311548Y-68691653D01*
X138319088Y-68699939D01*
X138323200Y-68706418D01*
X138328977Y-68711843D01*
X138372851Y-68753043D01*
X138375693Y-68755798D01*
X138395430Y-68775535D01*
X138398627Y-68778015D01*
X138407647Y-68785718D01*
X138439879Y-68815986D01*
X138446825Y-68819805D01*
X138446828Y-68819807D01*
X138457634Y-68825748D01*
X138474153Y-68836599D01*
X138490159Y-68849014D01*
X138497428Y-68852159D01*
X138497432Y-68852162D01*
X138530737Y-68866574D01*
X138541387Y-68871791D01*
X138580140Y-68893095D01*
X138587815Y-68895066D01*
X138587816Y-68895066D01*
X138599762Y-68898133D01*
X138618467Y-68904537D01*
X138637055Y-68912581D01*
X138644878Y-68913820D01*
X138644888Y-68913823D01*
X138680724Y-68919499D01*
X138692344Y-68921905D01*
X138719072Y-68928767D01*
X138735170Y-68932900D01*
X138755424Y-68932900D01*
X138775134Y-68934451D01*
X138795143Y-68937620D01*
X138803035Y-68936874D01*
X138821780Y-68935102D01*
X138839162Y-68933459D01*
X138851019Y-68932900D01*
X142321533Y-68932900D01*
X142332716Y-68933427D01*
X142340209Y-68935102D01*
X142348135Y-68934853D01*
X142348136Y-68934853D01*
X142408286Y-68932962D01*
X142412245Y-68932900D01*
X142440156Y-68932900D01*
X142444091Y-68932403D01*
X142444156Y-68932395D01*
X142455993Y-68931462D01*
X142488251Y-68930448D01*
X142492270Y-68930322D01*
X142500189Y-68930073D01*
X142519643Y-68924421D01*
X142539000Y-68920413D01*
X142551230Y-68918868D01*
X142551231Y-68918868D01*
X142559097Y-68917874D01*
X142566468Y-68914955D01*
X142566470Y-68914955D01*
X142600212Y-68901596D01*
X142611442Y-68897751D01*
X142646283Y-68887629D01*
X142646284Y-68887629D01*
X142653893Y-68885418D01*
X142660712Y-68881385D01*
X142660717Y-68881383D01*
X142671328Y-68875107D01*
X142689076Y-68866412D01*
X142707917Y-68858952D01*
X142743687Y-68832964D01*
X142753612Y-68826445D01*
X142762561Y-68821153D01*
X142831377Y-68803696D01*
X142898708Y-68826215D01*
X142909449Y-68835206D01*
X142911739Y-68838261D01*
X143028295Y-68925615D01*
X143164684Y-68976745D01*
X143226866Y-68983500D01*
X144473134Y-68983500D01*
X144535316Y-68976745D01*
X144671705Y-68925615D01*
X144678892Y-68920229D01*
X144686760Y-68915921D01*
X144688073Y-68918319D01*
X144741347Y-68898409D01*
X144810731Y-68913455D01*
X144816155Y-68916941D01*
X144836946Y-68928324D01*
X144957394Y-68973478D01*
X144972649Y-68977105D01*
X145023514Y-68982631D01*
X145030328Y-68983000D01*
X145377885Y-68983000D01*
X145393124Y-68978525D01*
X145394329Y-68977135D01*
X145396000Y-68969452D01*
X145396000Y-68964884D01*
X145904000Y-68964884D01*
X145908475Y-68980123D01*
X145909865Y-68981328D01*
X145917548Y-68982999D01*
X146269669Y-68982999D01*
X146276490Y-68982629D01*
X146327352Y-68977105D01*
X146342604Y-68973479D01*
X146463054Y-68928324D01*
X146478649Y-68919786D01*
X146580724Y-68843285D01*
X146593285Y-68830724D01*
X146669786Y-68728649D01*
X146678324Y-68713054D01*
X146723478Y-68592606D01*
X146727105Y-68577351D01*
X146732631Y-68526486D01*
X146733000Y-68519672D01*
X146733000Y-68022115D01*
X146728525Y-68006876D01*
X146727135Y-68005671D01*
X146719452Y-68004000D01*
X145922115Y-68004000D01*
X145906876Y-68008475D01*
X145905671Y-68009865D01*
X145904000Y-68017548D01*
X145904000Y-68964884D01*
X145396000Y-68964884D01*
X145396000Y-67477885D01*
X145904000Y-67477885D01*
X145908475Y-67493124D01*
X145909865Y-67494329D01*
X145917548Y-67496000D01*
X146714884Y-67496000D01*
X146730123Y-67491525D01*
X146731328Y-67490135D01*
X146732999Y-67482452D01*
X146732999Y-66980331D01*
X146732629Y-66973510D01*
X146727105Y-66922648D01*
X146723479Y-66907396D01*
X146678324Y-66786946D01*
X146669786Y-66771351D01*
X146593285Y-66669276D01*
X146580724Y-66656715D01*
X146478649Y-66580214D01*
X146463054Y-66571676D01*
X146342606Y-66526522D01*
X146327351Y-66522895D01*
X146276486Y-66517369D01*
X146269672Y-66517000D01*
X145922115Y-66517000D01*
X145906876Y-66521475D01*
X145905671Y-66522865D01*
X145904000Y-66530548D01*
X145904000Y-67477885D01*
X145396000Y-67477885D01*
X145396000Y-66535116D01*
X145391525Y-66519877D01*
X145390135Y-66518672D01*
X145382452Y-66517001D01*
X145030331Y-66517001D01*
X145023510Y-66517371D01*
X144972648Y-66522895D01*
X144957396Y-66526521D01*
X144836946Y-66571676D01*
X144813483Y-66584522D01*
X144812069Y-66581940D01*
X144759488Y-66601591D01*
X144690104Y-66586545D01*
X144683431Y-66582256D01*
X144678890Y-66579770D01*
X144671705Y-66574385D01*
X144535316Y-66523255D01*
X144473134Y-66516500D01*
X143226866Y-66516500D01*
X143164684Y-66523255D01*
X143028295Y-66574385D01*
X142911739Y-66661739D01*
X142824385Y-66778295D01*
X142773255Y-66914684D01*
X142766500Y-66976866D01*
X142766500Y-67051836D01*
X142746498Y-67119957D01*
X142695622Y-67163160D01*
X142696108Y-67163981D01*
X142691324Y-67166810D01*
X142691321Y-67166812D01*
X142689284Y-67168017D01*
X142689282Y-67168018D01*
X142678672Y-67174293D01*
X142660924Y-67182988D01*
X142642083Y-67190448D01*
X142635667Y-67195110D01*
X142635666Y-67195110D01*
X142606313Y-67216436D01*
X142596393Y-67222952D01*
X142565165Y-67241420D01*
X142565162Y-67241422D01*
X142558338Y-67245458D01*
X142544017Y-67259779D01*
X142528984Y-67272619D01*
X142512593Y-67284528D01*
X142499769Y-67300030D01*
X142484412Y-67318593D01*
X142476422Y-67327374D01*
X142174799Y-67628996D01*
X142112487Y-67663021D01*
X142085704Y-67665900D01*
X141520138Y-67665900D01*
X141452017Y-67645898D01*
X141405524Y-67592242D01*
X141395420Y-67521968D01*
X141409722Y-67479204D01*
X141422995Y-67455060D01*
X141424965Y-67447385D01*
X141424968Y-67447379D01*
X141425044Y-67447081D01*
X141433076Y-67424772D01*
X141433206Y-67424497D01*
X141433209Y-67424489D01*
X141436583Y-67417318D01*
X141447106Y-67362151D01*
X141448832Y-67354429D01*
X141460829Y-67307707D01*
X141460829Y-67307706D01*
X141462800Y-67300030D01*
X141462800Y-67291793D01*
X141465032Y-67268184D01*
X141465090Y-67267881D01*
X141465090Y-67267877D01*
X141466575Y-67260094D01*
X141463049Y-67204049D01*
X141462800Y-67196138D01*
X141462800Y-65809994D01*
X141482802Y-65741873D01*
X141499705Y-65720899D01*
X143200200Y-64020405D01*
X143262512Y-63986379D01*
X143289295Y-63983500D01*
X143616116Y-63983500D01*
X143684237Y-64003502D01*
X143730730Y-64057158D01*
X143740826Y-64098207D01*
X143741500Y-64098134D01*
X143748255Y-64160316D01*
X143799385Y-64296705D01*
X143886739Y-64413261D01*
X144003295Y-64500615D01*
X144139684Y-64551745D01*
X144201866Y-64558500D01*
X145298134Y-64558500D01*
X145360316Y-64551745D01*
X145496705Y-64500615D01*
X145613261Y-64413261D01*
X145700615Y-64296705D01*
X145751745Y-64160316D01*
X145758500Y-64098134D01*
X145758500Y-62601866D01*
X145751745Y-62539684D01*
X145747451Y-62528230D01*
X145747204Y-62524851D01*
X145747144Y-62524600D01*
X145747185Y-62524590D01*
X145742268Y-62457423D01*
X145776188Y-62395054D01*
X145838443Y-62360925D01*
X145865433Y-62358000D01*
X146244668Y-62357999D01*
X146251490Y-62357629D01*
X146302352Y-62352105D01*
X146317604Y-62348479D01*
X146438054Y-62303324D01*
X146453649Y-62294786D01*
X146555724Y-62218285D01*
X146568285Y-62205724D01*
X146644786Y-62103649D01*
X146653324Y-62088054D01*
X146698478Y-61967606D01*
X146702105Y-61952351D01*
X146707631Y-61901486D01*
X146708000Y-61894672D01*
X146708000Y-61422115D01*
X146703525Y-61406876D01*
X146702135Y-61405671D01*
X146694452Y-61404000D01*
X145572000Y-61404000D01*
X145503879Y-61383998D01*
X145457386Y-61330342D01*
X145446000Y-61278000D01*
X145446000Y-60877885D01*
X145954000Y-60877885D01*
X145958475Y-60893124D01*
X145959865Y-60894329D01*
X145967548Y-60896000D01*
X146689884Y-60896000D01*
X146705123Y-60891525D01*
X146706328Y-60890135D01*
X146707999Y-60882452D01*
X146707999Y-60405331D01*
X146707629Y-60398510D01*
X146702105Y-60347648D01*
X146698479Y-60332396D01*
X146653324Y-60211946D01*
X146644786Y-60196351D01*
X146568285Y-60094276D01*
X146555724Y-60081715D01*
X146453649Y-60005214D01*
X146438054Y-59996676D01*
X146317606Y-59951522D01*
X146302351Y-59947895D01*
X146251486Y-59942369D01*
X146244672Y-59942000D01*
X145972115Y-59942000D01*
X145956876Y-59946475D01*
X145955671Y-59947865D01*
X145954000Y-59955548D01*
X145954000Y-60877885D01*
X145446000Y-60877885D01*
X145446000Y-59960116D01*
X145441525Y-59944877D01*
X145440135Y-59943672D01*
X145432452Y-59942001D01*
X145155331Y-59942001D01*
X145148510Y-59942371D01*
X145097648Y-59947895D01*
X145082396Y-59951521D01*
X144961946Y-59996676D01*
X144946351Y-60005214D01*
X144844276Y-60081715D01*
X144839452Y-60086539D01*
X144777140Y-60120565D01*
X144706325Y-60115500D01*
X144664829Y-60088832D01*
X144663261Y-60086739D01*
X144546705Y-59999385D01*
X144410316Y-59948255D01*
X144348134Y-59941500D01*
X143251866Y-59941500D01*
X143189684Y-59948255D01*
X143053295Y-59999385D01*
X142936739Y-60086739D01*
X142849385Y-60203295D01*
X142798255Y-60339684D01*
X142791500Y-60401866D01*
X142790361Y-60401742D01*
X142768289Y-60464234D01*
X142712206Y-60507768D01*
X142666116Y-60516500D01*
X142030395Y-60516500D01*
X141962274Y-60496498D01*
X141941300Y-60479595D01*
X141780052Y-60318347D01*
X141772512Y-60310061D01*
X141768400Y-60303582D01*
X141718748Y-60256956D01*
X141715907Y-60254202D01*
X141696170Y-60234465D01*
X141692973Y-60231985D01*
X141683951Y-60224280D01*
X141657500Y-60199441D01*
X141651721Y-60194014D01*
X141644775Y-60190195D01*
X141644772Y-60190193D01*
X141633966Y-60184252D01*
X141617447Y-60173401D01*
X141616983Y-60173041D01*
X141601441Y-60160986D01*
X141594172Y-60157841D01*
X141594168Y-60157838D01*
X141560863Y-60143426D01*
X141550213Y-60138209D01*
X141511460Y-60116905D01*
X141491837Y-60111867D01*
X141473134Y-60105463D01*
X141461820Y-60100567D01*
X141461819Y-60100567D01*
X141454545Y-60097419D01*
X141446722Y-60096180D01*
X141446712Y-60096177D01*
X141410876Y-60090501D01*
X141399256Y-60088095D01*
X141364111Y-60079072D01*
X141364110Y-60079072D01*
X141356430Y-60077100D01*
X141336176Y-60077100D01*
X141316465Y-60075549D01*
X141304286Y-60073620D01*
X141296457Y-60072380D01*
X141288565Y-60073126D01*
X141252439Y-60076541D01*
X141240581Y-60077100D01*
X141093405Y-60077100D01*
X141025284Y-60057098D01*
X140978791Y-60003442D01*
X140968687Y-59933168D01*
X140971698Y-59918489D01*
X140996646Y-59825381D01*
X140998070Y-59820068D01*
X141017323Y-59600000D01*
X140998070Y-59379932D01*
X140940894Y-59166550D01*
X140847534Y-58966339D01*
X140720826Y-58785380D01*
X140564620Y-58629174D01*
X140560112Y-58626017D01*
X140560109Y-58626015D01*
X140388171Y-58505623D01*
X140388168Y-58505621D01*
X140383662Y-58502466D01*
X140378680Y-58500143D01*
X140378675Y-58500140D01*
X140258107Y-58443919D01*
X140204822Y-58397002D01*
X140185361Y-58328725D01*
X140205903Y-58260765D01*
X140258107Y-58215529D01*
X140378424Y-58159425D01*
X140387919Y-58153942D01*
X140430021Y-58124462D01*
X140438396Y-58113985D01*
X140431328Y-58100538D01*
X139762812Y-57432022D01*
X139748868Y-57424408D01*
X139747035Y-57424539D01*
X139740420Y-57428790D01*
X139067951Y-58101259D01*
X139061521Y-58113034D01*
X139070817Y-58125049D01*
X139112081Y-58153942D01*
X139121576Y-58159425D01*
X139241893Y-58215529D01*
X139295178Y-58262446D01*
X139314639Y-58330723D01*
X139294097Y-58398683D01*
X139241893Y-58443919D01*
X139121320Y-58500143D01*
X139121317Y-58500145D01*
X139116339Y-58502466D01*
X138935380Y-58629174D01*
X138779174Y-58785380D01*
X138652466Y-58966339D01*
X138559106Y-59166550D01*
X138501930Y-59379932D01*
X138501451Y-59385411D01*
X138497227Y-59433692D01*
X138471364Y-59499810D01*
X138413861Y-59541450D01*
X138342974Y-59545391D01*
X138282611Y-59511806D01*
X135628552Y-56857747D01*
X135621012Y-56849461D01*
X135616900Y-56842982D01*
X135567248Y-56796356D01*
X135564407Y-56793602D01*
X135544670Y-56773865D01*
X135541473Y-56771385D01*
X135532451Y-56763680D01*
X135529516Y-56760924D01*
X135500221Y-56733414D01*
X135493275Y-56729595D01*
X135493272Y-56729593D01*
X135482466Y-56723652D01*
X135465947Y-56712801D01*
X135464531Y-56711703D01*
X135449941Y-56700386D01*
X135442672Y-56697241D01*
X135442668Y-56697238D01*
X135409363Y-56682826D01*
X135398713Y-56677609D01*
X135359960Y-56656305D01*
X135340337Y-56651267D01*
X135321634Y-56644863D01*
X135310320Y-56639967D01*
X135310319Y-56639967D01*
X135303045Y-56636819D01*
X135295222Y-56635580D01*
X135295212Y-56635577D01*
X135259376Y-56629901D01*
X135247756Y-56627495D01*
X135212611Y-56618472D01*
X135212610Y-56618472D01*
X135204930Y-56616500D01*
X135184676Y-56616500D01*
X135164965Y-56614949D01*
X135152786Y-56613020D01*
X135144957Y-56611780D01*
X135137065Y-56612526D01*
X135100939Y-56615941D01*
X135089081Y-56616500D01*
X125758494Y-56616500D01*
X125690373Y-56596498D01*
X125669399Y-56579595D01*
X123495682Y-54405877D01*
X133458953Y-54405877D01*
X133463863Y-54412435D01*
X133569004Y-54471198D01*
X133580242Y-54476107D01*
X133765852Y-54536415D01*
X133777826Y-54539048D01*
X133971624Y-54562157D01*
X133983873Y-54562414D01*
X134178467Y-54547441D01*
X134190547Y-54545310D01*
X134378514Y-54492828D01*
X134389947Y-54488394D01*
X134532726Y-54416271D01*
X134543010Y-54406626D01*
X134540772Y-54399982D01*
X134012812Y-53872022D01*
X133998868Y-53864408D01*
X133997035Y-53864539D01*
X133990420Y-53868790D01*
X133465713Y-54393497D01*
X133458953Y-54405877D01*
X123495682Y-54405877D01*
X122581106Y-53491301D01*
X132937501Y-53491301D01*
X132953831Y-53685774D01*
X132956044Y-53697833D01*
X133009839Y-53885438D01*
X133014355Y-53896843D01*
X133084012Y-54032381D01*
X133093733Y-54042602D01*
X133100532Y-54040258D01*
X133627978Y-53512812D01*
X133635592Y-53498868D01*
X133635461Y-53497035D01*
X133631210Y-53490420D01*
X133106302Y-52965512D01*
X133093922Y-52958752D01*
X133087534Y-52963534D01*
X133025816Y-53075798D01*
X133020988Y-53087062D01*
X132961975Y-53273095D01*
X132959427Y-53285084D01*
X132937672Y-53479032D01*
X132937501Y-53491301D01*
X122581106Y-53491301D01*
X121683852Y-52594047D01*
X133457766Y-52594047D01*
X133460221Y-52601011D01*
X133987188Y-53127978D01*
X134001132Y-53135592D01*
X134002965Y-53135461D01*
X134009580Y-53131210D01*
X134534729Y-52606061D01*
X134541489Y-52593681D01*
X134536830Y-52587458D01*
X134417395Y-52522881D01*
X134406088Y-52518128D01*
X134219656Y-52460417D01*
X134207644Y-52457951D01*
X134013550Y-52437551D01*
X134001282Y-52437466D01*
X133806930Y-52455153D01*
X133794881Y-52457451D01*
X133607658Y-52512554D01*
X133596290Y-52517147D01*
X133467915Y-52584260D01*
X133457766Y-52594047D01*
X121683852Y-52594047D01*
X120084967Y-50995162D01*
X120056486Y-50943004D01*
X120055390Y-50943373D01*
X120053301Y-50937172D01*
X120050941Y-50932850D01*
X120050982Y-50930289D01*
X120040772Y-50899982D01*
X119289905Y-50149115D01*
X119255879Y-50086803D01*
X119253000Y-50060020D01*
X119253000Y-49939980D01*
X119273002Y-49871859D01*
X119289905Y-49850885D01*
X120034729Y-49106061D01*
X120041489Y-49093681D01*
X120036830Y-49087458D01*
X119917395Y-49022881D01*
X119900408Y-49015740D01*
X119900949Y-49014454D01*
X119847674Y-48979101D01*
X119819132Y-48914094D01*
X119830266Y-48843976D01*
X119855004Y-48808900D01*
X122734731Y-45929174D01*
X126081976Y-42581929D01*
X126144288Y-42547903D01*
X126215103Y-42552968D01*
X126271939Y-42595515D01*
X126282280Y-42612188D01*
X126283266Y-42614616D01*
X126399987Y-42805088D01*
X126546250Y-42973938D01*
X126718126Y-43116632D01*
X126753249Y-43137156D01*
X126791445Y-43159476D01*
X126840169Y-43211114D01*
X126853240Y-43280897D01*
X126826509Y-43346669D01*
X126786055Y-43380027D01*
X126773607Y-43386507D01*
X126769474Y-43389610D01*
X126769471Y-43389612D01*
X126691241Y-43448349D01*
X126594965Y-43520635D01*
X126529346Y-43589301D01*
X126452031Y-43670207D01*
X126440629Y-43682138D01*
X126314743Y-43866680D01*
X126276011Y-43950121D01*
X126239471Y-44028841D01*
X126220688Y-44069305D01*
X126160989Y-44284570D01*
X126137251Y-44506695D01*
X126137548Y-44511848D01*
X126137548Y-44511851D01*
X126143011Y-44606590D01*
X126150110Y-44729715D01*
X126151247Y-44734761D01*
X126151248Y-44734767D01*
X126165274Y-44797004D01*
X126199222Y-44947639D01*
X126283266Y-45154616D01*
X126297911Y-45178515D01*
X126382794Y-45317031D01*
X126399987Y-45345088D01*
X126546250Y-45513938D01*
X126718126Y-45656632D01*
X126911000Y-45769338D01*
X127119692Y-45849030D01*
X127124760Y-45850061D01*
X127124763Y-45850062D01*
X127232017Y-45871883D01*
X127338597Y-45893567D01*
X127343772Y-45893757D01*
X127343774Y-45893757D01*
X127556673Y-45901564D01*
X127556677Y-45901564D01*
X127561837Y-45901753D01*
X127566957Y-45901097D01*
X127566959Y-45901097D01*
X127778288Y-45874025D01*
X127778289Y-45874025D01*
X127783416Y-45873368D01*
X127788366Y-45871883D01*
X127992429Y-45810661D01*
X127992434Y-45810659D01*
X127997384Y-45809174D01*
X128197994Y-45710896D01*
X128379860Y-45581173D01*
X128383515Y-45577531D01*
X128383523Y-45577524D01*
X128511506Y-45449988D01*
X128573877Y-45416072D01*
X128644684Y-45421261D01*
X128689540Y-45450144D01*
X129346943Y-46107547D01*
X129354487Y-46115837D01*
X129358600Y-46122318D01*
X129364377Y-46127743D01*
X129408267Y-46168958D01*
X129411109Y-46171713D01*
X129430830Y-46191434D01*
X129434025Y-46193912D01*
X129443047Y-46201618D01*
X129475279Y-46231886D01*
X129482228Y-46235706D01*
X129493032Y-46241646D01*
X129509556Y-46252499D01*
X129525559Y-46264913D01*
X129566143Y-46282476D01*
X129576773Y-46287683D01*
X129615540Y-46308995D01*
X129623217Y-46310966D01*
X129623222Y-46310968D01*
X129635158Y-46314032D01*
X129653866Y-46320437D01*
X129672455Y-46328481D01*
X129680283Y-46329721D01*
X129680290Y-46329723D01*
X129716124Y-46335399D01*
X129727744Y-46337805D01*
X129762889Y-46346828D01*
X129770570Y-46348800D01*
X129790824Y-46348800D01*
X129810534Y-46350351D01*
X129830543Y-46353520D01*
X129838435Y-46352774D01*
X129874561Y-46349359D01*
X129886419Y-46348800D01*
X132894210Y-46348800D01*
X132962331Y-46368802D01*
X133008824Y-46422458D01*
X133018928Y-46492732D01*
X133008498Y-46527850D01*
X132970688Y-46609305D01*
X132910989Y-46824570D01*
X132910440Y-46829704D01*
X132910440Y-46829706D01*
X132900631Y-46921490D01*
X132873503Y-46987099D01*
X132815210Y-47027627D01*
X132775344Y-47034100D01*
X124786468Y-47034100D01*
X124775285Y-47033573D01*
X124767792Y-47031898D01*
X124759866Y-47032147D01*
X124759865Y-47032147D01*
X124699702Y-47034038D01*
X124695744Y-47034100D01*
X124667844Y-47034100D01*
X124663854Y-47034604D01*
X124652020Y-47035536D01*
X124607811Y-47036926D01*
X124600197Y-47039138D01*
X124600192Y-47039139D01*
X124588359Y-47042577D01*
X124568996Y-47046588D01*
X124548903Y-47049126D01*
X124541536Y-47052043D01*
X124541531Y-47052044D01*
X124507792Y-47065402D01*
X124496565Y-47069246D01*
X124454107Y-47081582D01*
X124447281Y-47085619D01*
X124436672Y-47091893D01*
X124418924Y-47100588D01*
X124400083Y-47108048D01*
X124393667Y-47112710D01*
X124393666Y-47112710D01*
X124364313Y-47134036D01*
X124354393Y-47140552D01*
X124323165Y-47159020D01*
X124323162Y-47159022D01*
X124316338Y-47163058D01*
X124302017Y-47177379D01*
X124286984Y-47190219D01*
X124270593Y-47202128D01*
X124265542Y-47208234D01*
X124242402Y-47236205D01*
X124234412Y-47244984D01*
X122478728Y-49000667D01*
X122416416Y-49034693D01*
X122345600Y-49029628D01*
X122314071Y-49012400D01*
X122296705Y-48999385D01*
X122160316Y-48948255D01*
X122098134Y-48941500D01*
X120901866Y-48941500D01*
X120839684Y-48948255D01*
X120703295Y-48999385D01*
X120586739Y-49086739D01*
X120499385Y-49203295D01*
X120448255Y-49339684D01*
X120445437Y-49365622D01*
X120444341Y-49375714D01*
X120417099Y-49441276D01*
X120406763Y-49451915D01*
X120407029Y-49452181D01*
X119872022Y-49987188D01*
X119864408Y-50001132D01*
X119864539Y-50002965D01*
X119868790Y-50009580D01*
X120406147Y-50546937D01*
X120402978Y-50550106D01*
X120429584Y-50576716D01*
X120444254Y-50623483D01*
X120448255Y-50660316D01*
X120499385Y-50796705D01*
X120586739Y-50913261D01*
X120703295Y-51000615D01*
X120839684Y-51051745D01*
X120901866Y-51058500D01*
X122098134Y-51058500D01*
X122160316Y-51051745D01*
X122296705Y-51000615D01*
X122413261Y-50913261D01*
X122418795Y-50905877D01*
X126958953Y-50905877D01*
X126963863Y-50912435D01*
X127069004Y-50971198D01*
X127080242Y-50976107D01*
X127265852Y-51036415D01*
X127277826Y-51039048D01*
X127471624Y-51062157D01*
X127483873Y-51062414D01*
X127678467Y-51047441D01*
X127690547Y-51045310D01*
X127878514Y-50992828D01*
X127889947Y-50988394D01*
X128032726Y-50916271D01*
X128043010Y-50906626D01*
X128040772Y-50899982D01*
X127512812Y-50372022D01*
X127498868Y-50364408D01*
X127497035Y-50364539D01*
X127490420Y-50368790D01*
X126965713Y-50893497D01*
X126958953Y-50905877D01*
X122418795Y-50905877D01*
X122500615Y-50796705D01*
X122551740Y-50660329D01*
X122594381Y-50603564D01*
X122619684Y-50588920D01*
X122621278Y-50588230D01*
X122628893Y-50586018D01*
X122635713Y-50581985D01*
X122635719Y-50581982D01*
X122646328Y-50575707D01*
X122664076Y-50567012D01*
X122682917Y-50559552D01*
X122703031Y-50544939D01*
X122718687Y-50533564D01*
X122728607Y-50527048D01*
X122759835Y-50508580D01*
X122759838Y-50508578D01*
X122766662Y-50504542D01*
X122780983Y-50490221D01*
X122796017Y-50477380D01*
X122805994Y-50470131D01*
X122812407Y-50465472D01*
X122840598Y-50431395D01*
X122848588Y-50422616D01*
X123279903Y-49991301D01*
X126437501Y-49991301D01*
X126453831Y-50185774D01*
X126456044Y-50197833D01*
X126509839Y-50385438D01*
X126514355Y-50396843D01*
X126584012Y-50532381D01*
X126593733Y-50542602D01*
X126600532Y-50540258D01*
X127127978Y-50012812D01*
X127134356Y-50001132D01*
X127864408Y-50001132D01*
X127864539Y-50002965D01*
X127868790Y-50009580D01*
X128406147Y-50546937D01*
X128402978Y-50550106D01*
X128429584Y-50576716D01*
X128444254Y-50623483D01*
X128448255Y-50660316D01*
X128499385Y-50796705D01*
X128586739Y-50913261D01*
X128703295Y-51000615D01*
X128839684Y-51051745D01*
X128901866Y-51058500D01*
X130098134Y-51058500D01*
X130160316Y-51051745D01*
X130296705Y-51000615D01*
X130413261Y-50913261D01*
X130500615Y-50796705D01*
X130551745Y-50660316D01*
X130558500Y-50598134D01*
X130558500Y-49401866D01*
X130551745Y-49339684D01*
X130500615Y-49203295D01*
X130413261Y-49086739D01*
X130296705Y-48999385D01*
X130160316Y-48948255D01*
X130098134Y-48941500D01*
X128901866Y-48941500D01*
X128839684Y-48948255D01*
X128703295Y-48999385D01*
X128586739Y-49086739D01*
X128499385Y-49203295D01*
X128448255Y-49339684D01*
X128445437Y-49365622D01*
X128444341Y-49375714D01*
X128417099Y-49441276D01*
X128406763Y-49451915D01*
X128407029Y-49452181D01*
X127872022Y-49987188D01*
X127864408Y-50001132D01*
X127134356Y-50001132D01*
X127135592Y-49998868D01*
X127135461Y-49997035D01*
X127131210Y-49990420D01*
X126606302Y-49465512D01*
X126593922Y-49458752D01*
X126587534Y-49463534D01*
X126525816Y-49575798D01*
X126520988Y-49587062D01*
X126461975Y-49773095D01*
X126459427Y-49785084D01*
X126437672Y-49979032D01*
X126437501Y-49991301D01*
X123279903Y-49991301D01*
X124177157Y-49094047D01*
X126957766Y-49094047D01*
X126960221Y-49101011D01*
X127487188Y-49627978D01*
X127501132Y-49635592D01*
X127502965Y-49635461D01*
X127509580Y-49631210D01*
X128034729Y-49106061D01*
X128041489Y-49093681D01*
X128036830Y-49087458D01*
X127917395Y-49022881D01*
X127906088Y-49018128D01*
X127719656Y-48960417D01*
X127707644Y-48957951D01*
X127513550Y-48937551D01*
X127501282Y-48937466D01*
X127306930Y-48955153D01*
X127294881Y-48957451D01*
X127107658Y-49012554D01*
X127096290Y-49017147D01*
X126967915Y-49084260D01*
X126957766Y-49094047D01*
X124177157Y-49094047D01*
X124933199Y-48338005D01*
X124995511Y-48303979D01*
X125022294Y-48301100D01*
X133506168Y-48301100D01*
X133574289Y-48321102D01*
X133620782Y-48374758D01*
X133627616Y-48398800D01*
X133628562Y-48398557D01*
X133630532Y-48406230D01*
X133631526Y-48414097D01*
X133634445Y-48421468D01*
X133634445Y-48421470D01*
X133647804Y-48455212D01*
X133651649Y-48466442D01*
X133655722Y-48480461D01*
X133663982Y-48508893D01*
X133668015Y-48515712D01*
X133668017Y-48515717D01*
X133674293Y-48526328D01*
X133682988Y-48544076D01*
X133690448Y-48562917D01*
X133695110Y-48569333D01*
X133695110Y-48569334D01*
X133716436Y-48598687D01*
X133722952Y-48608607D01*
X133736292Y-48631163D01*
X133745458Y-48646662D01*
X133759779Y-48660983D01*
X133772619Y-48676016D01*
X133784528Y-48692407D01*
X133790634Y-48697458D01*
X133818605Y-48720598D01*
X133827384Y-48728588D01*
X138715072Y-53616277D01*
X138749097Y-53678587D01*
X138744032Y-53749402D01*
X138729189Y-53777641D01*
X138656052Y-53882091D01*
X138650578Y-53891571D01*
X138571498Y-54061158D01*
X138524580Y-54114443D01*
X138456303Y-54133904D01*
X138388343Y-54113362D01*
X138368208Y-54097003D01*
X137378952Y-53107747D01*
X137371412Y-53099461D01*
X137367300Y-53092982D01*
X137317648Y-53046356D01*
X137314807Y-53043602D01*
X137295070Y-53023865D01*
X137291873Y-53021385D01*
X137282851Y-53013680D01*
X137264946Y-52996866D01*
X137250621Y-52983414D01*
X137243675Y-52979595D01*
X137243672Y-52979593D01*
X137232866Y-52973652D01*
X137216347Y-52962801D01*
X137211127Y-52958752D01*
X137200341Y-52950386D01*
X137193072Y-52947241D01*
X137193068Y-52947238D01*
X137159763Y-52932826D01*
X137149113Y-52927609D01*
X137110360Y-52906305D01*
X137110359Y-52906305D01*
X137111860Y-52903575D01*
X137067311Y-52868798D01*
X137051705Y-52839576D01*
X137003767Y-52711703D01*
X137000615Y-52703295D01*
X136913261Y-52586739D01*
X136796705Y-52499385D01*
X136660316Y-52448255D01*
X136598134Y-52441500D01*
X135401866Y-52441500D01*
X135339684Y-52448255D01*
X135203295Y-52499385D01*
X135086739Y-52586739D01*
X134999385Y-52703295D01*
X134948255Y-52839684D01*
X134947402Y-52847540D01*
X134944341Y-52875714D01*
X134917099Y-52941276D01*
X134906763Y-52951915D01*
X134907029Y-52952181D01*
X134372022Y-53487188D01*
X134364408Y-53501132D01*
X134364539Y-53502965D01*
X134368790Y-53509580D01*
X134906147Y-54046937D01*
X134902978Y-54050106D01*
X134929584Y-54076716D01*
X134944254Y-54123483D01*
X134948255Y-54160316D01*
X134999385Y-54296705D01*
X135086739Y-54413261D01*
X135203295Y-54500615D01*
X135339684Y-54551745D01*
X135401866Y-54558500D01*
X136598134Y-54558500D01*
X136660316Y-54551745D01*
X136796705Y-54500615D01*
X136814071Y-54487600D01*
X136880578Y-54462754D01*
X136949960Y-54477808D01*
X136978729Y-54499333D01*
X137725230Y-55245835D01*
X138471048Y-55991653D01*
X138478588Y-55999939D01*
X138482700Y-56006418D01*
X138488477Y-56011843D01*
X138532351Y-56053043D01*
X138535193Y-56055798D01*
X138554930Y-56075535D01*
X138558127Y-56078015D01*
X138567147Y-56085718D01*
X138599379Y-56115986D01*
X138606325Y-56119805D01*
X138606328Y-56119807D01*
X138617134Y-56125748D01*
X138633653Y-56136599D01*
X138649659Y-56149014D01*
X138656929Y-56152160D01*
X138656934Y-56152163D01*
X138659527Y-56153285D01*
X138661236Y-56154707D01*
X138663757Y-56156198D01*
X138663517Y-56156605D01*
X138714101Y-56198696D01*
X138735460Y-56266404D01*
X138716823Y-56334911D01*
X138712698Y-56341192D01*
X138656052Y-56422091D01*
X138650578Y-56431571D01*
X138561901Y-56621740D01*
X138558155Y-56632032D01*
X138503849Y-56834704D01*
X138501946Y-56845499D01*
X138483658Y-57054525D01*
X138483658Y-57065475D01*
X138501946Y-57274501D01*
X138503849Y-57285296D01*
X138558155Y-57487968D01*
X138561901Y-57498260D01*
X138650577Y-57688425D01*
X138656055Y-57697915D01*
X138685539Y-57740022D01*
X138696015Y-57748396D01*
X138709463Y-57741327D01*
X139660905Y-56789885D01*
X139723217Y-56755859D01*
X139794032Y-56760924D01*
X139839095Y-56789885D01*
X140791259Y-57742049D01*
X140803033Y-57748479D01*
X140815049Y-57739183D01*
X140843945Y-57697915D01*
X140849423Y-57688425D01*
X140938099Y-57498260D01*
X140941845Y-57487968D01*
X140996151Y-57285296D01*
X140998054Y-57274501D01*
X141016342Y-57065475D01*
X141016342Y-57054525D01*
X140998054Y-56845499D01*
X140996151Y-56834704D01*
X140941845Y-56632032D01*
X140938099Y-56621740D01*
X140849422Y-56431571D01*
X140843948Y-56422091D01*
X140782647Y-56334544D01*
X140759959Y-56267270D01*
X140777244Y-56198409D01*
X140815781Y-56160966D01*
X140814317Y-56158952D01*
X140850087Y-56132964D01*
X140860007Y-56126448D01*
X140891235Y-56107980D01*
X140891238Y-56107978D01*
X140898062Y-56103942D01*
X140912383Y-56089621D01*
X140927417Y-56076780D01*
X140937394Y-56069531D01*
X140943807Y-56064872D01*
X140971998Y-56030795D01*
X140979988Y-56022016D01*
X141071899Y-55930105D01*
X141134211Y-55896079D01*
X141160994Y-55893200D01*
X141165500Y-55893200D01*
X141233621Y-55913202D01*
X141280114Y-55966858D01*
X141291500Y-56019200D01*
X141291500Y-56233134D01*
X141298255Y-56295316D01*
X141349385Y-56431705D01*
X141358926Y-56444435D01*
X141383774Y-56510939D01*
X141368722Y-56580322D01*
X141358930Y-56595559D01*
X141349385Y-56608295D01*
X141298255Y-56744684D01*
X141291500Y-56806866D01*
X141291500Y-57503134D01*
X141298255Y-57565316D01*
X141349385Y-57701705D01*
X141436739Y-57818261D01*
X141553295Y-57905615D01*
X141689684Y-57956745D01*
X141751866Y-57963500D01*
X144048134Y-57963500D01*
X144110316Y-57956745D01*
X144246705Y-57905615D01*
X144363261Y-57818261D01*
X144450615Y-57701705D01*
X144501745Y-57565316D01*
X144508500Y-57503134D01*
X144508500Y-57499669D01*
X146492001Y-57499669D01*
X146492371Y-57506490D01*
X146497895Y-57557352D01*
X146501521Y-57572604D01*
X146546676Y-57693054D01*
X146555214Y-57708649D01*
X146631715Y-57810724D01*
X146644276Y-57823285D01*
X146746351Y-57899786D01*
X146761946Y-57908324D01*
X146882394Y-57953478D01*
X146897649Y-57957105D01*
X146948514Y-57962631D01*
X146955328Y-57963000D01*
X147827885Y-57963000D01*
X147843124Y-57958525D01*
X147844329Y-57957135D01*
X147846000Y-57949452D01*
X147846000Y-57427115D01*
X147841525Y-57411876D01*
X147840135Y-57410671D01*
X147832452Y-57409000D01*
X146510116Y-57409000D01*
X146494877Y-57413475D01*
X146493672Y-57414865D01*
X146492001Y-57422548D01*
X146492001Y-57499669D01*
X144508500Y-57499669D01*
X144508500Y-56806866D01*
X144501745Y-56744684D01*
X144450615Y-56608295D01*
X144441074Y-56595565D01*
X144416226Y-56529061D01*
X144431278Y-56459678D01*
X144441070Y-56444441D01*
X144450615Y-56431705D01*
X144501745Y-56295316D01*
X144508500Y-56233134D01*
X144508500Y-56019200D01*
X144528502Y-55951079D01*
X144582158Y-55904586D01*
X144634500Y-55893200D01*
X145734805Y-55893200D01*
X145802926Y-55913202D01*
X145823901Y-55930105D01*
X145997737Y-56103942D01*
X146171053Y-56277258D01*
X146178587Y-56285537D01*
X146182700Y-56292018D01*
X146227986Y-56334544D01*
X146232351Y-56338643D01*
X146235193Y-56341398D01*
X146254930Y-56361135D01*
X146258127Y-56363615D01*
X146267147Y-56371318D01*
X146299379Y-56401586D01*
X146306325Y-56405405D01*
X146306328Y-56405407D01*
X146317134Y-56411348D01*
X146333653Y-56422199D01*
X146349659Y-56434614D01*
X146356928Y-56437759D01*
X146356932Y-56437762D01*
X146390237Y-56452174D01*
X146400887Y-56457391D01*
X146439640Y-56478695D01*
X146448657Y-56481010D01*
X146449592Y-56481567D01*
X146454687Y-56483584D01*
X146454362Y-56484406D01*
X146509662Y-56517322D01*
X146541351Y-56580854D01*
X146535304Y-56647281D01*
X146501522Y-56737394D01*
X146497895Y-56752649D01*
X146492369Y-56803514D01*
X146492000Y-56810328D01*
X146492000Y-56882885D01*
X146496475Y-56898124D01*
X146497865Y-56899329D01*
X146505548Y-56901000D01*
X148228000Y-56901000D01*
X148296121Y-56921002D01*
X148342614Y-56974658D01*
X148354000Y-57027000D01*
X148354000Y-57944884D01*
X148358475Y-57960123D01*
X148359865Y-57961328D01*
X148367548Y-57962999D01*
X149244669Y-57962999D01*
X149251490Y-57962629D01*
X149302352Y-57957105D01*
X149317604Y-57953479D01*
X149438058Y-57908323D01*
X149457884Y-57897468D01*
X149527242Y-57882299D01*
X149593790Y-57907036D01*
X149636400Y-57963824D01*
X149644393Y-58007988D01*
X149644393Y-69728530D01*
X149642893Y-69747915D01*
X149640583Y-69762748D01*
X149640583Y-69762752D01*
X149639202Y-69771621D01*
X149640382Y-69780646D01*
X149640654Y-69811084D01*
X149633661Y-69873155D01*
X149627382Y-69900664D01*
X149600408Y-69977752D01*
X149588169Y-70003168D01*
X149544714Y-70072325D01*
X149527125Y-70094380D01*
X149469380Y-70152125D01*
X149447325Y-70169714D01*
X149378168Y-70213169D01*
X149352752Y-70225408D01*
X149275664Y-70252382D01*
X149248159Y-70258660D01*
X149192673Y-70264912D01*
X149177036Y-70264245D01*
X149177018Y-70265694D01*
X149168047Y-70265584D01*
X149159173Y-70264202D01*
X149150270Y-70265366D01*
X149150263Y-70265366D01*
X149127603Y-70268329D01*
X149111267Y-70269393D01*
X117551470Y-70269393D01*
X117532085Y-70267893D01*
X117517252Y-70265583D01*
X117517248Y-70265583D01*
X117508379Y-70264202D01*
X117499354Y-70265382D01*
X117468919Y-70265654D01*
X117406842Y-70258660D01*
X117379336Y-70252382D01*
X117302248Y-70225408D01*
X117276832Y-70213169D01*
X117207675Y-70169714D01*
X117185620Y-70152125D01*
X117127875Y-70094380D01*
X117110286Y-70072325D01*
X117066831Y-70003168D01*
X117054592Y-69977752D01*
X117027618Y-69900664D01*
X117021339Y-69873156D01*
X117015088Y-69817675D01*
X117015755Y-69802036D01*
X117014306Y-69802018D01*
X117014416Y-69793047D01*
X117015798Y-69784173D01*
X117014634Y-69775270D01*
X117014634Y-69775263D01*
X117011671Y-69752603D01*
X117010607Y-69736267D01*
X117010607Y-65905877D01*
X118708953Y-65905877D01*
X118713863Y-65912435D01*
X118819004Y-65971198D01*
X118830242Y-65976107D01*
X119015852Y-66036415D01*
X119027826Y-66039048D01*
X119221624Y-66062157D01*
X119233873Y-66062414D01*
X119428467Y-66047441D01*
X119440547Y-66045310D01*
X119628514Y-65992828D01*
X119639947Y-65988394D01*
X119782726Y-65916271D01*
X119793010Y-65906626D01*
X119790772Y-65899982D01*
X119262812Y-65372022D01*
X119248868Y-65364408D01*
X119247035Y-65364539D01*
X119240420Y-65368790D01*
X118715713Y-65893497D01*
X118708953Y-65905877D01*
X117010607Y-65905877D01*
X117010607Y-64991301D01*
X118187501Y-64991301D01*
X118203831Y-65185774D01*
X118206044Y-65197833D01*
X118259839Y-65385438D01*
X118264355Y-65396843D01*
X118334012Y-65532381D01*
X118343733Y-65542602D01*
X118350532Y-65540258D01*
X118877978Y-65012812D01*
X118884356Y-65001132D01*
X119614408Y-65001132D01*
X119614539Y-65002965D01*
X119618790Y-65009580D01*
X120156147Y-65546937D01*
X120152978Y-65550106D01*
X120179584Y-65576716D01*
X120194254Y-65623483D01*
X120198255Y-65660316D01*
X120249385Y-65796705D01*
X120336739Y-65913261D01*
X120453295Y-66000615D01*
X120589684Y-66051745D01*
X120651866Y-66058500D01*
X121848134Y-66058500D01*
X121910316Y-66051745D01*
X122046705Y-66000615D01*
X122163261Y-65913261D01*
X122250615Y-65796705D01*
X122301745Y-65660316D01*
X122308500Y-65598134D01*
X122308500Y-64401866D01*
X122301745Y-64339684D01*
X122250615Y-64203295D01*
X122163261Y-64086739D01*
X122046705Y-63999385D01*
X121910316Y-63948255D01*
X121848134Y-63941500D01*
X120651866Y-63941500D01*
X120589684Y-63948255D01*
X120453295Y-63999385D01*
X120336739Y-64086739D01*
X120249385Y-64203295D01*
X120198255Y-64339684D01*
X120197402Y-64347540D01*
X120194341Y-64375714D01*
X120167099Y-64441276D01*
X120156763Y-64451915D01*
X120157029Y-64452181D01*
X119622022Y-64987188D01*
X119614408Y-65001132D01*
X118884356Y-65001132D01*
X118885592Y-64998868D01*
X118885461Y-64997035D01*
X118881210Y-64990420D01*
X118356302Y-64465512D01*
X118343922Y-64458752D01*
X118337534Y-64463534D01*
X118275816Y-64575798D01*
X118270988Y-64587062D01*
X118211975Y-64773095D01*
X118209427Y-64785084D01*
X118187672Y-64979032D01*
X118187501Y-64991301D01*
X117010607Y-64991301D01*
X117010607Y-64094047D01*
X118707766Y-64094047D01*
X118710221Y-64101011D01*
X119237188Y-64627978D01*
X119251132Y-64635592D01*
X119252965Y-64635461D01*
X119259580Y-64631210D01*
X119784729Y-64106061D01*
X119791489Y-64093681D01*
X119786830Y-64087458D01*
X119667395Y-64022881D01*
X119656088Y-64018128D01*
X119469656Y-63960417D01*
X119457644Y-63957951D01*
X119263550Y-63937551D01*
X119251282Y-63937466D01*
X119056930Y-63955153D01*
X119044881Y-63957451D01*
X118857658Y-64012554D01*
X118846290Y-64017147D01*
X118717915Y-64084260D01*
X118707766Y-64094047D01*
X117010607Y-64094047D01*
X117010607Y-61905877D01*
X133458953Y-61905877D01*
X133463863Y-61912435D01*
X133569004Y-61971198D01*
X133580242Y-61976107D01*
X133765852Y-62036415D01*
X133777826Y-62039048D01*
X133971624Y-62062157D01*
X133983873Y-62062414D01*
X134178467Y-62047441D01*
X134190547Y-62045310D01*
X134378514Y-61992828D01*
X134389947Y-61988394D01*
X134532726Y-61916271D01*
X134543010Y-61906626D01*
X134540772Y-61899982D01*
X134012812Y-61372022D01*
X133998868Y-61364408D01*
X133997035Y-61364539D01*
X133990420Y-61368790D01*
X133465713Y-61893497D01*
X133458953Y-61905877D01*
X117010607Y-61905877D01*
X117010607Y-60991301D01*
X132937501Y-60991301D01*
X132953831Y-61185774D01*
X132956044Y-61197833D01*
X133009839Y-61385438D01*
X133014355Y-61396843D01*
X133084012Y-61532381D01*
X133093733Y-61542602D01*
X133100532Y-61540258D01*
X133627978Y-61012812D01*
X133635592Y-60998868D01*
X133635461Y-60997035D01*
X133631210Y-60990420D01*
X133106302Y-60465512D01*
X133093922Y-60458752D01*
X133087534Y-60463534D01*
X133025816Y-60575798D01*
X133020988Y-60587062D01*
X132961975Y-60773095D01*
X132959427Y-60785084D01*
X132937672Y-60979032D01*
X132937501Y-60991301D01*
X117010607Y-60991301D01*
X117010607Y-60094047D01*
X133457766Y-60094047D01*
X133460221Y-60101011D01*
X133987188Y-60627978D01*
X134001132Y-60635592D01*
X134002965Y-60635461D01*
X134009580Y-60631210D01*
X134534729Y-60106061D01*
X134541489Y-60093681D01*
X134536830Y-60087458D01*
X134417395Y-60022881D01*
X134406088Y-60018128D01*
X134219656Y-59960417D01*
X134207644Y-59957951D01*
X134013550Y-59937551D01*
X134001282Y-59937466D01*
X133806930Y-59955153D01*
X133794881Y-59957451D01*
X133607658Y-60012554D01*
X133596290Y-60017147D01*
X133467915Y-60084260D01*
X133457766Y-60094047D01*
X117010607Y-60094047D01*
X117010607Y-58405877D01*
X118708953Y-58405877D01*
X118713863Y-58412435D01*
X118819004Y-58471198D01*
X118830242Y-58476107D01*
X119015852Y-58536415D01*
X119027826Y-58539048D01*
X119221624Y-58562157D01*
X119233873Y-58562414D01*
X119428467Y-58547441D01*
X119440547Y-58545310D01*
X119628514Y-58492828D01*
X119639947Y-58488394D01*
X119782726Y-58416271D01*
X119793010Y-58406626D01*
X119790772Y-58399982D01*
X119262812Y-57872022D01*
X119248868Y-57864408D01*
X119247035Y-57864539D01*
X119240420Y-57868790D01*
X118715713Y-58393497D01*
X118708953Y-58405877D01*
X117010607Y-58405877D01*
X117010607Y-57491301D01*
X118187501Y-57491301D01*
X118203831Y-57685774D01*
X118206044Y-57697833D01*
X118259839Y-57885438D01*
X118264355Y-57896843D01*
X118334012Y-58032381D01*
X118343733Y-58042602D01*
X118350532Y-58040258D01*
X118877978Y-57512812D01*
X118884356Y-57501132D01*
X119614408Y-57501132D01*
X119614539Y-57502965D01*
X119618790Y-57509580D01*
X120156147Y-58046937D01*
X120152978Y-58050106D01*
X120179584Y-58076716D01*
X120194254Y-58123483D01*
X120198255Y-58160316D01*
X120249385Y-58296705D01*
X120336739Y-58413261D01*
X120453295Y-58500615D01*
X120589684Y-58551745D01*
X120651866Y-58558500D01*
X121848134Y-58558500D01*
X121910316Y-58551745D01*
X122046705Y-58500615D01*
X122163261Y-58413261D01*
X122250615Y-58296705D01*
X122301745Y-58160316D01*
X122308500Y-58098134D01*
X122308500Y-56901866D01*
X122308094Y-56898124D01*
X122303707Y-56857747D01*
X122301745Y-56839684D01*
X122250615Y-56703295D01*
X122163261Y-56586739D01*
X122046705Y-56499385D01*
X121910316Y-56448255D01*
X121848134Y-56441500D01*
X120651866Y-56441500D01*
X120589684Y-56448255D01*
X120453295Y-56499385D01*
X120336739Y-56586739D01*
X120249385Y-56703295D01*
X120198255Y-56839684D01*
X120196293Y-56857747D01*
X120194341Y-56875714D01*
X120167099Y-56941276D01*
X120156763Y-56951915D01*
X120157029Y-56952181D01*
X119622022Y-57487188D01*
X119614408Y-57501132D01*
X118884356Y-57501132D01*
X118885592Y-57498868D01*
X118885461Y-57497035D01*
X118881210Y-57490420D01*
X118356302Y-56965512D01*
X118343922Y-56958752D01*
X118337534Y-56963534D01*
X118275816Y-57075798D01*
X118270988Y-57087062D01*
X118211975Y-57273095D01*
X118209427Y-57285084D01*
X118187672Y-57479032D01*
X118187501Y-57491301D01*
X117010607Y-57491301D01*
X117010607Y-56594047D01*
X118707766Y-56594047D01*
X118710221Y-56601011D01*
X119237188Y-57127978D01*
X119251132Y-57135592D01*
X119252965Y-57135461D01*
X119259580Y-57131210D01*
X119784729Y-56606061D01*
X119791489Y-56593681D01*
X119786830Y-56587458D01*
X119667395Y-56522881D01*
X119656088Y-56518128D01*
X119469656Y-56460417D01*
X119457644Y-56457951D01*
X119263550Y-56437551D01*
X119251282Y-56437466D01*
X119056930Y-56455153D01*
X119044881Y-56457451D01*
X118857658Y-56512554D01*
X118846290Y-56517147D01*
X118717915Y-56584260D01*
X118707766Y-56594047D01*
X117010607Y-56594047D01*
X117010607Y-42267966D01*
X119668257Y-42267966D01*
X119698565Y-42402446D01*
X119701645Y-42412275D01*
X119781770Y-42609603D01*
X119786413Y-42618794D01*
X119897694Y-42800388D01*
X119903777Y-42808699D01*
X120043213Y-42969667D01*
X120050580Y-42976883D01*
X120214434Y-43112916D01*
X120222881Y-43118831D01*
X120406756Y-43226279D01*
X120416042Y-43230729D01*
X120615001Y-43306703D01*
X120624899Y-43309579D01*
X120728250Y-43330606D01*
X120742299Y-43329410D01*
X120746000Y-43319065D01*
X120746000Y-43318517D01*
X121254000Y-43318517D01*
X121258064Y-43332359D01*
X121271478Y-43334393D01*
X121278184Y-43333534D01*
X121288262Y-43331392D01*
X121492255Y-43270191D01*
X121501842Y-43266433D01*
X121693095Y-43172739D01*
X121701945Y-43167464D01*
X121875328Y-43043792D01*
X121883200Y-43037139D01*
X122034052Y-42886812D01*
X122040730Y-42878965D01*
X122165003Y-42706020D01*
X122170313Y-42697183D01*
X122264670Y-42506267D01*
X122268469Y-42496672D01*
X122330377Y-42292910D01*
X122332555Y-42282837D01*
X122333986Y-42271962D01*
X122331775Y-42257778D01*
X122318617Y-42254000D01*
X121272115Y-42254000D01*
X121256876Y-42258475D01*
X121255671Y-42259865D01*
X121254000Y-42267548D01*
X121254000Y-43318517D01*
X120746000Y-43318517D01*
X120746000Y-42272115D01*
X120741525Y-42256876D01*
X120740135Y-42255671D01*
X120732452Y-42254000D01*
X119683225Y-42254000D01*
X119669694Y-42257973D01*
X119668257Y-42267966D01*
X117010607Y-42267966D01*
X117010607Y-40358134D01*
X119641500Y-40358134D01*
X119648255Y-40420316D01*
X119699385Y-40556705D01*
X119786739Y-40673261D01*
X119903295Y-40760615D01*
X119911704Y-40763767D01*
X119911705Y-40763768D01*
X120020960Y-40804726D01*
X120077725Y-40847367D01*
X120102425Y-40913929D01*
X120087218Y-40983278D01*
X120067825Y-41009759D01*
X119944590Y-41138717D01*
X119938104Y-41146727D01*
X119818098Y-41322649D01*
X119813000Y-41331623D01*
X119723338Y-41524783D01*
X119719775Y-41534470D01*
X119664389Y-41734183D01*
X119665912Y-41742607D01*
X119678292Y-41746000D01*
X122318344Y-41746000D01*
X122331875Y-41742027D01*
X122333180Y-41732947D01*
X122291214Y-41565875D01*
X122287894Y-41556124D01*
X122202972Y-41360814D01*
X122198105Y-41351739D01*
X122082426Y-41172926D01*
X122076136Y-41164757D01*
X121932293Y-41006677D01*
X121901241Y-40942831D01*
X121909635Y-40872333D01*
X121954812Y-40817564D01*
X121981256Y-40803895D01*
X122088297Y-40763767D01*
X122096705Y-40760615D01*
X122213261Y-40673261D01*
X122300615Y-40556705D01*
X122351745Y-40420316D01*
X122358500Y-40358134D01*
X122358500Y-38561866D01*
X122351745Y-38499684D01*
X122300615Y-38363295D01*
X122213261Y-38246739D01*
X122096705Y-38159385D01*
X121960316Y-38108255D01*
X121898134Y-38101500D01*
X120101866Y-38101500D01*
X120039684Y-38108255D01*
X119903295Y-38159385D01*
X119786739Y-38246739D01*
X119699385Y-38363295D01*
X119648255Y-38499684D01*
X119641500Y-38561866D01*
X119641500Y-40358134D01*
X117010607Y-40358134D01*
X117010607Y-36951470D01*
X117012107Y-36932085D01*
X117014417Y-36917252D01*
X117014417Y-36917248D01*
X117015798Y-36908379D01*
X117014618Y-36899354D01*
X117014346Y-36868916D01*
X117021339Y-36806845D01*
X117027618Y-36779336D01*
X117054592Y-36702248D01*
X117066831Y-36676832D01*
X117110286Y-36607675D01*
X117127875Y-36585620D01*
X117185620Y-36527875D01*
X117207675Y-36510286D01*
X117276832Y-36466831D01*
X117302248Y-36454592D01*
X117379336Y-36427618D01*
X117406841Y-36421340D01*
X117462327Y-36415088D01*
X117477964Y-36415755D01*
X117477982Y-36414306D01*
X117486953Y-36414416D01*
X117495827Y-36415798D01*
X117504730Y-36414634D01*
X117504737Y-36414634D01*
X117527397Y-36411671D01*
X117543733Y-36410607D01*
X149103530Y-36410607D01*
X149122915Y-36412107D01*
G37*
%TD.AperFunction*%
%TA.AperFunction,Conductor*%
G36*
X136385221Y-46368802D02*
G01*
X136431714Y-46422458D01*
X136443100Y-46474800D01*
X136443100Y-48272833D01*
X136442573Y-48284016D01*
X136440898Y-48291509D01*
X136441147Y-48299435D01*
X136441147Y-48299436D01*
X136443038Y-48359586D01*
X136443100Y-48363545D01*
X136443100Y-48391456D01*
X136443597Y-48395390D01*
X136443597Y-48395391D01*
X136443605Y-48395456D01*
X136444538Y-48407293D01*
X136445927Y-48451489D01*
X136451578Y-48470939D01*
X136455587Y-48490300D01*
X136456975Y-48501283D01*
X136458126Y-48510397D01*
X136461045Y-48517768D01*
X136461045Y-48517770D01*
X136474404Y-48551512D01*
X136478249Y-48562742D01*
X136490582Y-48605193D01*
X136494615Y-48612012D01*
X136494617Y-48612017D01*
X136500893Y-48622628D01*
X136509588Y-48640376D01*
X136517048Y-48659217D01*
X136521710Y-48665633D01*
X136521710Y-48665634D01*
X136543036Y-48694987D01*
X136549552Y-48704907D01*
X136565490Y-48731856D01*
X136572058Y-48742962D01*
X136586379Y-48757283D01*
X136599219Y-48772316D01*
X136611128Y-48788707D01*
X136617234Y-48793758D01*
X136645205Y-48816898D01*
X136653984Y-48824888D01*
X138931248Y-51102153D01*
X138938788Y-51110439D01*
X138942900Y-51116918D01*
X138948677Y-51122343D01*
X138992551Y-51163543D01*
X138995393Y-51166298D01*
X139015130Y-51186035D01*
X139018327Y-51188515D01*
X139027347Y-51196218D01*
X139059579Y-51226486D01*
X139066525Y-51230305D01*
X139066528Y-51230307D01*
X139077334Y-51236248D01*
X139093853Y-51247099D01*
X139109859Y-51259514D01*
X139117128Y-51262659D01*
X139117132Y-51262662D01*
X139150437Y-51277074D01*
X139161087Y-51282291D01*
X139199840Y-51303595D01*
X139207515Y-51305566D01*
X139207516Y-51305566D01*
X139219462Y-51308633D01*
X139238167Y-51315037D01*
X139256755Y-51323081D01*
X139264578Y-51324320D01*
X139264588Y-51324323D01*
X139300424Y-51329999D01*
X139312044Y-51332405D01*
X139347189Y-51341428D01*
X139354870Y-51343400D01*
X139375124Y-51343400D01*
X139394834Y-51344951D01*
X139414843Y-51348120D01*
X139422736Y-51347374D01*
X139428468Y-51347554D01*
X139495928Y-51369685D01*
X139513607Y-51384397D01*
X140020115Y-51890905D01*
X140054141Y-51953217D01*
X140049076Y-52024032D01*
X140020115Y-52069095D01*
X139839095Y-52250115D01*
X139776783Y-52284141D01*
X139705968Y-52279076D01*
X139660905Y-52250115D01*
X138708741Y-51297951D01*
X138696967Y-51291521D01*
X138684951Y-51300817D01*
X138656055Y-51342085D01*
X138650577Y-51351575D01*
X138596749Y-51467009D01*
X138549832Y-51520294D01*
X138481555Y-51539755D01*
X138413595Y-51519213D01*
X138393459Y-51502854D01*
X135159967Y-48269362D01*
X135125941Y-48207050D01*
X135131006Y-48136235D01*
X135160123Y-48091016D01*
X135284430Y-47967144D01*
X135284440Y-47967132D01*
X135288096Y-47963489D01*
X135418453Y-47782077D01*
X135517430Y-47581811D01*
X135582370Y-47368069D01*
X135611529Y-47146590D01*
X135611677Y-47140552D01*
X135613074Y-47083365D01*
X135613074Y-47083361D01*
X135613156Y-47080000D01*
X135594852Y-46857361D01*
X135540431Y-46640702D01*
X135490140Y-46525041D01*
X135481320Y-46454596D01*
X135511987Y-46390564D01*
X135572403Y-46353276D01*
X135605690Y-46348800D01*
X136317100Y-46348800D01*
X136385221Y-46368802D01*
G37*
%TD.AperFunction*%
%TA.AperFunction,Conductor*%
G36*
X145730263Y-49208611D02*
G01*
X145774352Y-49245167D01*
X145825465Y-49312506D01*
X145837491Y-49324532D01*
X145940965Y-49403073D01*
X145955792Y-49411427D01*
X146077021Y-49459425D01*
X146092592Y-49463379D01*
X146168329Y-49472544D01*
X146175883Y-49473000D01*
X146416605Y-49473000D01*
X146484726Y-49493002D01*
X146531219Y-49546658D01*
X146541323Y-49616932D01*
X146511829Y-49681512D01*
X146505700Y-49688095D01*
X146154300Y-50039495D01*
X146091988Y-50073521D01*
X146065205Y-50076400D01*
X141043485Y-50076400D01*
X140975364Y-50056398D01*
X140928871Y-50002742D01*
X140918767Y-49932468D01*
X140929291Y-49897149D01*
X140938097Y-49878265D01*
X140941845Y-49867968D01*
X140996151Y-49665296D01*
X140998054Y-49654501D01*
X141016342Y-49445475D01*
X141016342Y-49433743D01*
X141036344Y-49365622D01*
X141090000Y-49319129D01*
X141160274Y-49309025D01*
X141186378Y-49315967D01*
X141191340Y-49318695D01*
X141199022Y-49320667D01*
X141199021Y-49320667D01*
X141210958Y-49323732D01*
X141229666Y-49330137D01*
X141248255Y-49338181D01*
X141256080Y-49339420D01*
X141256082Y-49339421D01*
X141291919Y-49345097D01*
X141303540Y-49347504D01*
X141338689Y-49356528D01*
X141346370Y-49358500D01*
X141366631Y-49358500D01*
X141386340Y-49360051D01*
X141406343Y-49363219D01*
X141414235Y-49362473D01*
X141419462Y-49361979D01*
X141450354Y-49359059D01*
X141462211Y-49358500D01*
X141519012Y-49358500D01*
X141587133Y-49378502D01*
X141595191Y-49384137D01*
X141620717Y-49403512D01*
X141620720Y-49403514D01*
X141627558Y-49408704D01*
X141764431Y-49462896D01*
X141772469Y-49463869D01*
X141772470Y-49463869D01*
X141804280Y-49467718D01*
X141852060Y-49473500D01*
X143327940Y-49473500D01*
X143375720Y-49467718D01*
X143407530Y-49463869D01*
X143407531Y-49463869D01*
X143415569Y-49462896D01*
X143552442Y-49408704D01*
X143669700Y-49319700D01*
X143674888Y-49312865D01*
X143674893Y-49312860D01*
X143726228Y-49245229D01*
X143783346Y-49203062D01*
X143840198Y-49196146D01*
X143861866Y-49198500D01*
X145638134Y-49198500D01*
X145660381Y-49196083D01*
X145730263Y-49208611D01*
G37*
%TD.AperFunction*%
%TA.AperFunction,Conductor*%
G36*
X138606427Y-44966643D02*
G01*
X138665606Y-45012426D01*
X138779174Y-45174620D01*
X138935380Y-45330826D01*
X138939888Y-45333983D01*
X138939891Y-45333985D01*
X139070780Y-45425634D01*
X139116338Y-45457534D01*
X139121320Y-45459857D01*
X139121325Y-45459860D01*
X139241301Y-45515805D01*
X139294586Y-45562722D01*
X139314047Y-45630999D01*
X139293505Y-45698959D01*
X139241301Y-45744195D01*
X139121320Y-45800143D01*
X139121317Y-45800145D01*
X139116339Y-45802466D01*
X138935380Y-45929174D01*
X138779174Y-46085380D01*
X138652466Y-46266339D01*
X138650145Y-46271317D01*
X138650143Y-46271320D01*
X138594539Y-46390564D01*
X138559106Y-46466550D01*
X138501930Y-46679932D01*
X138482677Y-46900000D01*
X138501930Y-47120068D01*
X138559106Y-47333450D01*
X138652466Y-47533661D01*
X138779174Y-47714620D01*
X138935380Y-47870826D01*
X138939888Y-47873983D01*
X138939891Y-47873985D01*
X139111829Y-47994377D01*
X139116338Y-47997534D01*
X139121320Y-47999857D01*
X139121325Y-47999860D01*
X139241893Y-48056081D01*
X139295178Y-48102998D01*
X139314639Y-48171275D01*
X139294097Y-48239235D01*
X139241893Y-48284471D01*
X139121575Y-48340576D01*
X139112085Y-48346055D01*
X139069978Y-48375539D01*
X139061604Y-48386015D01*
X139068673Y-48399463D01*
X140020115Y-49350905D01*
X140054141Y-49413217D01*
X140049076Y-49484032D01*
X140020115Y-49529095D01*
X139839095Y-49710115D01*
X139776783Y-49744141D01*
X139705968Y-49739076D01*
X139660905Y-49710115D01*
X138708741Y-48757951D01*
X138696967Y-48751521D01*
X138684951Y-48760817D01*
X138656053Y-48802089D01*
X138652850Y-48807636D01*
X138601467Y-48856629D01*
X138531753Y-48870065D01*
X138465843Y-48843678D01*
X138454641Y-48833736D01*
X137747004Y-48126099D01*
X137712979Y-48063787D01*
X137710100Y-48037004D01*
X137710100Y-45810994D01*
X137730102Y-45742873D01*
X137747005Y-45721899D01*
X138473300Y-44995604D01*
X138535612Y-44961578D01*
X138606427Y-44966643D01*
G37*
%TD.AperFunction*%
%TA.AperFunction,Conductor*%
G36*
X132809533Y-38865839D02*
G01*
X132866368Y-38908386D01*
X132891179Y-38974906D01*
X132891500Y-38983895D01*
X132891500Y-40358134D01*
X132898255Y-40420316D01*
X132949385Y-40556705D01*
X133036739Y-40673261D01*
X133153295Y-40760615D01*
X133161704Y-40763767D01*
X133161705Y-40763768D01*
X133270451Y-40804535D01*
X133327216Y-40847176D01*
X133351916Y-40913738D01*
X133336709Y-40983087D01*
X133317316Y-41009568D01*
X133190629Y-41142138D01*
X133187715Y-41146410D01*
X133187714Y-41146411D01*
X133185542Y-41149595D01*
X133064743Y-41326680D01*
X132970688Y-41529305D01*
X132910989Y-41744570D01*
X132887251Y-41966695D01*
X132900110Y-42189715D01*
X132901247Y-42194761D01*
X132901248Y-42194767D01*
X132915449Y-42257778D01*
X132949222Y-42407639D01*
X133003508Y-42541330D01*
X133026662Y-42598351D01*
X133033266Y-42614616D01*
X133149987Y-42805088D01*
X133296250Y-42973938D01*
X133468126Y-43116632D01*
X133503249Y-43137156D01*
X133541445Y-43159476D01*
X133590169Y-43211114D01*
X133603240Y-43280897D01*
X133576509Y-43346669D01*
X133536055Y-43380027D01*
X133523607Y-43386507D01*
X133519474Y-43389610D01*
X133519471Y-43389612D01*
X133441241Y-43448349D01*
X133344965Y-43520635D01*
X133279346Y-43589301D01*
X133202031Y-43670207D01*
X133190629Y-43682138D01*
X133064743Y-43866680D01*
X133026011Y-43950121D01*
X132989471Y-44028841D01*
X132970688Y-44069305D01*
X132910989Y-44284570D01*
X132887251Y-44506695D01*
X132887548Y-44511848D01*
X132887548Y-44511851D01*
X132893011Y-44606590D01*
X132900110Y-44729715D01*
X132901247Y-44734761D01*
X132901248Y-44734767D01*
X132944818Y-44928099D01*
X132940282Y-44998951D01*
X132898160Y-45056102D01*
X132831827Y-45081408D01*
X132821901Y-45081800D01*
X130165195Y-45081800D01*
X130097074Y-45061798D01*
X130076100Y-45044895D01*
X129178952Y-44147747D01*
X129171412Y-44139461D01*
X129167300Y-44132982D01*
X129117648Y-44086356D01*
X129114807Y-44083602D01*
X129095070Y-44063865D01*
X129091873Y-44061385D01*
X129082851Y-44053680D01*
X129056400Y-44028841D01*
X129050621Y-44023414D01*
X129043675Y-44019595D01*
X129043672Y-44019593D01*
X129032866Y-44013652D01*
X129016347Y-44002801D01*
X129015883Y-44002441D01*
X129000341Y-43990386D01*
X128993072Y-43987241D01*
X128993068Y-43987238D01*
X128959763Y-43972826D01*
X128949113Y-43967609D01*
X128910360Y-43946305D01*
X128890737Y-43941267D01*
X128872034Y-43934863D01*
X128860720Y-43929967D01*
X128860719Y-43929967D01*
X128853445Y-43926819D01*
X128845622Y-43925580D01*
X128845612Y-43925577D01*
X128809776Y-43919901D01*
X128798156Y-43917495D01*
X128763012Y-43908472D01*
X128763009Y-43908472D01*
X128759702Y-43907622D01*
X128755331Y-43906500D01*
X128755643Y-43905285D01*
X128697848Y-43880079D01*
X128672924Y-43851894D01*
X128582822Y-43712617D01*
X128582820Y-43712614D01*
X128580014Y-43708277D01*
X128429670Y-43543051D01*
X128425619Y-43539852D01*
X128425615Y-43539848D01*
X128258414Y-43407800D01*
X128258410Y-43407798D01*
X128254359Y-43404598D01*
X128213053Y-43381796D01*
X128163084Y-43331364D01*
X128148312Y-43261921D01*
X128173428Y-43195516D01*
X128200780Y-43168909D01*
X128254107Y-43130871D01*
X128379860Y-43041173D01*
X128538096Y-42883489D01*
X128597594Y-42800689D01*
X128665435Y-42706277D01*
X128668453Y-42702077D01*
X128670746Y-42697438D01*
X128673405Y-42693012D01*
X128675108Y-42694035D01*
X128717420Y-42648097D01*
X128762584Y-42631663D01*
X128767262Y-42630922D01*
X128775189Y-42630673D01*
X128794643Y-42625021D01*
X128814000Y-42621013D01*
X128826230Y-42619468D01*
X128826231Y-42619468D01*
X128834097Y-42618474D01*
X128841468Y-42615555D01*
X128841470Y-42615555D01*
X128875212Y-42602196D01*
X128886442Y-42598351D01*
X128921283Y-42588229D01*
X128921284Y-42588229D01*
X128928893Y-42586018D01*
X128935712Y-42581985D01*
X128935717Y-42581983D01*
X128946328Y-42575707D01*
X128964076Y-42567012D01*
X128982917Y-42559552D01*
X129018687Y-42533564D01*
X129028607Y-42527048D01*
X129059835Y-42508580D01*
X129059838Y-42508578D01*
X129066662Y-42504542D01*
X129080983Y-42490221D01*
X129096017Y-42477380D01*
X129112407Y-42465472D01*
X129140598Y-42431395D01*
X129148588Y-42422616D01*
X132676405Y-38894800D01*
X132738717Y-38860774D01*
X132809533Y-38865839D01*
G37*
%TD.AperFunction*%
%TD*%
M02*
