%TF.GenerationSoftware,KiCad,Pcbnew,(6.0.5)*%
%TF.CreationDate,2023-06-19T00:58:59+02:00*%
%TF.ProjectId,PCB_Suelo,5043425f-5375-4656-9c6f-2e6b69636164,rev?*%
%TF.SameCoordinates,Original*%
%TF.FileFunction,Soldermask,Bot*%
%TF.FilePolarity,Negative*%
%FSLAX46Y46*%
G04 Gerber Fmt 4.6, Leading zero omitted, Abs format (unit mm)*
G04 Created by KiCad (PCBNEW (6.0.5)) date 2023-06-19 00:58:59*
%MOMM*%
%LPD*%
G01*
G04 APERTURE LIST*
G04 Aperture macros list*
%AMRoundRect*
0 Rectangle with rounded corners*
0 $1 Rounding radius*
0 $2 $3 $4 $5 $6 $7 $8 $9 X,Y pos of 4 corners*
0 Add a 4 corners polygon primitive as box body*
4,1,4,$2,$3,$4,$5,$6,$7,$8,$9,$2,$3,0*
0 Add four circle primitives for the rounded corners*
1,1,$1+$1,$2,$3*
1,1,$1+$1,$4,$5*
1,1,$1+$1,$6,$7*
1,1,$1+$1,$8,$9*
0 Add four rect primitives between the rounded corners*
20,1,$1+$1,$2,$3,$4,$5,0*
20,1,$1+$1,$4,$5,$6,$7,0*
20,1,$1+$1,$6,$7,$8,$9,0*
20,1,$1+$1,$8,$9,$2,$3,0*%
G04 Aperture macros list end*
%ADD10R,2.200000X0.600000*%
%ADD11RoundRect,0.028800X0.696200X0.211200X-0.696200X0.211200X-0.696200X-0.211200X0.696200X-0.211200X0*%
%ADD12RoundRect,0.028800X-0.696200X-0.211200X0.696200X-0.211200X0.696200X0.211200X-0.696200X0.211200X0*%
%ADD13R,1.680000X1.880000*%
%ADD14R,1.000000X1.400000*%
%ADD15R,1.508000X1.508000*%
%ADD16C,1.508000*%
%ADD17R,1.700000X1.700000*%
%ADD18O,1.700000X1.700000*%
%ADD19R,1.100000X1.100000*%
%ADD20C,1.100000*%
%ADD21R,1.150000X1.450000*%
G04 APERTURE END LIST*
D10*
%TO.C,U1*%
X148100000Y-54615000D03*
X142900000Y-54615000D03*
X148100000Y-53345000D03*
X148100000Y-55885000D03*
X148100000Y-57155000D03*
X142900000Y-53345000D03*
X142900000Y-55885000D03*
X142900000Y-57155000D03*
%TD*%
D11*
%TO.C,R2*%
X146910000Y-46775000D03*
X146910000Y-47425000D03*
X146910000Y-48075000D03*
X146910000Y-48725000D03*
D12*
X142590000Y-48725000D03*
X142590000Y-48075000D03*
X142590000Y-47425000D03*
X142590000Y-46775000D03*
D13*
X144750000Y-47750000D03*
%TD*%
D11*
%TO.C,R1*%
X146910000Y-39775000D03*
X146910000Y-40425000D03*
X146910000Y-41075000D03*
X146910000Y-41725000D03*
D12*
X142590000Y-41725000D03*
X142590000Y-41075000D03*
X142590000Y-40425000D03*
X142590000Y-39775000D03*
D13*
X144750000Y-40750000D03*
%TD*%
D14*
%TO.C,Q1*%
X145000000Y-60900000D03*
X144050000Y-63100000D03*
X145950000Y-63100000D03*
%TD*%
D15*
%TO.C,PS1*%
X139750000Y-67220000D03*
D16*
X139750000Y-64680000D03*
X139750000Y-62140000D03*
X139750000Y-59600000D03*
X139750000Y-57060000D03*
X139750000Y-54520000D03*
X139750000Y-51980000D03*
X139750000Y-49440000D03*
X139750000Y-46900000D03*
X139750000Y-44360000D03*
X139750000Y-41820000D03*
X139750000Y-39280000D03*
%TD*%
D17*
%TO.C,J3*%
X121000000Y-39460000D03*
D18*
X121000000Y-42000000D03*
%TD*%
%TO.C,J2*%
X134250000Y-47080000D03*
X134250000Y-44540000D03*
X134250000Y-42000000D03*
D17*
X134250000Y-39460000D03*
%TD*%
%TO.C,J1*%
X127500000Y-39460000D03*
D18*
X127500000Y-42000000D03*
X127500000Y-44540000D03*
%TD*%
D19*
%TO.C,C7*%
X121250000Y-65000000D03*
D20*
X119250000Y-65000000D03*
%TD*%
%TO.C,C6*%
X119250000Y-57500000D03*
D19*
X121250000Y-57500000D03*
%TD*%
D20*
%TO.C,C5*%
X119500000Y-50000000D03*
D19*
X121500000Y-50000000D03*
%TD*%
D20*
%TO.C,C4*%
X127500000Y-50000000D03*
D19*
X129500000Y-50000000D03*
%TD*%
D21*
%TO.C,C3*%
X145650000Y-67750000D03*
X143850000Y-67750000D03*
%TD*%
D19*
%TO.C,C2*%
X136000000Y-61000000D03*
D20*
X134000000Y-61000000D03*
%TD*%
%TO.C,C1*%
X134000000Y-53500000D03*
D19*
X136000000Y-53500000D03*
%TD*%
M02*
