M48
; DRILL file {KiCad (6.0.5)} date Mon Jun 19 00:59:08 2023
; FORMAT={-:-/ absolute / metric / decimal}
; #@! TF.CreationDate,2023-06-19T00:59:08+02:00
; #@! TF.GenerationSoftware,Kicad,Pcbnew,(6.0.5)
; #@! TF.FileFunction,Plated,1,2,PTH
FMAT,2
METRIC
; #@! TA.AperFunction,Plated,PTH,ViaDrill
T1C0.400
; #@! TA.AperFunction,Plated,PTH,ComponentDrill
T2C0.750
; #@! TA.AperFunction,Plated,PTH,ComponentDrill
T3C1.000
%
G90
G05
T1
X140.662Y-47.961
X142.286Y-42.766
X146.191Y-42.774
T2
X119.25Y-57.5
X119.25Y-65.0
X119.5Y-50.0
X121.25Y-57.5
X121.25Y-65.0
X121.5Y-50.0
X127.5Y-50.0
X129.5Y-50.0
X134.0Y-53.5
X134.0Y-61.0
X136.0Y-53.5
X136.0Y-61.0
T3
X121.0Y-39.46
X121.0Y-42.0
X127.5Y-39.46
X127.5Y-42.0
X127.5Y-44.54
X134.25Y-39.46
X134.25Y-42.0
X134.25Y-44.54
X134.25Y-47.08
X139.75Y-39.28
X139.75Y-41.82
X139.75Y-44.36
X139.75Y-46.9
X139.75Y-49.44
X139.75Y-51.98
X139.75Y-54.52
X139.75Y-57.06
X139.75Y-59.6
X139.75Y-62.14
X139.75Y-64.68
X139.75Y-67.22
T0
M30
